<svg width="50" height="51" viewBox="0 0 50 51" fill="none" xmlns="http://www.w3.org/2000/svg">
<g filter="url(#filter0_d_4838_614)">
<circle cx="23" cy="24" r="12" fill="url(#paint0_linear_4838_614)"/>
<path d="M21.6168 27.6875V29H14.9449V27.8721L18.1852 24.3379C18.5406 23.9368 18.8209 23.5905 19.026 23.2988C19.2311 23.0072 19.3746 22.7451 19.4566 22.5127C19.5432 22.2757 19.5865 22.0456 19.5865 21.8223C19.5865 21.5078 19.5273 21.2321 19.4088 20.9951C19.2949 20.7536 19.1262 20.5645 18.9029 20.4277C18.6796 20.2865 18.4085 20.2158 18.0895 20.2158C17.7203 20.2158 17.4104 20.2956 17.1598 20.4551C16.9091 20.6146 16.72 20.8356 16.5924 21.1182C16.4648 21.3962 16.401 21.7152 16.401 22.0752H14.7535C14.7535 21.4964 14.8857 20.9678 15.15 20.4893C15.4143 20.0062 15.7971 19.6234 16.2984 19.3408C16.7997 19.0537 17.4036 18.9102 18.11 18.9102C18.7753 18.9102 19.3404 19.0218 19.8053 19.2451C20.2701 19.4684 20.6233 19.7852 20.8648 20.1953C21.1109 20.6055 21.234 21.0908 21.234 21.6514C21.234 21.9613 21.1839 22.2689 21.0836 22.5742C20.9833 22.8796 20.8398 23.1849 20.6529 23.4902C20.4706 23.791 20.2542 24.0941 20.0035 24.3994C19.7529 24.7002 19.4771 25.0055 19.1764 25.3154L17.023 27.6875H21.6168ZM30.4584 25.4521V26.7646H23.2807L23.226 25.7734L27.5189 19.0469H28.8383L27.4096 21.4941L24.9418 25.4521H30.4584ZM29.2143 19.0469V29H27.5668V19.0469H29.2143Z" fill="#FFF7EE"/>
<path d="M36.5138 11.3364C37.1103 10.7775 38.0517 10.8047 38.565 11.4408C41.5647 15.1582 43.1456 19.8426 42.9895 24.6493C42.8173 29.9508 40.5461 34.9668 36.6756 38.5938C32.8051 42.2208 27.6523 44.1617 22.3507 43.9895C17.5441 43.8333 12.9721 41.9518 9.45728 38.7172C8.8558 38.1637 8.88975 37.2225 9.48621 36.6636C10.0827 36.1046 11.0153 36.1406 11.6239 36.6863C14.5963 39.3519 18.4251 40.9003 22.4468 41.0309C26.9637 41.1776 31.3539 39.524 34.6515 36.4338C37.9492 33.3436 39.8842 29.07 40.0309 24.5532C40.1615 20.5315 38.8649 16.6102 36.3978 13.4711C35.8927 12.8284 35.9173 11.8954 36.5138 11.3364Z" fill="url(#paint1_linear_4838_614)"/>
<rect x="9" y="36" width="3" height="8" rx="1.5" fill="#BADDCD"/>
<rect x="17" y="36" width="3" height="8" rx="1.5" transform="rotate(90 17 36)" fill="#BADDCD"/>
<path d="M35.7599 10.5771C36.3231 9.98468 36.3026 9.04306 35.6701 8.52521C32.1426 5.63685 27.7198 4.03052 23.1312 4.00043C18.0475 3.96709 13.1419 5.87093 9.41169 9.32492C5.68146 12.7789 3.40654 17.5238 3.04941 22.595C2.72705 27.1724 3.98901 31.7055 6.59796 35.4444C7.06572 36.1148 8.00299 36.2075 8.63694 35.6915C9.27088 35.1754 9.36044 34.2464 8.90134 33.5701C6.76278 30.4198 5.73274 26.6295 6.00222 22.803C6.30649 18.4823 8.24471 14.4397 11.4228 11.4969C14.601 8.55414 18.7805 6.93208 23.1118 6.96049C26.9477 6.98565 30.6477 8.3037 33.6245 10.6779C34.2635 11.1875 35.1967 11.1696 35.7599 10.5771Z" fill="url(#paint2_linear_4838_614)"/>
<rect width="3" height="8" rx="1.5" transform="matrix(-0.258819 -0.965926 -0.965926 0.258819 36.5039 10.7274)" fill="#88DDEE"/>
<rect width="3" height="8" rx="1.5" transform="matrix(-0.965926 0.258819 0.258819 0.965926 34.4333 3)" fill="#88DDEE"/>
</g>
<defs>
<filter id="filter0_d_4838_614" x="0" y="0.336792" width="50" height="50.6632" filterUnits="userSpaceOnUse" color-interpolation-filters="sRGB">
<feFlood flood-opacity="0" result="BackgroundImageFix"/>
<feColorMatrix in="SourceAlpha" type="matrix" values="0 0 0 0 0 0 0 0 0 0 0 0 0 0 0 0 0 0 127 0" result="hardAlpha"/>
<feOffset dx="2" dy="2"/>
<feGaussianBlur stdDeviation="2.5"/>
<feColorMatrix type="matrix" values="0 0 0 0 0 0 0 0 0 0 0 0 0 0 0 0 0 0 0.06 0"/>
<feBlend mode="normal" in2="BackgroundImageFix" result="effect1_dropShadow_4838_614"/>
<feBlend mode="normal" in="SourceGraphic" in2="effect1_dropShadow_4838_614" result="shape"/>
</filter>
<linearGradient id="paint0_linear_4838_614" x1="11" y1="28" x2="33.0065" y2="30.1357" gradientUnits="userSpaceOnUse">
<stop offset="0.257093" stop-color="#BBDDCC"/>
<stop offset="1" stop-color="#88DDEE"/>
</linearGradient>
<linearGradient id="paint1_linear_4838_614" x1="19" y1="42.5" x2="47.3963" y2="28.2776" gradientUnits="userSpaceOnUse">
<stop offset="0.203416" stop-color="#BBDDCC"/>
<stop offset="0.979644" stop-color="#FFF7EE"/>
</linearGradient>
<linearGradient id="paint2_linear_4838_614" x1="29.5" y1="1" x2="15.037" y2="33.4707" gradientUnits="userSpaceOnUse">
<stop offset="0.173466" stop-color="#88DDEE"/>
<stop offset="1" stop-color="#FFF7EE"/>
</linearGradient>
</defs>
</svg>
