<svg width="333" height="278" viewBox="0 0 333 278" fill="none" xmlns="http://www.w3.org/2000/svg">
<path d="M97.2768 82.1088C124.681 69.8867 170.044 22.8015 208.254 24.0259C247.333 25.2726 289.153 36.0254 298.444 111.05C307.735 186.075 240.36 236.811 184.526 249.59C113.92 265.752 17.7592 263.882 2.09629 173.942C-13.9899 81.4855 66.8199 95.689 97.2768 82.1088Z" fill="url(#paint0_linear_2859_3237)"/>
<path d="M216.141 106.976C214.515 110.761 212.398 113.989 210.081 116.415C206.895 119.755 202.996 123.428 202.84 125.899C202.84 126.077 202.506 130.708 195.109 139.123C194.886 139.368 194.641 139.635 194.418 139.902C194.262 140.081 194.106 140.259 193.95 140.437C182.565 153.416 138.027 165.794 134.262 185.14C133.326 189.949 132.747 194.668 132.791 199.277C132.791 199.432 132.791 199.566 132.791 199.722C132.791 199.789 132.791 199.878 132.791 199.944C132.791 200.323 132.814 200.679 132.836 201.058C132.836 201.236 132.858 201.436 132.858 201.614C132.858 201.792 132.88 201.993 132.903 202.171C132.925 202.349 132.925 202.549 132.947 202.727C132.97 202.905 132.97 203.106 132.992 203.284C133.036 203.662 133.059 204.018 133.103 204.375C133.126 204.531 133.148 204.664 133.17 204.82C133.192 205.043 133.237 205.265 133.259 205.466C133.282 205.644 133.304 205.822 133.348 206C133.371 206.178 133.415 206.356 133.437 206.534C133.504 206.89 133.571 207.269 133.638 207.625C133.638 207.647 133.638 207.67 133.638 207.67C133.994 209.384 134.462 211.076 135.064 212.768C138.228 221.495 143.865 228.975 156.431 236.5C162.602 217.821 192.146 218.712 200.746 222.519C202.038 223.097 201.993 224.968 200.657 225.435C197.872 226.437 193.972 228.218 192.68 230.622C191.121 233.583 183.991 248.989 174.076 247.92C175.591 248.388 183.991 251.215 186.977 258.05C188.358 261.211 191.923 272.164 195.332 275.86C196.201 276.75 196.111 277.93 194.641 277.841C188.893 277.997 179.023 278.242 174.789 277.418C167.504 275.993 153.69 266.532 152.799 249.813C151.841 246.317 113.073 252.573 65.7506 194.735C36.4968 158.892 51.6696 105.707 67.4662 82.9326C77.5145 68.462 120.515 30.1927 170.356 39.8769C219.728 49.4498 220.664 96.5127 216.141 106.976Z" fill="url(#paint1_linear_2859_3237)"/>
<path opacity="0.6" d="M68.3573 112.92C60.3811 115.258 56.8608 117.573 53.5188 117.84C53.0955 117.863 52.6944 117.996 52.3602 118.241C51.2017 119.109 45.9213 110.026 44.228 108.535C41.5544 106.175 34.046 105.262 31.1496 106.843C27.6071 108.757 27.4957 125.855 31.8626 128.571C34.0906 129.973 36.1626 130.04 37.6331 129.773C39.0813 129.506 40.3958 130.285 41.2425 131.487C45.0747 137.008 50.8675 148.807 55.6131 149.475C65.862 150.922 77.3362 139.613 79.8984 136.942C81.8813 134.871 76.4896 120.423 73.9942 114.434C73.3258 112.809 70.0506 112.431 68.3573 112.92Z" fill="#246483"/>
<path d="M73.3703 112.853C62.765 115.547 54.9001 120.445 52.5607 118.664C50.2213 116.883 46.4337 109.581 44.6067 107.978C41.9331 105.618 34.0682 105.262 31.1718 106.842C27.6293 108.757 27.5179 125.855 31.8848 128.571C36.2517 131.287 39.9279 128.971 39.9279 128.971C39.9279 128.971 48.8177 146.826 54.967 147.716C65.2158 149.164 77.3584 137.632 79.9206 134.96C82.4828 132.289 73.3703 112.853 73.3703 112.853Z" fill="url(#paint2_linear_2859_3237)"/>
<path d="M202.394 127.836C202.706 138.767 216.953 147.094 216.908 158.737C217.672 170.948 209.813 189.28 198.785 185.563C191.704 183.176 205.313 166.795 204.778 161.074C204.243 155.352 180.047 143.153 180.047 143.153L202.394 127.836Z" fill="url(#paint3_linear_2859_3237)"/>
<g opacity="0.16">
<path d="M85.5499 102.84C85.6836 104.955 86.5303 106.669 87.8894 107.07C89.4935 107.559 91.1423 106.112 91.7661 104.131C92.3899 102.15 91.3428 99.7676 90.1174 99.4114C87.3546 98.5877 85.394 100.413 85.5499 102.84Z" fill="#003355"/>
<path d="M85.0003 69.6198C82.2375 73.2931 82.4603 78.7251 84.4433 80.1722C86.7604 81.8642 90.8377 79.727 93.6004 76.0536C96.3631 72.3803 96.2517 67.8165 94.603 66.3917C91.1941 63.4976 87.763 65.9242 85.0003 69.6198Z" fill="#003355"/>
<path d="M62.0866 100.047C60.6607 102.273 61.4405 105.657 62.9332 106.592C65.1167 107.928 67.1887 106.459 68.6147 104.232C70.0406 102.006 70.7313 99.869 68.1691 98.2438C65.4509 96.5519 63.5348 97.8208 62.0866 100.047Z" fill="#003355"/>
<path d="M106.411 75.7195C104.629 78.992 103.337 82.8212 104.83 84.3573C106.59 86.1606 110.199 85.1142 112.917 82.5541C115.613 79.9939 116.348 75.7195 115.012 74.3614C111.915 71.2002 108.439 71.9571 106.411 75.7195Z" fill="#003355"/>
<path d="M91.8849 85.6042C93.7564 83.979 95.7171 83.2666 96.9202 84.0236C98.3461 84.9141 98.1901 87.3852 96.9202 89.5002C95.6502 91.6151 92.9989 92.706 91.9072 92.0381C89.4564 90.4797 89.746 87.452 91.8849 85.6042Z" fill="#003355"/>
</g>
<path d="M210.081 116.415C207.095 119.577 202.996 123.428 202.84 125.899C202.84 126.077 202.506 130.708 195.109 139.123C194.886 139.368 194.641 139.635 194.418 139.902C194.262 140.08 194.106 140.258 193.95 140.437C182.565 153.416 138.027 165.794 134.262 185.14C133.326 189.948 132.747 194.668 132.791 199.276C132.791 199.432 132.791 199.566 132.791 199.722C132.791 199.788 132.791 199.878 132.791 199.944C132.791 200.323 132.814 200.679 132.836 201.057C132.836 201.236 132.858 201.436 132.858 201.614C132.858 201.792 132.88 201.992 132.903 202.171C132.925 202.349 132.925 202.549 132.947 202.727C132.97 202.905 132.97 203.106 132.992 203.284C133.036 203.662 133.059 204.018 133.103 204.375C133.126 204.53 133.148 204.664 133.17 204.82C133.192 205.042 133.237 205.265 133.259 205.465C133.281 205.644 133.326 205.822 133.348 206C133.371 206.178 133.415 206.356 133.437 206.534C133.504 206.89 133.571 207.269 133.638 207.625C133.638 207.647 133.638 207.669 133.638 207.669C134.351 211.276 132.97 214.994 130.095 217.309C129.561 217.754 129.093 218.066 128.759 218.266C125.283 220.27 111.982 222.919 103.515 184.093C90.8157 125.699 122.854 120 134.663 113.432C135.509 114.924 136.534 116.326 137.626 117.551C138.918 118.998 140.277 120.222 141.77 121.402C144.756 123.762 148.053 125.677 151.507 127.168C154.96 128.682 158.547 129.751 162.268 130.396C165.989 131.042 169.732 131.331 173.497 130.953C173.72 130.93 173.965 130.908 174.21 130.886C174.433 130.864 174.678 130.841 174.901 130.797L176.237 130.619L178.933 130.24C180.716 129.973 182.52 129.684 184.303 129.372C186.085 129.038 187.89 128.66 189.672 128.214C191.455 127.769 193.215 127.257 194.953 126.612C195.71 126.344 196.468 126.033 197.225 125.721C200.255 123.517 207.742 118.107 210.081 116.415Z" fill="url(#paint4_linear_2859_3237)"/>
<path opacity="0.45" d="M184.971 136.674C184.86 136.073 184.281 135.672 183.679 135.784C169.776 138.388 138.562 159.783 136.69 161.853C133.549 165.304 130.964 169.823 129.739 173.296C126.731 181.8 125.996 190.928 125.372 199.877C122.698 187.188 120.47 163.968 130.719 154.684C132.702 152.881 148.098 138.945 153.289 136.051C153.668 135.917 153.779 134.893 153.311 134.938C149.524 135.183 130.474 152.28 130.474 152.28C122.342 159.961 121.295 170.958 121.451 181.11C121.518 186.23 122.141 191.44 122.854 196.471C123.189 198.786 125.261 204.708 123.545 206.734C119.713 205.243 117.084 193.622 116.081 189.993C114.232 183.292 112.294 170.914 114.165 161.653C114.856 158.269 116.393 155.063 117.864 151.946C119.134 149.23 130.274 134.559 133.348 130.797C133.616 130.463 133.861 130.084 134.061 129.706C134.217 129.439 134.217 129.149 133.928 128.927C133.66 128.726 133.371 128.637 133.126 128.86C132.724 129.194 132.368 129.55 132.034 129.951C130.519 131.776 129.048 133.624 127.489 135.405C125.84 137.297 116.928 149.386 115.368 152.681C113.118 157.467 112.115 162.432 111.826 167.708C111.135 179.574 113.853 190.727 118.287 201.658C118.933 203.284 121.852 212.3 125.194 211.142C127.711 210.274 126.642 203.729 126.753 201.658C127.244 193.599 127.466 184.828 129.917 177.103C130.742 174.543 133.905 167.419 137.648 163.456C140.924 159.916 170.378 140.548 184.08 137.965C184.682 137.854 185.083 137.275 184.971 136.674Z" fill="url(#paint5_linear_2859_3237)"/>
<g opacity="0.6">
<g opacity="0.6">
<path opacity="0.6" d="M129.093 103.548C128.892 103.548 128.692 103.459 128.558 103.28C128.335 102.991 128.38 102.568 128.692 102.345L136.245 96.5795C136.534 96.3568 136.958 96.4013 137.18 96.713C137.403 97.0024 137.359 97.4254 137.047 97.648L129.494 103.414C129.382 103.503 129.226 103.548 129.093 103.548Z" fill="#FFA173"/>
</g>
<g opacity="0.6">
<path opacity="0.6" d="M141.102 111.228C140.901 111.228 140.701 111.139 140.567 110.983C140.344 110.694 140.389 110.271 140.678 110.048L146.404 105.507C146.694 105.284 147.117 105.329 147.34 105.618C147.563 105.907 147.518 106.33 147.229 106.553L141.525 111.072C141.391 111.184 141.258 111.228 141.102 111.228Z" fill="#FFA173"/>
</g>
<g opacity="0.6">
<path opacity="0.6" d="M215.138 100.943C214.96 100.943 214.782 100.876 214.648 100.742L211.105 96.9801C210.86 96.713 210.86 96.29 211.128 96.0451C211.395 95.8002 211.818 95.8002 212.063 96.0674L215.606 99.8297C215.851 100.097 215.851 100.52 215.584 100.765C215.472 100.876 215.294 100.943 215.138 100.943Z" fill="#FFA173"/>
</g>
<g opacity="0.6">
<path opacity="0.6" d="M214.269 104.438C214.091 104.438 213.913 104.371 213.779 104.237L209.546 99.7626C209.301 99.4954 209.301 99.0725 209.568 98.8276C209.836 98.5827 210.259 98.5827 210.504 98.8498L214.737 103.325C214.982 103.592 214.982 104.015 214.715 104.26C214.603 104.371 214.425 104.438 214.269 104.438Z" fill="#FFA173"/>
</g>
<g opacity="0.6">
<path opacity="0.6" d="M213.022 108.312C212.844 108.312 212.643 108.245 212.509 108.089L207.229 102.056C206.984 101.789 207.006 101.366 207.296 101.121C207.563 100.876 207.987 100.898 208.232 101.188L213.512 107.221C213.757 107.488 213.735 107.911 213.445 108.156C213.334 108.267 213.178 108.312 213.022 108.312Z" fill="#FFA173"/>
</g>
<g opacity="0.6">
<path opacity="0.6" d="M129.672 106.909C129.471 106.909 129.271 106.82 129.137 106.664C128.914 106.375 128.959 105.952 129.249 105.729L138.829 98.227C139.119 98.0044 139.542 98.0489 139.765 98.3383C139.988 98.6277 139.943 99.0507 139.653 99.2733L130.073 106.776C129.962 106.865 129.806 106.909 129.672 106.909Z" fill="#FFA173"/>
</g>
<g opacity="0.6">
<path opacity="0.6" d="M136.133 110.85C135.933 110.85 135.732 110.761 135.621 110.605C135.398 110.315 135.442 109.892 135.732 109.67L145.379 101.989C145.669 101.767 146.092 101.811 146.315 102.1C146.538 102.39 146.493 102.813 146.204 103.036L136.556 110.716C136.423 110.805 136.289 110.85 136.133 110.85Z" fill="#FFA173"/>
</g>
<g opacity="0.6">
<path opacity="0.6" d="M130.853 110.493C130.652 110.493 130.452 110.404 130.34 110.248C130.118 109.959 130.162 109.536 130.452 109.313L142.082 100.008C142.372 99.785 142.795 99.8295 143.018 100.119C143.241 100.408 143.196 100.831 142.906 101.054L131.276 110.337C131.143 110.449 131.009 110.493 130.853 110.493Z" fill="#FFA173"/>
</g>
</g>
<path d="M203.04 98.2268C206.516 97.5589 209.635 93.8634 211.061 93.7966C211.618 93.7743 211.886 93.6185 212.197 94.2863C212.465 94.8874 211.886 95.4217 211.507 95.7334C210.081 96.9133 209.813 97.7816 207.764 99.1841C206.338 100.164 203.553 101.232 201.258 101.076C198.785 100.854 197.114 100.52 195.309 98.7611C194.864 98.3159 194.552 97.9151 194.663 97.225C195.042 95.0878 198.428 99.0951 203.04 98.2268Z" fill="#003355"/>
<path d="M161.755 95.5552C160.352 93.7742 158.948 97.069 158.324 97.7592C156.92 99.3175 155.094 100.074 152.955 99.696C149.635 99.1172 146.026 94.687 142.572 94.9541C139.23 95.2213 142.305 96.8687 143.508 97.5143C145.78 98.761 147.763 100.497 150.147 101.544C152.799 102.701 155.495 103.258 157.968 101.499C159.349 100.542 163.137 97.3139 161.755 95.5552Z" fill="#003355"/>
<path d="M150.103 78.7472C148.365 78.3242 146.404 80.9512 145.023 79.4819C143.441 77.8122 149.769 75.6304 150.348 75.5414C157.411 74.3392 154.759 79.4819 150.103 78.7472Z" fill="#003355"/>
<path d="M202.639 74.7176C202.238 71.2001 212.264 75.7194 211.573 77.2778C211.262 78.0569 202.617 77.634 202.639 74.7176Z" fill="#003355"/>
<path d="M174.009 18.4826C181.919 8.10824 156.163 -3.66865 145.424 5.28089C138.852 10.7797 139.208 20.3972 130.875 24.8051C126.798 26.2745 122.164 27.8328 118.309 29.8142C114.165 31.9291 105.944 35.8251 109.264 42.9046C114.566 54.1917 120.582 39.9882 124.681 37.2499C133.549 31.3281 146.182 28.0332 156.609 29.8587C156.943 29.9255 163.426 36.4707 164.719 36.07C167.816 35.0904 165.699 29.369 174.009 18.4826Z" fill="url(#paint6_linear_2859_3237)"/>
<path d="M151.128 0.449834C139.876 3.38849 139.988 15.6774 131.454 21.7106C125.06 26.2076 111.625 26.3634 108.016 34.2444C107.058 36.3371 104.897 44.0844 110.6 47.2902C111.581 47.7132 114.054 48.5592 114.455 48.5592C114.9 48.5369 115.324 47.0453 115.324 47.0453H115.301C114.9 47.3347 112.917 46.7337 112.227 46.3775C110.422 45.6428 108.929 44.73 108.773 39.4093C108.662 35.2462 111.982 32.9977 115.19 31.4393C118.042 30.059 132.212 24.5379 133.504 23.6251C139.297 19.5511 139.854 12.6052 144.845 7.52932C151.551 0.694722 163.671 0.984134 170.2 8.95412C176.371 16.5234 164.407 33.7323 166.367 35.0236C167.504 28.3671 174.923 25.139 175.636 17.5029C176.661 5.97094 160.508 -2.02131 151.128 0.449834Z" fill="url(#paint7_linear_2859_3237)"/>
<path d="M114.232 48.4922C122.698 52.0097 131.343 45.8875 139.074 42.6372C143.285 40.8562 146.627 40.3219 151.061 40.0102C154.225 39.7876 167.905 39.5872 167.325 38.8525C163.649 25.1611 145.513 27.9662 133.014 32.4855C128.892 33.9771 124.77 37.1383 121.651 40.077C120.894 40.7671 114.232 48.4922 114.232 48.4922Z" fill="url(#paint8_linear_2859_3237)"/>
<path d="M157.219 22.292C153.355 21.7751 151.156 19.1016 151.132 14.7684C151.686 13.1994 151.314 9.7742 154.861 9.70271C157.466 9.61512 166.002 10.5598 166.22 14.2808C166.422 17.4248 162.125 22.9444 157.219 22.292Z" fill="url(#paint9_linear_2859_3237)"/>
<path d="M158.489 14.6952C160.329 15.8356 162.613 15.4827 163.591 13.907C164.57 12.3313 163.871 10.1295 162.031 8.98912C160.192 7.84875 157.907 8.20167 156.929 9.77736C155.951 11.3531 156.649 13.5548 158.489 14.6952Z" fill="#FF8A73"/>
<path d="M160.998 152.458C159.549 151.768 72.7685 114.768 75.9768 73.3819C75.8654 73.0925 73.1918 72.7585 71.7882 73.2038C69.627 73.9162 65.3715 77.7453 64.2798 80.9957C60.871 91.1696 72.3898 106.62 77.3805 111.963C106.634 143.108 162.936 153.371 160.998 152.458Z" fill="url(#paint10_linear_2859_3237)"/>
<path d="M214.67 110.026C214.67 110.026 210.927 117.529 200.478 124.185C196.646 126.612 187.667 134.827 187.288 135.094C186.709 135.517 197.671 136.006 197.671 136.006C197.671 136.006 200.322 132.979 201.948 130.797C203.597 128.593 214.67 110.026 214.67 110.026Z" fill="url(#paint11_linear_2859_3237)"/>
<path d="M136.757 111.607C137.158 112.319 137.604 113.032 138.116 113.699C138.629 114.367 139.163 115.013 139.765 115.636C140.946 116.883 142.238 118.018 143.619 119.065C146.382 121.18 149.434 122.916 152.643 124.341C155.851 125.743 159.193 126.834 162.624 127.524C166.055 128.215 169.553 128.526 173.029 128.326C173.475 128.304 173.898 128.259 174.343 128.237L175.68 128.126L178.354 127.858C180.136 127.68 181.919 127.48 183.701 127.235C185.484 126.99 187.244 126.723 188.982 126.389C190.719 126.055 192.457 125.632 194.15 125.142C195.844 124.653 197.537 124.051 199.141 123.339C200.768 122.627 202.35 121.803 203.842 120.846C206.872 118.976 209.613 116.593 212.086 113.967L211.262 115.035L210.393 116.081L209.479 117.106L208.543 118.107C207.273 119.399 205.892 120.601 204.422 121.714C202.951 122.805 201.369 123.784 199.743 124.63C198.116 125.476 196.401 126.211 194.685 126.834C192.947 127.458 191.187 127.97 189.405 128.415C187.622 128.86 185.84 129.216 184.035 129.55C182.231 129.862 180.426 130.129 178.644 130.396L175.948 130.752L174.589 130.931C174.121 130.975 173.653 131.042 173.185 131.064C171.313 131.22 169.442 131.242 167.57 131.131C165.699 131.042 163.85 130.819 162.023 130.463C158.346 129.795 154.759 128.682 151.35 127.19C147.942 125.699 144.689 123.807 141.725 121.491C140.255 120.334 138.851 119.042 137.581 117.64C136.311 116.215 135.175 114.657 134.306 112.876C133.994 112.208 134.262 111.406 134.93 111.095C135.643 110.716 136.401 110.961 136.757 111.607Z" fill="#163F53"/>
<path d="M136.757 111.607C137.158 112.319 137.604 113.032 138.116 113.699C138.629 114.367 139.163 115.013 139.765 115.636C140.946 116.883 142.238 118.018 143.619 119.065C146.382 121.18 149.434 122.916 152.643 124.341C155.851 125.743 159.193 126.834 162.624 127.524C166.055 128.215 169.553 128.526 173.029 128.326C173.475 128.304 173.898 128.259 174.343 128.237L175.68 128.126L178.354 127.858C180.136 127.68 181.919 127.48 183.701 127.235C185.484 126.99 187.244 126.723 188.982 126.389C190.719 126.055 192.457 125.632 194.15 125.142C195.844 124.653 197.537 124.051 199.141 123.339C200.768 122.627 202.35 121.803 203.842 120.846C206.872 118.976 209.613 116.593 212.086 113.967L211.262 115.035L210.393 116.081L209.479 117.106L208.543 118.107C207.273 119.399 205.892 120.601 204.422 121.714C202.951 122.805 201.369 123.784 199.743 124.63C198.116 125.476 196.401 126.211 194.685 126.834C192.947 127.458 191.187 127.97 189.405 128.415C187.622 128.86 185.84 129.216 184.035 129.55C182.231 129.862 180.426 130.129 178.644 130.396L175.948 130.752L174.589 130.931C174.121 130.975 173.653 131.042 173.185 131.064C171.313 131.22 169.442 131.242 167.57 131.131C165.699 131.042 163.85 130.819 162.023 130.463C158.346 129.795 154.759 128.682 151.35 127.19C147.942 125.699 144.689 123.807 141.725 121.491C140.255 120.334 138.851 119.042 137.581 117.64C136.311 116.215 135.175 114.657 134.306 112.876C133.994 112.208 134.262 111.406 134.93 111.095C135.643 110.716 136.401 110.961 136.757 111.607Z" fill="#266468"/>
<path d="M36.1403 150.611C34.2465 150.678 32.6424 149.186 32.5755 147.294L30.2584 81.7305C30.1915 79.8382 31.6843 78.2353 33.5781 78.1685C35.4719 78.1018 37.0761 79.5933 37.1429 81.4857L39.46 147.049C39.5269 148.963 38.0341 150.544 36.1403 150.611Z" fill="url(#paint12_linear_2859_3237)"/>
<path d="M36.0065 151.724C33.5557 151.724 31.5283 149.787 31.4614 147.338L29.1443 81.7751C29.0997 80.5729 29.5453 79.393 30.3697 78.5025C31.1941 77.612 32.3303 77.0999 33.5335 77.0554C36.0511 76.9664 38.1677 78.9255 38.2568 81.4411L40.574 147.004C40.6631 149.52 38.6802 151.635 36.1848 151.724C36.1179 151.724 36.0734 151.724 36.0065 151.724ZM33.7117 79.2817C33.6894 79.2817 33.6671 79.2817 33.6226 79.2817C32.9987 79.3039 32.4195 79.5711 31.9961 80.0163C31.5728 80.4838 31.35 81.0627 31.3723 81.686L33.6894 147.249C33.734 148.54 34.8257 149.542 36.0957 149.498C37.3879 149.453 38.3905 148.362 38.346 147.093L36.0288 81.5302C35.9843 80.2612 34.9594 79.2817 33.7117 79.2817Z" fill="#246483"/>
<path d="M36.0511 149.498H36.3185C36.9869 149.498 37.5439 150.032 37.5439 150.722V155.976C37.5439 156.644 37.0092 157.2 36.3185 157.2H36.0511C35.3827 157.2 34.8257 156.666 34.8257 155.976V150.722C34.848 150.032 35.3827 149.498 36.0511 149.498Z" fill="#246483"/>
<path d="M30.08 108.045C27.6515 112.475 28.008 126.166 31.8624 128.571C36.2293 131.287 39.9055 128.971 39.9055 128.971C39.9055 128.971 41.7325 117.217 39.148 112.119C38.4128 110.649 34.4246 110.783 32.8427 110.605C29.7904 110.293 30.1469 107.911 30.08 108.045Z" fill="#22808E"/>
<path d="M35.7838 126.723C31.9739 126.634 31.4615 126.344 30.5926 121.046C29.991 117.462 30.3252 113.543 30.7485 109.959C32.1076 109.714 33.1102 112.787 34.3356 113.143C36.5636 113.811 37.232 111.918 38.4129 114.634C39.3041 116.682 38.903 126.322 35.7838 126.723Z" fill="#54C4C4"/>
<path d="M32.4863 111.851C33.3775 112.297 34.5138 112.608 35.4941 112.519C36.2517 112.452 36.9646 112.23 37.7222 112.274C38.7248 112.875 38.7693 115.324 38.8584 116.348C39.1258 118.819 38.0341 126.099 35.1154 127.88C36.6304 125.81 38.8807 114.144 37.0537 113.298C36.2517 112.92 35.561 113.521 34.4247 113.143C33.734 112.92 32.7982 112.208 32.4863 111.851Z" fill="#28ADA5"/>
<path d="M40.4404 116.95C40.2176 115.414 39.772 113.966 39.5046 112.519C39.3487 111.673 39.6829 108.957 39.1036 108.468C38.7471 109.915 37.0092 110.805 35.6279 110.783C34.0014 110.761 32.776 110.382 31.9517 110.16C31.261 109.892 30.704 109.603 30.4589 109.314C30.1915 108.98 31.818 112.942 35.873 112.942C37.8113 112.942 37.8559 112.72 38.3015 115.191C38.9922 119.042 38.1678 123.295 36.118 126.456C35.5833 127.257 35.4051 127.836 34.4693 128.304C33.6004 128.749 32.8206 128.838 32.5087 128.927C33.0434 129.216 34.6253 130.062 36.9424 129.862C38.9922 129.817 39.4155 126.5 40.1062 123.762C40.6855 121.491 40.7746 119.287 40.4404 116.95Z" fill="#4E8B9D"/>
<path d="M192.636 208.271L151.484 208.56L137.091 141.75H207.051L192.636 208.271Z" fill="url(#paint13_linear_2859_3237)"/>
<path d="M151.484 210.341C150.638 210.341 149.925 209.762 149.746 208.938L135.353 142.129C135.242 141.594 135.376 141.06 135.71 140.637C136.044 140.214 136.557 139.969 137.091 139.969H207.051C207.586 139.969 208.098 140.214 208.432 140.637C208.766 141.06 208.9 141.617 208.789 142.129L194.373 208.649C194.195 209.473 193.482 210.052 192.636 210.052L151.484 210.341ZM139.297 143.531L152.91 206.779L191.187 206.512L204.823 143.553H139.297V143.531Z" fill="url(#paint14_linear_2859_3237)"/>
<path d="M160.797 149.987C160.33 149.987 159.906 149.742 159.661 149.342L155.472 142.529C155.094 141.906 155.272 141.082 155.918 140.681C156.542 140.303 157.366 140.481 157.767 141.127L161.555 147.293L182.52 147.271L186.375 141.104C186.776 140.481 187.6 140.281 188.224 140.681C188.848 141.082 189.049 141.906 188.648 142.529L184.392 149.319C184.147 149.72 183.724 149.943 183.256 149.943L160.797 149.987Z" fill="#FF8A73" fill-opacity="0.4"/>
<path d="M202.951 136.452L141.748 136.429L136.557 141.728L207.563 141.75L202.951 136.452Z" fill="#D6C56D"/>
<path d="M207.563 143.086L136.557 143.064C136.022 143.064 135.532 142.752 135.331 142.24C135.131 141.75 135.242 141.171 135.599 140.793L140.79 135.494C141.035 135.227 141.391 135.094 141.748 135.094L202.951 135.116C203.33 135.116 203.709 135.294 203.954 135.584L208.566 140.882C208.9 141.283 208.989 141.839 208.766 142.307C208.566 142.774 208.098 143.086 207.563 143.086ZM139.743 140.392L204.645 140.415L202.35 137.788L142.327 137.765L139.743 140.392Z" fill="#D6C56D"/>
<path d="M323.019 92.483H262.528C257.626 92.483 253.661 88.5203 253.661 83.6225V60.7589C253.661 55.8612 257.626 51.8984 262.528 51.8984H323.019C327.92 51.8984 331.886 55.8612 331.886 60.7589V83.6448C331.886 88.5203 327.92 92.483 323.019 92.483Z" fill="url(#paint15_linear_2859_3237)"/>
<path d="M323.018 93.5965H262.528C257.025 93.5965 252.547 89.1217 252.547 83.6229V60.7593C252.547 55.2604 257.025 50.7856 262.528 50.7856H323.018C328.522 50.7856 333 55.2604 333 60.7593V83.6451C333 89.1217 328.522 93.5965 323.018 93.5965ZM262.528 53.0119C258.25 53.0119 254.775 56.4849 254.775 60.7593V83.6229C254.775 87.8973 258.25 91.3702 262.528 91.3702H323.018C327.296 91.3702 330.772 87.8973 330.772 83.6451V60.7593C330.772 56.4849 327.296 53.0119 323.018 53.0119H262.528Z" fill="#6CA1AA"/>
<path d="M320.011 67.5935H262.773C262.06 67.5935 261.481 67.0146 261.481 66.3022C261.481 65.5898 262.06 65.011 262.773 65.011H320.011C320.724 65.011 321.303 65.5898 321.303 66.3022C321.303 67.0146 320.724 67.5935 320.011 67.5935Z" fill="#6CA1AA"/>
<path d="M290.378 79.393H262.773C262.06 79.393 261.481 78.8142 261.481 78.1018C261.481 77.3894 262.06 76.8105 262.773 76.8105H290.378C291.091 76.8105 291.671 77.3894 291.671 78.1018C291.671 78.8142 291.091 79.393 290.378 79.393Z" fill="#6CA1AA"/>
<path d="M304.183 154.73H243.692C238.791 154.73 234.825 150.768 234.825 145.87V123.006C234.825 118.108 238.791 114.146 243.692 114.146H304.183C309.084 114.146 313.05 118.108 313.05 123.006V145.892C313.05 150.768 309.084 154.73 304.183 154.73Z" fill="url(#paint16_linear_2859_3237)"/>
<path d="M304.183 155.844H243.692C238.189 155.844 233.711 151.369 233.711 145.87V123.006C233.711 117.508 238.189 113.033 243.692 113.033H304.183C309.686 113.033 314.164 117.508 314.164 123.006V145.892C314.164 151.369 309.686 155.844 304.183 155.844ZM243.692 115.259C239.414 115.259 235.939 118.732 235.939 123.006V145.87C235.939 150.144 239.414 153.617 243.692 153.617H304.183C308.46 153.617 311.936 150.144 311.936 145.892V123.006C311.936 118.732 308.46 115.259 304.183 115.259H243.692Z" fill="#6CA1AA"/>
<path d="M271.454 143.582C271.232 143.582 271.032 143.564 270.81 143.547C269.323 143.403 267.969 142.777 267.014 141.776L266.925 141.668L260.154 133.726C259.31 132.742 259.621 131.418 260.842 130.738C262.063 130.058 263.706 130.309 264.55 131.293L271.254 139.164C271.343 139.235 271.41 139.271 271.454 139.289C271.476 139.289 271.521 139.289 271.587 139.271L285.53 126.016C286.485 125.103 288.172 124.996 289.282 125.765C290.414 126.534 290.548 127.894 289.593 128.788L275.251 142.42L275.051 142.545C273.963 143.225 272.72 143.582 271.454 143.582Z" fill="#FF8A73" fill-opacity="0.6"/>
<path d="M283.627 112.074H281.399C281.399 111.718 281.377 111.34 281.377 110.939C281.288 108.601 281.199 105.685 283.338 103.414C285.232 101.411 288.44 100.387 293.208 100.275C300.003 100.119 304.014 99.8078 305.729 98.7614C307.021 97.96 307.066 96.5352 307.044 93.0845C307.044 92.7951 307.044 92.5056 307.044 92.194H309.272C309.272 92.5056 309.272 92.7951 309.272 93.0622C309.294 96.7133 309.316 99.1399 306.91 100.631C304.749 101.989 300.783 102.323 293.275 102.502C289.197 102.591 286.412 103.414 284.986 104.928C283.471 106.531 283.561 108.824 283.627 110.85C283.605 111.273 283.627 111.674 283.627 112.074Z" fill="url(#paint17_linear_2859_3237)"/>
<path d="M27.4026 254.167C25.0953 253.968 22.9501 253.125 21.3999 251.773L21.3278 251.711L8.20464 238.56C7.19517 237.567 7.57372 236.202 9.01582 235.52C10.4579 234.825 12.4408 235.086 13.4323 236.078L26.4292 249.093C26.934 249.502 27.5288 249.763 28.1597 249.812C28.7366 249.85 29.3495 249.738 29.9083 249.477L57.0198 227.48C58.1735 226.562 60.1564 226.451 61.5084 227.22C62.8423 228.014 63.0046 229.379 61.8869 230.309L34.3428 252.666L34.0904 252.802C32.4139 253.708 30.4311 254.204 28.4482 254.204C28.0696 254.204 27.7451 254.192 27.4026 254.167Z" fill="#FF8A73" fill-opacity="0.6"/>
<path d="M24.9424 195.481C23.4544 195.338 22.1219 194.712 21.1447 193.71L21.1003 193.656L14.2823 185.66C13.4605 184.676 13.7492 183.334 14.9707 182.673C16.1922 182.011 17.8356 182.243 18.6796 183.227L25.3866 191.098C25.4754 191.188 25.5421 191.223 25.5865 191.223C25.6309 191.241 25.6753 191.223 25.7197 191.205L39.6668 177.95C40.6218 177.038 42.2874 176.93 43.4201 177.699C44.5527 178.469 44.686 179.81 43.731 180.723L29.3842 194.354L29.1843 194.479C28.1183 195.159 26.8746 195.517 25.6087 195.517C25.3866 195.517 25.1645 195.499 24.9424 195.481Z" fill="#FF8A73" fill-opacity="0.6"/>
<path d="M216.908 158.737C216.908 173.237 209.791 189.281 198.762 185.563C198.473 185.451 198.183 185.362 197.916 185.251C193.232 183.301 196.891 172.962 201.926 166.729C205.714 162.054 209.271 142.711 209.271 142.711C209.271 142.711 216.24 149.432 216.908 158.737Z" fill="url(#paint18_linear_2859_3237)"/>
<defs>
<linearGradient id="paint0_linear_2859_3237" x1="41.5063" y1="44.3962" x2="122.854" y2="266.345" gradientUnits="userSpaceOnUse">
<stop offset="0.022018" stop-color="#BBDDCC"/>
<stop offset="1" stop-color="#88DDEE"/>
</linearGradient>
<linearGradient id="paint1_linear_2859_3237" x1="87.0689" y1="277.79" x2="289.42" y2="180.366" gradientUnits="userSpaceOnUse">
<stop stop-color="#009988"/>
<stop offset="0.577253" stop-color="#6ED1D7"/>
<stop offset="0.749418" stop-color="#6ED1D7"/>
<stop offset="1" stop-color="#009988"/>
</linearGradient>
<linearGradient id="paint2_linear_2859_3237" x1="69.4473" y1="95.7141" x2="31.6375" y2="147.632" gradientUnits="userSpaceOnUse">
<stop offset="0.372948" stop-color="#32B3AC"/>
<stop offset="0.56537" stop-color="#4ABFBD"/>
<stop offset="0.610663" stop-color="#4ABFBD"/>
<stop offset="0.812458" stop-color="#009988"/>
</linearGradient>
<linearGradient id="paint3_linear_2859_3237" x1="210.534" y1="113.725" x2="157.848" y2="152.582" gradientUnits="userSpaceOnUse">
<stop offset="0.259289" stop-color="#009988"/>
<stop offset="1" stop-color="#6ED1D7"/>
</linearGradient>
<linearGradient id="paint4_linear_2859_3237" x1="126.428" y1="217.034" x2="171.569" y2="129.165" gradientUnits="userSpaceOnUse">
<stop stop-color="#74BEB4"/>
<stop offset="0.457782" stop-color="#F9E7E0"/>
<stop offset="0.829277" stop-color="#F9E7E0"/>
<stop offset="1" stop-color="#74BEB4"/>
</linearGradient>
<linearGradient id="paint5_linear_2859_3237" x1="91.0788" y1="235.641" x2="190.593" y2="156.94" gradientUnits="userSpaceOnUse">
<stop offset="0.390625" stop-color="#BBDDCC"/>
<stop offset="0.731402" stop-color="#88DDEE"/>
<stop offset="0.897114" stop-color="#88DDEE"/>
<stop offset="1" stop-color="#F9E7E0"/>
</linearGradient>
<linearGradient id="paint6_linear_2859_3237" x1="114.22" y1="34.1466" x2="169.103" y2="0.937519" gradientUnits="userSpaceOnUse">
<stop offset="0.03" stop-color="#C0EDF2"/>
<stop offset="0.21" stop-color="#D2F3F6"/>
<stop offset="0.633456" stop-color="#F7E6DF"/>
</linearGradient>
<linearGradient id="paint7_linear_2859_3237" x1="30703.9" y1="258.321" x2="38854.6" y2="-780.145" gradientUnits="userSpaceOnUse">
<stop stop-color="#003355"/>
<stop offset="0.31" stop-color="#4997A9"/>
<stop offset="0.36" stop-color="#51A8BC"/>
<stop offset="0.44" stop-color="#5BBBD1"/>
<stop offset="0.5" stop-color="#5EC2D9"/>
<stop offset="0.59" stop-color="#58B6CC"/>
<stop offset="0.76" stop-color="#4997A9"/>
<stop offset="1" stop-color="#003355"/>
</linearGradient>
<linearGradient id="paint8_linear_2859_3237" x1="23708.4" y1="139.295" x2="29775.8" y2="-1253.96" gradientUnits="userSpaceOnUse">
<stop stop-color="#003355"/>
<stop offset="0.31" stop-color="#4997A9"/>
<stop offset="0.36" stop-color="#51A8BC"/>
<stop offset="0.44" stop-color="#5BBBD1"/>
<stop offset="0.5" stop-color="#5EC2D9"/>
<stop offset="0.59" stop-color="#58B6CC"/>
<stop offset="0.76" stop-color="#4997A9"/>
<stop offset="1" stop-color="#003355"/>
</linearGradient>
<linearGradient id="paint9_linear_2859_3237" x1="10225.1" y1="1761.31" x2="10663.2" y2="1810.76" gradientUnits="userSpaceOnUse">
<stop stop-color="#003355"/>
<stop offset="1" stop-color="#003355"/>
</linearGradient>
<linearGradient id="paint10_linear_2859_3237" x1="66.5106" y1="73.1942" x2="81.9825" y2="149.644" gradientUnits="userSpaceOnUse">
<stop stop-color="#003355"/>
<stop offset="0.71" stop-color="#4997A9"/>
<stop offset="1" stop-color="#003355"/>
</linearGradient>
<linearGradient id="paint11_linear_2859_3237" x1="190.73" y1="136.462" x2="201.667" y2="138.543" gradientUnits="userSpaceOnUse">
<stop stop-color="#003355"/>
<stop offset="0.367653" stop-color="#4997A9"/>
<stop offset="1" stop-color="#003355"/>
</linearGradient>
<linearGradient id="paint12_linear_2859_3237" x1="39.7156" y1="169.421" x2="59.9895" y2="163.541" gradientUnits="userSpaceOnUse">
<stop stop-color="#74BEB4"/>
<stop offset="0.457782" stop-color="#F9E7E0"/>
<stop offset="0.829277" stop-color="#F9E7E0"/>
<stop offset="1" stop-color="#74BEB4"/>
</linearGradient>
<linearGradient id="paint13_linear_2859_3237" x1="167.108" y1="213.404" x2="184.919" y2="144.879" gradientUnits="userSpaceOnUse">
<stop stop-color="#EEAA33"/>
<stop offset="1" stop-color="#FDEC87"/>
</linearGradient>
<linearGradient id="paint14_linear_2859_3237" x1="166.856" y1="215.443" x2="185.656" y2="143.286" gradientUnits="userSpaceOnUse">
<stop stop-color="#EEAA33"/>
<stop offset="1" stop-color="#FDEC87"/>
</linearGradient>
<linearGradient id="paint15_linear_2859_3237" x1="375.771" y1="60.2899" x2="280.728" y2="-3.52361" gradientUnits="userSpaceOnUse">
<stop stop-color="#74BEB4"/>
<stop offset="0.457782" stop-color="#F9E7E0"/>
<stop offset="0.829277" stop-color="#F9E7E0"/>
<stop offset="1" stop-color="#74BEB4"/>
</linearGradient>
<linearGradient id="paint16_linear_2859_3237" x1="356.935" y1="122.537" x2="261.892" y2="58.7238" gradientUnits="userSpaceOnUse">
<stop stop-color="#74BEB4"/>
<stop offset="0.457782" stop-color="#F9E7E0"/>
<stop offset="0.829277" stop-color="#F9E7E0"/>
<stop offset="1" stop-color="#74BEB4"/>
</linearGradient>
<linearGradient id="paint17_linear_2859_3237" x1="284.872" y1="112.423" x2="308.567" y2="116.905" gradientUnits="userSpaceOnUse">
<stop stop-color="#003355"/>
<stop offset="0.367653" stop-color="#4997A9"/>
<stop offset="1" stop-color="#003355"/>
</linearGradient>
<linearGradient id="paint18_linear_2859_3237" x1="213.378" y1="132.918" x2="176.334" y2="157.019" gradientUnits="userSpaceOnUse">
<stop offset="0.245939" stop-color="#009988"/>
<stop offset="1" stop-color="#6ED1D7"/>
</linearGradient>
</defs>
</svg>
