<svg width="50" height="50" viewBox="0 0 50 50" fill="none" xmlns="http://www.w3.org/2000/svg">
<g filter="url(#filter0_d_4826_4077)">
<circle cx="23" cy="23" r="10" stroke="url(#paint0_linear_4826_4077)" stroke-width="20"/>
<mask id="path-2-inside-1_4826_4077" fill="white">
<path d="M30.8021 25.9115C31.6144 26.3201 31.9515 27.3198 31.4198 28.0574C30.6235 29.1619 29.6144 30.1034 28.4462 30.8235C26.8086 31.8328 24.9228 32.3672 22.9993 32.367C21.0757 32.3669 19.19 31.8322 17.5526 30.8227C16.3844 30.1025 15.3754 29.1608 14.5793 28.0562C14.0477 27.3186 14.385 26.3189 15.1973 25.9104C16.0097 25.502 16.9867 25.8466 17.5712 26.5431C18.0562 27.1209 18.6325 27.6203 19.2806 28.0199C20.3986 28.7092 21.6861 29.0743 22.9995 29.0743C24.3129 29.0744 25.6004 28.7096 26.7185 28.0204C27.3667 27.6209 27.9431 27.1216 28.4281 26.5438C29.0127 25.8474 29.9898 25.5029 30.8021 25.9115Z"/>
</mask>
<path d="M30.8021 25.9115C31.6144 26.3201 31.9515 27.3198 31.4198 28.0574C30.6235 29.1619 29.6144 30.1034 28.4462 30.8235C26.8086 31.8328 24.9228 32.3672 22.9993 32.367C21.0757 32.3669 19.19 31.8322 17.5526 30.8227C16.3844 30.1025 15.3754 29.1608 14.5793 28.0562C14.0477 27.3186 14.385 26.3189 15.1973 25.9104C16.0097 25.502 16.9867 25.8466 17.5712 26.5431C18.0562 27.1209 18.6325 27.6203 19.2806 28.0199C20.3986 28.7092 21.6861 29.0743 22.9995 29.0743C24.3129 29.0744 25.6004 28.7096 26.7185 28.0204C27.3667 27.6209 27.9431 27.1216 28.4281 26.5438C29.0127 25.8474 29.9898 25.5029 30.8021 25.9115Z" fill="#FFF7EE" stroke="#FFF7EE" stroke-width="2" mask="url(#path-2-inside-1_4826_4077)"/>
<path d="M18.2884 18.3855C18.2884 19.6156 17.2912 20.6127 16.0611 20.6127C14.831 20.6127 13.8339 19.6156 13.8339 18.3855C13.8339 17.1554 14.831 16.1582 16.0611 16.1582C17.2912 16.1582 18.2884 17.1554 18.2884 18.3855Z" fill="#FFF7EE" stroke="#FFF7EE"/>
<path d="M31.5909 18.4546C31.5909 19.6847 30.5937 20.6818 29.3636 20.6818C28.1335 20.6818 27.1364 19.6847 27.1364 18.4546C27.1364 17.2245 28.1335 16.2273 29.3636 16.2273C30.5937 16.2273 31.5909 17.2245 31.5909 18.4546Z" fill="#FFF7EE" stroke="#FFF7EE"/>
</g>
<defs>
<filter id="filter0_d_4826_4077" x="0" y="0" width="50" height="50" filterUnits="userSpaceOnUse" color-interpolation-filters="sRGB">
<feFlood flood-opacity="0" result="BackgroundImageFix"/>
<feColorMatrix in="SourceAlpha" type="matrix" values="0 0 0 0 0 0 0 0 0 0 0 0 0 0 0 0 0 0 127 0" result="hardAlpha"/>
<feOffset dx="2" dy="2"/>
<feGaussianBlur stdDeviation="2.5"/>
<feColorMatrix type="matrix" values="0 0 0 0 0 0 0 0 0 0 0 0 0 0 0 0 0 0 0.06 0"/>
<feBlend mode="normal" in2="BackgroundImageFix" result="effect1_dropShadow_4826_4077"/>
<feBlend mode="normal" in="SourceGraphic" in2="effect1_dropShadow_4826_4077" result="shape"/>
</filter>
<linearGradient id="paint0_linear_4826_4077" x1="11" y1="8.5" x2="28.6494" y2="48.4556" gradientUnits="userSpaceOnUse">
<stop offset="0.273456" stop-color="#BBDDCC"/>
<stop offset="0.816253" stop-color="#88DDEE"/>
</linearGradient>
</defs>
</svg>
