<svg width="156" height="49" viewBox="0 0 156 49" fill="none" xmlns="http://www.w3.org/2000/svg">
<path d="M48.9754 33.7489H48.4761V36.3011H47.7036V30.6863H48.4761V33.1722H48.911L51.0142 30.6863H51.8793V30.7041L49.5804 33.3661L52.044 36.2907V36.3085H51.0992L48.9754 33.7489Z" fill="#5B6D79"/>
<path d="M56.1808 34.3612C56.2061 34.8821 56.0516 35.3962 55.7432 35.8185C55.6016 35.9999 55.4186 36.1448 55.2088 36.241C54.9993 36.3376 54.7693 36.3824 54.5385 36.3723C54.3043 36.3771 54.0717 36.3328 53.8562 36.2422C53.6542 36.1585 53.4768 36.0248 53.3413 35.8544V37.8961H52.5691V32.1129H53.1585L53.2797 32.6513C53.4104 32.4585 53.5871 32.3008 53.7942 32.1922C54.0176 32.0826 54.2637 32.0285 54.5126 32.0339C54.7519 32.0253 54.9893 32.0775 55.2025 32.1856C55.4156 32.2937 55.5974 32.4541 55.7303 32.6513C56.0399 33.1371 56.1917 33.7055 56.1652 34.2796L56.1808 34.3612ZM55.4084 34.2796C55.4249 33.8715 55.3269 33.467 55.1252 33.1107C55.0425 32.9658 54.9214 32.8464 54.7747 32.7653C54.628 32.6842 54.4615 32.6447 54.2938 32.6513C54.0942 32.6462 53.8976 32.6985 53.7275 32.8021C53.57 32.9049 53.4402 33.0442 53.3491 33.2078V35.2189C53.4381 35.3834 53.5682 35.5224 53.7275 35.6222C53.9009 35.7234 54.1002 35.7739 54.3016 35.7674C54.4618 35.776 54.6214 35.7445 54.766 35.6753C54.9106 35.6061 55.035 35.5016 55.1279 35.3718C55.3251 35.0683 55.4231 34.7119 55.4084 34.3511V34.2796Z" fill="#5B6D79"/>
<path d="M58.8681 36.3722C58.6039 36.3865 58.34 36.3423 58.095 36.2431C57.8504 36.1436 57.6306 35.9918 57.4524 35.7979C57.0965 35.3738 56.9129 34.8334 56.9375 34.2822V34.1138C56.9147 33.5703 57.0983 33.0385 57.4524 32.6233C57.6087 32.4359 57.8056 32.2857 58.0283 32.1838C58.251 32.0816 58.4942 32.0306 58.7395 32.0338C58.9763 32.0151 59.2144 32.0516 59.4347 32.1401C59.655 32.2289 59.8516 32.367 60.0085 32.544C60.3064 32.9437 60.4558 33.4334 60.4308 33.93V34.3333H57.743L57.7304 34.3511C57.7139 34.7119 57.8122 35.0688 58.0109 35.3718C58.1085 35.5039 58.2387 35.609 58.3884 35.6776C58.5384 35.7465 58.7034 35.7765 58.8681 35.7649C59.1011 35.7697 59.3331 35.7326 59.5528 35.6551C59.7428 35.5882 59.9177 35.4849 60.0677 35.3516L60.3662 35.8466C60.1934 36.0046 59.9914 36.1284 59.7716 36.2116C59.484 36.3227 59.1771 36.3773 58.8681 36.3722ZM58.747 32.6334C58.6201 32.631 58.4945 32.6575 58.3794 32.7103C58.2642 32.7635 58.163 32.8419 58.083 32.9396C57.9002 33.1647 57.7884 33.4382 57.7611 33.7257V33.7461H59.6634V33.6873C59.677 33.4144 59.597 33.1445 59.4371 32.9218C59.3535 32.8229 59.2471 32.7451 59.1272 32.6949C59.0073 32.6447 58.8768 32.6236 58.747 32.6334Z" fill="#5B6D79"/>
<path d="M61.4243 35.696C61.6278 35.696 61.7744 35.53 61.867 35.201C61.983 34.7033 62.0504 34.1954 62.0678 33.685L62.1682 32.1128H64.9666V35.6859H65.525V37.6638H64.7529V36.2906H61.7822V37.6738H61.0098V35.696H61.4243ZM62.8403 33.685C62.818 34.0927 62.7751 34.4989 62.7113 34.9022C62.6744 35.1778 62.5935 35.4457 62.4721 35.696H64.1995V32.7866H62.8941L62.8403 33.685Z" fill="#5B6D79"/>
<path d="M69.003 32.1128H69.7752V36.2906H69.003V33.325H68.9799L67.1187 36.2983H66.3462V32.1128H67.1187V35.0783H67.1418L69.003 32.1128Z" fill="#5B6D79"/>
<path d="M74.1384 32.7023H72.7486V36.2906H71.9761V32.7023H70.6042V32.1128H74.1384V32.7023Z" fill="#5B6D79"/>
<path d="M75.8584 33.7028H76.9059C77.3243 33.6781 77.7376 33.804 78.0694 34.0576C78.2041 34.1711 78.3111 34.3127 78.3826 34.4728C78.4545 34.6326 78.489 34.8066 78.4839 34.9815C78.4887 35.1594 78.4536 35.3361 78.3811 35.4991C78.3084 35.6619 78.2005 35.8068 78.0643 35.9232C77.7379 36.1845 77.3249 36.3155 76.9059 36.2906H75.0913V32.1128H75.8635L75.8584 33.7028ZM75.8584 34.2973V35.696H76.9059C77.0159 35.7055 77.1265 35.6931 77.2311 35.6592C77.336 35.6254 77.4328 35.571 77.5161 35.4994C77.5807 35.4353 77.6315 35.359 77.6652 35.2746C77.6988 35.1903 77.7147 35.1 77.7117 35.0094C77.715 34.9156 77.6994 34.822 77.6652 34.7341C77.6312 34.6465 77.5795 34.5664 77.5137 34.4989C77.4337 34.422 77.3381 34.3629 77.2335 34.3261C77.1286 34.289 77.0168 34.275 76.9059 34.2848L75.8584 34.2973ZM79.9952 36.2906H79.2227V32.1128H79.9952V36.2906Z" fill="#5B6D79"/>
<path d="M85.9083 32.1128H86.6804V36.2906H85.9083V33.325H85.8851L84.0212 36.2983H83.249V32.1128H84.0212V35.0783H84.0444L85.9083 32.1128Z" fill="#5B6D79"/>
<path d="M91.4146 33.8507C91.6452 33.8685 91.8757 33.8142 92.0735 33.6951C92.1432 33.6455 92.1994 33.5792 92.2367 33.5026C92.274 33.426 92.2914 33.3411 92.2872 33.2561C92.286 33.1688 92.264 33.083 92.2229 33.0058C92.1817 32.9286 92.1225 32.8624 92.0503 32.8122C91.8492 32.6771 91.6082 32.6123 91.3656 32.6284C91.1294 32.6197 90.8964 32.6869 90.7016 32.8199C90.6232 32.8689 90.5586 32.9366 90.5138 33.0168C90.4687 33.0973 90.4446 33.1872 90.444 33.279H89.7206V33.2561C89.7112 33.0824 89.7491 32.9093 89.8306 32.7552C89.9123 32.601 90.0344 32.4716 90.184 32.3807C90.5396 32.147 90.9598 32.0282 91.3864 32.0412C91.8204 32.0175 92.2514 32.1283 92.6193 32.3578C92.7669 32.4558 92.8865 32.59 92.9665 32.7474C93.0461 32.9048 93.0837 33.08 93.075 33.2561C93.0717 33.4429 93.0047 33.6229 92.8844 33.7666C92.7468 33.9306 92.5697 34.058 92.3695 34.1367C92.5974 34.2005 92.8015 34.3294 92.9566 34.5067C93.0939 34.6763 93.1661 34.8889 93.1601 35.1066C93.1652 35.2883 93.1225 35.4683 93.0362 35.6289C92.9503 35.7896 92.8234 35.9253 92.6683 36.0227C92.2878 36.26 91.8432 36.3764 91.3939 36.3568C90.9577 36.3687 90.5276 36.2543 90.1558 36.0278C89.9917 35.9295 89.8585 35.7881 89.7713 35.6188C89.6839 35.4499 89.646 35.2601 89.6616 35.0706V35.0478H90.3566C90.3593 35.1487 90.3863 35.2476 90.435 35.3364C90.4837 35.4249 90.5532 35.5009 90.637 35.5583C90.8459 35.7085 91.0999 35.7848 91.3578 35.775C91.6145 35.7878 91.8685 35.7198 92.084 35.5811C92.1627 35.5292 92.2277 35.4585 92.2725 35.3756C92.3175 35.2931 92.341 35.2004 92.3413 35.1066C92.3485 35.0112 92.3308 34.9159 92.289 34.8301C92.2475 34.744 92.1838 34.6703 92.1044 34.6166C91.8883 34.4984 91.6427 34.4443 91.3966 34.4607H90.6139V33.8433L91.4146 33.8507Z" fill="#5B6D79"/>
<path d="M96.6659 36.2906C96.6404 36.1656 96.6196 36.0533 96.6067 35.9562C96.5917 35.86 96.583 35.7629 96.5811 35.6655C96.4333 35.8737 96.2418 36.0477 96.02 36.1757C95.796 36.309 95.5397 36.3788 95.2784 36.3773C95.0972 36.3901 94.915 36.3672 94.7428 36.3099C94.5706 36.2523 94.4113 36.1617 94.2745 36.0432C94.1561 35.9215 94.0644 35.7769 94.0049 35.6183C93.9457 35.4597 93.9198 35.2907 93.9295 35.1217C93.924 34.9373 93.9658 34.7544 94.0515 34.5905C94.1372 34.4268 94.2634 34.2873 94.4188 34.1851C94.8165 33.9413 95.2799 33.824 95.747 33.8483H96.5811V33.4323C96.5866 33.3251 96.5691 33.2179 96.5303 33.1175C96.4913 33.0171 96.4315 32.9263 96.3545 32.8505C96.1784 32.6985 95.949 32.6216 95.7161 32.6361C95.4985 32.6257 95.2845 32.6916 95.111 32.8223C95.0407 32.8737 94.9833 32.9405 94.9436 33.0174C94.9039 33.0946 94.8826 33.1799 94.882 33.2666H94.1534V33.2434C94.1507 33.0801 94.1885 32.9185 94.2634 32.773C94.3385 32.6275 94.4482 32.5025 94.5835 32.4089C94.9184 32.1458 95.338 32.0107 95.7651 32.0288C96.1808 32.0092 96.5896 32.1378 96.9184 32.3911C97.0669 32.5197 97.1835 32.6807 97.2596 32.8612C97.3353 33.0418 97.3684 33.2372 97.3557 33.4323V35.4434C97.3557 35.5883 97.3633 35.7332 97.3792 35.8772C97.3945 36.0156 97.4228 36.1525 97.464 36.2856L96.6659 36.2906ZM95.3918 35.7293C95.6578 35.7335 95.9193 35.6599 96.1435 35.5173C96.3392 35.4068 96.4928 35.2355 96.5811 35.03V34.3511H95.7188C95.4513 34.3372 95.188 34.4197 94.9773 34.5833C94.8919 34.6466 94.8225 34.7289 94.7744 34.823C94.726 34.9171 94.7004 35.0214 94.6992 35.1268C94.6947 35.2088 94.7083 35.2904 94.7383 35.3665C94.7687 35.4428 94.815 35.5117 94.8742 35.5684C95.0197 35.6857 95.2048 35.743 95.3918 35.7293Z" fill="#5B6D79"/>
<path d="M101.112 32.1129H101.884V36.2906H101.112V33.3251H101.089L99.2248 36.2984H98.4526V32.1129H99.2248V35.0784H99.248L101.112 32.1129ZM101.315 30.3928V30.4157C101.325 30.5523 101.303 30.6889 101.25 30.8157C101.198 30.9422 101.117 31.0551 101.014 31.1456C100.769 31.3292 100.47 31.4287 100.163 31.4287C99.856 31.4287 99.5573 31.3292 99.3123 31.1456C99.2092 31.0554 99.1286 30.9422 99.0772 30.8154C99.0258 30.6886 99.0051 30.552 99.0165 30.4157V30.3928H99.624C99.6165 30.5422 99.664 30.6892 99.7577 30.8062C99.8723 30.9093 100.021 30.9663 100.176 30.9663C100.331 30.9663 100.48 30.9093 100.594 30.8062C100.688 30.6901 100.737 30.5443 100.731 30.3955L101.315 30.3928Z" fill="#5B6D79"/>
<path d="M105.398 35.2954H105.421L106.801 32.1128H107.758V36.2906H106.986V33.3915H106.963L105.676 36.2983H105.148L103.83 33.325H103.807V36.2906H103.034V32.1128H104.023L105.398 35.2954Z" fill="#5B6D79"/>
<path d="M109.836 33.7028H110.883C111.302 33.6775 111.715 33.8037 112.047 34.0576C112.182 34.1705 112.289 34.3124 112.361 34.4725C112.433 34.6323 112.467 34.8063 112.462 34.9815C112.466 35.1591 112.431 35.3358 112.359 35.4985C112.287 35.6613 112.18 35.8062 112.045 35.9232C111.717 36.1843 111.303 36.3152 110.883 36.2906H109.069V32.1128H109.841L109.836 33.7028ZM109.836 34.2976V35.696H110.883C110.993 35.7055 111.104 35.6931 111.209 35.6592C111.314 35.6254 111.41 35.571 111.494 35.4994C111.559 35.4356 111.61 35.359 111.644 35.2749C111.678 35.1906 111.694 35.1003 111.692 35.0094C111.695 34.9153 111.679 34.8218 111.644 34.7338C111.609 34.6462 111.557 34.5664 111.491 34.4989C111.411 34.422 111.316 34.3629 111.211 34.3261C111.106 34.289 110.994 34.275 110.883 34.2848L109.836 34.2976ZM113.975 36.2906H113.203V32.1128H113.975V36.2906Z" fill="#5B6D79"/>
<path d="M117.057 34.1622C117.036 33.6069 117.219 33.0628 117.571 32.631C117.739 32.4326 117.95 32.275 118.188 32.1707C118.426 32.0662 118.686 32.0175 118.946 32.0285C119.208 32.0172 119.469 32.0653 119.709 32.1692C119.949 32.2732 120.162 32.4303 120.331 32.6283C120.684 33.0601 120.867 33.6042 120.846 34.1595V34.2462C120.867 34.8019 120.684 35.3456 120.331 35.7777C120.155 35.9657 119.941 36.1157 119.704 36.2181C119.467 36.3206 119.21 36.3734 118.951 36.3734C118.692 36.3734 118.436 36.3206 118.199 36.2181C117.962 36.1157 117.748 35.9657 117.571 35.7777C117.217 35.3465 117.034 34.8019 117.057 34.2462V34.1622ZM117.829 34.2489C117.814 34.6341 117.913 35.0154 118.112 35.3462C118.207 35.4781 118.333 35.5853 118.479 35.6595C118.624 35.7335 118.785 35.7721 118.949 35.7721C119.112 35.7721 119.274 35.7335 119.419 35.6595C119.565 35.5853 119.69 35.4781 119.785 35.3462C119.987 35.0163 120.086 34.6347 120.071 34.2489V34.1622C120.086 33.7779 119.985 33.3978 119.783 33.0699C119.695 32.9298 119.571 32.8154 119.423 32.7388C119.275 32.6619 119.11 32.6257 118.944 32.6334C118.778 32.626 118.614 32.6625 118.468 32.7394C118.322 32.816 118.199 32.9301 118.112 33.0699C117.913 33.3993 117.815 33.7785 117.829 34.1622V34.2489Z" fill="#5B6D79"/>
<path d="M125.184 36.2906H124.411V34.5043H122.535V36.2906H121.762V32.1128H122.535V33.9199H124.411V32.1128H125.184V36.2906Z" fill="#5B6D79"/>
<path d="M129.725 32.1128V36.2906H128.952V32.7177H127.526V33.8994C127.526 34.7246 127.416 35.3293 127.194 35.7139C127.081 35.9066 126.914 36.0634 126.714 36.1658C126.514 36.2686 126.289 36.3125 126.064 36.2932H125.845L125.861 35.645H126.02C126.146 35.65 126.271 35.6141 126.374 35.5419C126.478 35.47 126.554 35.3664 126.592 35.2467C126.724 34.8111 126.779 34.3561 126.754 33.9017V32.1155L129.725 32.1128Z" fill="#5B6D79"/>
<path d="M133.313 36.2906C133.287 36.1656 133.267 36.0533 133.254 35.9562C133.239 35.86 133.23 35.7629 133.228 35.6655C133.081 35.8731 132.89 36.0471 132.669 36.1757C132.445 36.309 132.187 36.3785 131.926 36.3773C131.744 36.3901 131.562 36.3672 131.39 36.3099C131.218 36.2523 131.058 36.1617 130.922 36.0432C130.804 35.9212 130.712 35.7766 130.653 35.618C130.595 35.4594 130.569 35.2904 130.579 35.1217C130.573 34.9376 130.615 34.7547 130.7 34.5908C130.785 34.4268 130.911 34.2873 131.066 34.1851C131.464 33.9413 131.927 33.824 132.394 33.8483H133.228V33.4323C133.234 33.3251 133.217 33.2179 133.177 33.1175C133.138 33.0171 133.079 32.9263 133.002 32.8505C132.826 32.6982 132.596 32.621 132.363 32.6361C132.146 32.6257 131.932 32.6916 131.758 32.8223C131.688 32.8737 131.63 32.9405 131.591 33.0174C131.551 33.0946 131.53 33.1799 131.529 33.2666H130.8V33.2434C130.798 33.0801 130.836 32.9185 130.91 32.773C130.986 32.6275 131.095 32.5025 131.231 32.4089C131.566 32.1461 131.985 32.0113 132.412 32.0288C132.828 32.0092 133.237 32.1378 133.566 32.3911C133.714 32.5197 133.831 32.6807 133.907 32.8612C133.982 33.0418 134.015 33.2372 134.003 33.4323V35.4434C134.003 35.5883 134.01 35.7332 134.026 35.8772C134.042 36.0156 134.07 36.1525 134.111 36.2856L133.313 36.2906ZM132.026 35.7344C132.292 35.7386 132.553 35.6649 132.778 35.5224C132.975 35.4134 133.129 35.2414 133.215 35.035V34.3562H132.353C132.085 34.3422 131.822 34.4248 131.611 34.5884C131.526 34.6519 131.457 34.7339 131.409 34.828C131.36 34.9225 131.335 35.0264 131.333 35.1321C131.329 35.2138 131.342 35.2955 131.373 35.3715C131.403 35.4478 131.449 35.5167 131.509 35.5734C131.658 35.6919 131.848 35.7478 132.039 35.7293L132.026 35.7344Z" fill="#5B6D79"/>
<path d="M137.759 32.1129H138.531V36.2906H137.759V33.3251H137.736L135.872 36.2984H135.1V32.1129H135.872V35.0784H135.898L137.759 32.1129ZM137.962 30.3928V30.4157C137.972 30.5523 137.95 30.6889 137.897 30.8157C137.845 30.9422 137.764 31.0551 137.661 31.1456C137.416 31.3292 137.117 31.4287 136.81 31.4287C136.503 31.4287 136.205 31.3292 135.96 31.1456C135.856 31.0554 135.776 30.9422 135.724 30.8154C135.673 30.6886 135.652 30.552 135.663 30.4157V30.3928H136.25C136.244 30.5419 136.291 30.6886 136.384 30.8062C136.437 30.8623 136.503 30.9057 136.576 30.933C136.648 30.9606 136.726 30.9713 136.804 30.9645C136.881 30.9704 136.959 30.9591 137.031 30.9312C137.103 30.9036 137.168 30.86 137.221 30.8038C137.316 30.688 137.364 30.5419 137.357 30.3928H137.962Z" fill="#5B6D79"/>
<path d="M143.059 36.2906H142.287V34.5043H140.408V36.2906H139.635V32.1128H140.408V33.9199H142.287V32.1128H143.059V36.2906Z" fill="#5B6D79"/>
<path d="M22.1953 22.346C29.8125 21.7335 31.6455 26.7662 31.6455 30.5383C31.6581 32.8083 30.827 35.0035 29.311 36.7048C27.7948 38.4062 25.6998 39.4943 23.4258 39.7615C23.067 39.8043 22.706 39.8257 22.3446 39.8251C22.0486 39.8251 21.7602 39.81 21.4719 39.7844C22.4306 39.9682 23.4044 40.0633 24.3808 40.0677C24.8082 40.0677 25.2329 40.0523 25.6525 40.0166C26.0335 39.9861 26.4119 39.9427 26.7852 39.8866C27.3786 39.7945 27.9664 39.6701 28.546 39.5139C29.7921 39.0815 30.928 38.3848 31.8745 37.4722C33.5785 35.8415 34.7294 33.5573 34.6366 31.0306C34.4177 25.0435 29.8125 20.7918 22.1953 22.346Z" fill="url(#paint0_linear_4826_3492)"/>
<path d="M27.2408 20.6258C25.8919 20.6258 24.4812 20.5722 23.3022 21.0469C22.9825 21.2056 22.6791 21.3945 22.396 21.611C21.7148 22.0848 21.0607 22.596 20.437 23.1422C21.7936 22.3383 23.8453 22.2388 25.5418 22.2388C26.7326 22.2384 27.9119 22.4707 29.0122 22.9222C30.1125 23.3738 31.1122 24.0358 31.9544 24.8705C32.7967 25.7052 33.4645 26.6962 33.9205 27.7869C34.3762 28.8776 34.611 30.0467 34.611 31.2272C34.611 34.8689 31.9106 38.0361 28.7699 39.4449C31.1149 38.6793 33.7306 37.3445 35.4399 35.65C35.8845 35.2087 36.3023 34.7418 36.691 34.2515C37.2729 32.7328 37.4746 31.0971 37.2789 29.4843C37.0832 27.8715 36.4962 26.3297 35.568 24.9911C34.6395 23.6526 33.3978 22.5571 31.9487 21.7986C30.4999 21.0401 28.887 20.6412 27.2485 20.6361L27.2408 20.6258Z" fill="url(#paint1_linear_4826_3492)"/>
<path d="M39.0385 29.6832C39.0385 29.6296 39.0385 29.5786 39.0593 29.525L39.0746 29.3642L39.0875 29.2341C39.0875 29.1856 39.0875 29.1371 39.0875 29.0886C39.0875 29.0401 39.0875 28.9457 39.1005 28.8716V28.7058V28.226C38.9351 27.0307 38.6286 25.8589 38.1867 24.7347C37.8612 23.8355 37.3785 23.0001 36.7605 22.2668C36.4632 21.9286 36.1413 21.6122 35.7977 21.32C33.9957 19.822 31.9903 19.1023 29.2925 19.041C28.4842 19.0691 26.9757 18.9696 23.2173 21.2128C24.3963 20.7356 25.8714 20.6412 27.2203 20.6412C28.859 20.6416 30.4733 21.0369 31.9239 21.7929C33.3744 22.5489 34.6179 23.6429 35.5473 24.981C36.477 26.3191 37.0646 27.861 37.2597 29.4741C37.4548 31.0873 37.2516 32.7233 36.6679 34.2411C37.5913 33.0767 38.3427 31.7876 38.8997 30.4132C38.9279 30.2778 38.9538 30.1427 38.9769 30.0049C39.0001 29.8671 39.0232 29.7878 39.0385 29.6832Z" fill="url(#paint2_linear_4826_3492)"/>
<path d="M39.0385 29.6832C39.0385 29.6296 39.0385 29.5786 39.0593 29.525L39.0746 29.3642L39.0875 29.2341C39.0875 29.1856 39.0875 29.1371 39.0875 29.0886C39.0875 29.0401 39.0875 28.9457 39.1005 28.8716V28.7058V28.226C38.9351 27.0307 38.6286 25.8589 38.1867 24.7347C37.8612 23.8355 37.3785 23.0001 36.7605 22.2668C36.4632 21.9286 36.1413 21.6121 35.7977 21.32C33.9957 19.822 31.9903 19.1023 29.2925 19.041C28.4842 19.0691 26.9757 18.9696 23.2173 21.2128C24.4066 20.7356 25.8765 20.6718 27.228 20.6718C28.8661 20.6694 30.4802 21.062 31.9311 21.8158C33.382 22.5696 34.6261 23.6621 35.5563 24.9989C36.4863 26.3357 37.0746 27.8767 37.2699 29.4891C37.4653 31.1016 37.2621 32.7367 36.6781 34.2539C37.6015 33.0895 38.3532 31.8003 38.9099 30.426C38.9381 30.2906 38.964 30.1554 38.9871 30.0176C39.0103 29.8798 39.0232 29.7878 39.0385 29.6832Z" fill="url(#paint3_linear_4826_3492)"/>
<path d="M40.022 24.6558C40.0202 21.4056 38.9922 18.2375 37.0823 15.5957C35.1724 12.954 32.4763 10.9711 29.3723 9.9252L29.1921 9.86649L28.86 9.76697C26.2784 8.995 23.5395 8.89688 20.9084 9.48215C18.2773 10.0674 15.8433 11.3162 13.8418 13.1076C13.641 13.2889 13.4428 13.4726 13.2497 13.6615C12.934 13.9745 12.6302 14.3037 12.3384 14.6491C12.148 14.8737 11.9626 15.1008 11.785 15.3331L11.7515 15.379C11.6794 15.476 11.6099 15.5679 11.5404 15.6648L11.5069 15.7133L11.3448 15.9405L11.2804 16.04L11.1543 16.2314L11.0771 16.3514L10.9767 16.5172L10.8891 16.6601L10.8016 16.8056L10.7012 16.9664L10.6317 17.094C10.5957 17.1527 10.5622 17.214 10.5313 17.2726C10.5004 17.3314 10.4927 17.3441 10.4747 17.3798L10.3691 17.5764L10.3331 17.6427L10.3074 17.6963C10.2402 17.8266 10.1868 17.9635 10.1478 18.1046C10.104 18.2526 10.086 18.3165 10.0474 18.467C10.0832 18.5196 10.1086 18.5785 10.122 18.6406C10.1878 18.9609 10.3421 19.2569 10.5678 19.4954C10.7934 19.7338 11.0815 19.9054 11.3998 19.9909C11.7182 20.0764 12.0542 20.0725 12.3704 19.9796C12.6866 19.8867 12.9706 19.7085 13.1905 19.4649C13.2188 19.4317 14.5291 18.0306 15.008 16.627V16.6015C15.0089 16.5947 15.0089 16.5878 15.008 16.581C15.0349 16.529 15.0719 16.4827 15.1169 16.4449C15.162 16.4071 15.2141 16.3785 15.2703 16.3607C15.3265 16.3429 15.3857 16.3363 15.4445 16.3413C15.5033 16.3462 15.5605 16.3627 15.6129 16.3896C15.7147 16.4449 15.7918 16.5359 15.8291 16.6448C15.8503 16.7003 15.8599 16.7595 15.8572 16.8187C15.8545 16.8779 15.8397 16.936 15.8137 16.9894C15.8137 16.9894 15.6464 17.2599 15.8549 17.3262L15.8961 17.339C15.914 17.3415 15.9322 17.3415 15.9501 17.339C16.0428 17.3058 16.1586 17.1553 16.2874 16.9281C16.3491 16.8184 16.4161 16.6908 16.4856 16.5479C16.6529 16.2084 16.8305 15.7822 17.0004 15.3765C17.2269 14.8456 17.4535 14.3148 17.6517 13.9396C18.2232 12.855 19.0469 12.3216 19.3147 12.4977C19.4175 12.5272 19.5078 12.589 19.5721 12.6738C19.6313 12.7396 19.6666 12.8231 19.6725 12.9111C19.6782 13.0315 19.6388 13.1497 19.5618 13.2429C19.5039 13.3027 19.4641 13.3775 19.4471 13.4586C19.43 13.5398 19.4363 13.6241 19.4653 13.7019C19.4944 13.7796 19.5449 13.8477 19.6111 13.8983C19.6773 13.949 19.7566 13.9801 19.8398 13.9881H19.8939H19.9351C20.0998 13.9881 21.5826 13.2582 22.1386 13.0336C22.2133 13.0005 22.2931 12.9749 22.3703 12.9443C23.6032 12.5741 24.8843 12.3858 26.1725 12.3854C26.3527 12.3854 26.5355 12.3854 26.7157 12.3982C30.0773 12.5242 33.259 13.9366 35.593 16.3387C37.9266 18.7409 39.2309 21.9459 39.2318 25.2811C39.2318 25.8272 39.3114 27.2232 39.2318 27.749C39.2666 28.3987 39.245 29.0501 39.1674 29.6962C39.7313 28.0744 40.0199 26.3712 40.022 24.6558Z" fill="url(#paint4_linear_4826_3492)"/>
<path opacity="0.5" d="M19.2915 12.4541C18.9517 12.4286 18.2309 12.9033 17.6981 13.9113C17.505 14.2916 17.2733 14.8173 17.0468 15.3482C16.8691 15.7642 16.6915 16.1802 16.5319 16.5221C16.465 16.6625 16.3981 16.7901 16.3337 16.8998C16.205 17.1244 16.0763 17.2776 15.9939 17.3107C15.9769 17.3146 15.9593 17.3146 15.9424 17.3107C15.9288 17.3131 15.9148 17.3131 15.9012 17.3107C15.721 17.2546 15.8188 17.0555 15.8497 16.9892C15.8649 17.0011 15.8824 17.0098 15.9012 17.0147H15.9424C15.9593 17.0186 15.9769 17.0186 15.9939 17.0147C16.0891 16.9815 16.205 16.8284 16.3337 16.6038C16.3955 16.4941 16.4624 16.3664 16.5319 16.2261C16.6992 15.8841 16.8768 15.4605 17.0468 15.0521C17.2733 14.5213 17.4998 13.9905 17.6981 13.6153C18.2773 12.5358 18.9182 12.3878 19.2915 12.4541Z" fill="url(#paint5_linear_4826_3492)"/>
<path opacity="0.5" d="M19.6289 12.6429C19.6445 12.6626 19.6559 12.6851 19.6625 12.7093C19.6692 12.7334 19.6709 12.7586 19.6675 12.7833C19.6368 12.7191 19.5979 12.659 19.5516 12.6047C19.4872 12.525 19.3957 12.4715 19.2942 12.4541L19.356 12.4669C19.4597 12.5034 19.5532 12.5637 19.6289 12.6429Z" fill="url(#paint6_linear_4826_3492)"/>
<path opacity="0.5" d="M19.675 13.3628L19.657 13.3168C19.6187 13.393 19.5851 13.4714 19.5566 13.5516C19.545 13.6063 19.545 13.6628 19.5566 13.7175V13.7456C19.3403 13.5618 19.6544 13.0616 19.6621 12.7834C19.7228 12.9713 19.7272 13.1725 19.675 13.3628Z" fill="url(#paint7_linear_4826_3492)"/>
<path opacity="0.2" d="M39.2498 27.9146V27.9375C39.2498 28.1927 39.2498 28.3892 39.2498 28.5577C39.2526 28.3918 39.2526 28.1876 39.2498 27.9146Z" fill="url(#paint8_linear_4826_3492)"/>
<path opacity="0.05" d="M10.1864 18.4974C10.2812 18.7947 10.4527 19.0621 10.684 19.2733C10.9153 19.4845 11.1983 19.6319 11.5049 19.7011C11.8115 19.7702 12.1311 19.7587 12.4317 19.6675C12.7324 19.5763 13.0038 19.4087 13.2189 19.1814C13.2472 19.1508 13.6076 18.6888 13.6334 18.671C14.0307 18.1874 14.3702 17.6599 14.6451 17.0989C14.3534 17.6233 14.0084 18.1167 13.6153 18.5714C13.5896 18.5995 13.2395 19.0104 13.2086 19.041C13.0005 19.2715 12.7349 19.4435 12.4384 19.5398C12.1419 19.6362 11.825 19.6534 11.5197 19.5897C11.2144 19.5261 10.9314 19.3839 10.6991 19.1773C10.4669 18.9708 10.2936 18.7072 10.1967 18.4132C10.1975 18.4005 10.1975 18.3877 10.1967 18.3749L10.1787 18.4234C10.1852 18.4475 10.1878 18.4725 10.1864 18.4974Z" fill="url(#paint9_linear_4826_3492)"/>
<path d="M15.9321 16.3869C15.8983 16.3112 15.8476 16.2442 15.7838 16.1907C15.72 16.1372 15.6449 16.0987 15.564 16.0781C15.4674 16.0546 15.3659 16.0616 15.2735 16.0982C15.1812 16.1348 15.1028 16.1992 15.0492 16.2823L15.0208 16.3307C14.9462 16.4788 14.0143 18.4031 13.206 19.1814C13.0354 19.3578 12.8314 19.4991 12.6057 19.5971C12.38 19.6953 12.137 19.7482 11.8906 19.7531C11.5099 19.7534 11.1391 19.6325 10.8328 19.4083C10.5265 19.1841 10.3008 18.8685 10.189 18.5077C10.189 18.472 10.1066 18.3086 10.1066 18.3086C10.0834 18.3903 10.086 18.3877 10.068 18.4694C10.05 18.5511 10.1169 18.5587 10.1401 18.6404C10.2058 18.9583 10.3585 19.2521 10.5816 19.4896C10.8047 19.727 11.0894 19.899 11.4046 19.9865C11.7198 20.074 12.0532 20.0738 12.3683 19.9858C12.6833 19.8978 12.9678 19.7255 13.1906 19.4877C13.1906 19.4877 13.6745 18.9288 13.7054 18.9058C14.2715 18.2232 14.7211 17.4534 15.0363 16.6268C15.0363 16.6268 15.0363 16.6115 15.0363 16.6038V16.5834C15.0761 16.4929 15.1474 16.4196 15.2372 16.377C15.327 16.3343 15.4293 16.3252 15.5254 16.3512C15.963 16.5043 15.8523 16.808 15.8601 16.933L15.9476 16.7544C15.9807 16.6332 15.9753 16.5049 15.9321 16.3869Z" fill="url(#paint10_linear_4826_3492)"/>
<path opacity="0.2" d="M39.2316 29.456C39.2187 29.5811 39.2057 29.7111 39.1853 29.8872C39.7456 28.2642 40.0302 26.56 40.0269 24.8444V24.7117C40.0119 26.3245 39.7435 27.9251 39.2316 29.456Z" fill="url(#paint11_linear_4826_3492)"/>
<path opacity="0.1" d="M10.346 17.9285L10.3795 17.8622L10.485 17.6631C10.5056 17.6299 10.5236 17.5942 10.5442 17.5585L10.6446 17.3773L10.7141 17.2522L10.8119 17.0991C10.8402 17.0481 10.8711 16.9996 10.8995 16.9511L10.987 16.8107C11.0204 16.7546 11.0565 16.6984 11.0925 16.6448C11.1286 16.5912 11.144 16.5632 11.1697 16.5249C11.1955 16.4866 11.2521 16.3947 11.2959 16.3335C11.3396 16.2722 11.3371 16.2697 11.3602 16.2339L11.5224 15.9991L11.5585 15.9507C11.628 15.8511 11.6975 15.7567 11.7695 15.6623L11.803 15.6189C11.9806 15.3841 12.1634 15.157 12.3539 14.9349C12.6448 14.593 12.946 14.2637 13.2626 13.9473C13.4557 13.7559 13.6539 13.5721 13.8547 13.3935C15.8572 11.6055 18.2902 10.3585 20.9195 9.77254C23.5489 9.18656 26.286 9.28132 28.8678 10.0477L29.1998 10.1472L29.3826 10.2085C32.4676 11.246 35.1503 13.21 37.058 15.8277C38.9661 18.4455 40.0046 21.5871 40.0299 24.8166V24.6532C40.0283 21.4013 38.9998 18.2313 37.0884 15.5884C35.177 12.9455 32.4787 10.9624 29.3723 9.91752L29.1921 9.85629L28.86 9.75674C26.2789 8.98655 23.541 8.88959 20.911 9.47527C18.281 10.0609 15.8479 11.3094 13.847 13.1C13.6488 13.2786 13.4505 13.4624 13.2549 13.6538C12.9391 13.9685 12.6396 14.2969 12.3565 14.6389C12.166 14.8635 11.9832 15.0906 11.8056 15.3254L11.7721 15.3688L11.561 15.6546L11.525 15.7057L11.3628 15.9405C11.3397 15.9711 11.3216 16.0017 11.2985 16.0374L11.1723 16.2288L11.0951 16.3513C11.0591 16.4049 11.023 16.4611 10.9895 16.5172L10.902 16.6576L10.8145 16.8056L10.7141 16.9664L10.6446 17.0914L10.5442 17.2726C10.5236 17.3058 10.5056 17.3415 10.4876 17.3773L10.382 17.5763L10.346 17.6427C10.2582 17.8188 10.1867 18.0025 10.1323 18.1914C10.1205 18.2273 10.111 18.264 10.104 18.3011C10.1137 18.3202 10.1222 18.3398 10.1297 18.3598L10.1606 18.4313C10.2039 18.2608 10.266 18.0956 10.346 17.9387V17.9285Z" fill="url(#paint12_linear_4826_3492)"/>
<path opacity="0.6" d="M39.2471 24.9721C39.2474 21.6431 37.9492 18.4429 35.6243 16.0408C33.2993 13.6389 30.1273 12.2211 26.7723 12.0841C26.5921 12.0841 26.4119 12.0713 26.2292 12.0713C24.9408 12.069 23.6592 12.2574 22.427 12.6302C22.3497 12.6583 22.2699 12.6864 22.1953 12.717C21.6392 12.9416 20.1565 13.6715 19.9917 13.6715H19.9505H19.8965C19.7317 13.6383 19.7111 13.4724 19.639 13.3269C19.5999 13.4027 19.5663 13.4811 19.5386 13.5617C19.5129 13.7991 19.6545 13.9216 19.8836 13.9675H19.9377H19.9788C20.1462 13.9675 21.6264 13.2376 22.1824 13.013L22.4141 12.9263C23.6464 12.5536 24.9279 12.3652 26.2163 12.3674C26.399 12.3674 26.5792 12.3674 26.7594 12.3674C30.1189 12.5052 33.2942 13.9272 35.6194 16.3351C37.9447 18.7431 39.2393 21.95 39.2318 25.2835C39.2318 25.6152 39.26 26.2481 39.2754 26.8147C39.2573 26.1945 39.2471 25.3626 39.2471 24.9721Z" fill="url(#paint13_linear_4826_3492)"/>
<path d="M26.7723 12.3802C25.3008 12.2343 23.8151 12.421 22.4269 12.9263C22.3497 12.9544 22.2699 12.9825 22.1953 13.0131C21.6392 13.2377 20.1565 13.9676 19.9917 13.9676H19.9505H19.8965C19.781 13.9506 19.676 13.8914 19.6022 13.8018C19.5284 13.712 19.491 13.5983 19.4974 13.4827C19.5117 13.3877 19.5537 13.299 19.6184 13.2275C19.6961 13.1346 19.7356 13.0162 19.7291 12.8957C19.7226 12.8076 19.6883 12.7237 19.6313 12.6558C19.5605 12.5755 19.4726 12.5119 19.3739 12.4695C19.0495 12.3291 18.2773 12.8268 17.6903 13.9114C17.505 14.2917 17.2656 14.82 17.039 15.3508C16.8588 15.7642 16.6812 16.1828 16.5242 16.5248C16.4573 16.6651 16.3878 16.78 16.3208 16.905C16.1921 17.127 16.0891 17.2776 16.0042 17.3083C15.9863 17.3119 15.9679 17.3119 15.9501 17.3083H15.9115C15.703 17.2394 15.8678 16.9714 15.8678 16.9714C15.8949 16.9185 15.911 16.8607 15.9149 16.8015C15.9189 16.7423 15.9107 16.6828 15.8909 16.6269C15.8612 16.5537 15.8141 16.4888 15.7536 16.4377C15.6931 16.3866 15.6209 16.3508 15.5434 16.3334C15.4413 16.3148 15.3358 16.3297 15.2429 16.3757C15.1501 16.4217 15.0748 16.4964 15.0285 16.5886L15.0028 16.6447C14.6448 17.4844 14.1756 18.2732 13.6076 18.9901L13.2085 19.4545C13.0558 19.6296 12.8698 19.7732 12.6611 19.8769C12.4524 19.9807 12.2251 20.0426 11.9922 20.0592C11.7594 20.0758 11.5255 20.0467 11.3039 19.9736C11.0824 19.9005 10.8776 19.7848 10.7012 19.6332C10.408 19.3691 10.2108 19.0166 10.14 18.6302C10.1203 18.5649 10.0962 18.501 10.068 18.4388C10.0165 18.694 9.95467 19.0309 9.92894 19.2836C9.92894 19.3831 9.9109 19.4826 9.90576 19.5873C9.90576 19.6945 9.90576 19.8042 9.90576 19.9139C9.90576 20.0237 9.93666 20.284 9.93152 20.21C10.1194 21.7259 11.1903 22.5069 11.9265 22.9637C12.3503 23.2407 12.8477 23.3864 13.3553 23.3822C14.6424 23.3388 15.8394 22.392 16.864 21.2283C17.2478 20.7894 17.6062 20.3292 17.9374 19.8501C18.6448 18.8287 19.2697 17.7535 19.8064 16.6345C19.8526 16.5281 19.9252 16.4351 20.0175 16.364C20.0477 16.3422 20.0806 16.3242 20.1153 16.3104C20.202 16.2729 20.2985 16.264 20.3907 16.2849C20.4916 16.3129 20.5814 16.3708 20.6482 16.4508V16.4686C20.7068 16.5492 20.7368 16.6467 20.7335 16.746C20.7303 16.8453 20.6939 16.9407 20.6301 17.0173C20.5645 17.0885 20.5215 17.1773 20.5066 17.2725C20.5015 17.3885 20.5387 17.5025 20.6116 17.5934C20.6844 17.6844 20.7879 17.7462 20.903 17.7676C20.903 17.7676 20.9751 17.7676 21.0034 17.7676C21.084 17.7677 21.1635 17.7491 21.2355 17.7132C21.3074 17.6773 21.3699 17.6251 21.4178 17.5609L21.4539 17.5124L22.2262 16.4431C22.2702 16.3563 22.3394 16.2845 22.4248 16.237C22.5102 16.1895 22.608 16.1683 22.7057 16.1763C22.8034 16.1842 22.8964 16.2209 22.9729 16.2816C23.0493 16.3424 23.1057 16.4244 23.1349 16.5171C23.1696 16.6259 23.1696 16.7426 23.1349 16.8514L23.2173 16.8157C23.4284 16.7442 23.642 16.6779 23.8608 16.6192C28.3503 15.3942 33.9235 17.1526 37.0255 21.6264L37.0513 21.6621C37.4806 22.2819 37.8545 22.9377 38.1686 23.6221C38.4845 24.3034 38.7352 25.0126 38.9176 25.7403C39.0156 26.1308 39.1752 27.4017 39.2266 27.759C39.296 27.1925 39.2266 25.7939 39.2266 25.2478C39.226 21.9243 37.9299 18.7297 35.6089 16.3317C33.2878 13.9336 30.1218 12.5178 26.7723 12.3802Z" fill="url(#paint14_linear_4826_3492)"/>
<path opacity="0.4" d="M16.1149 19.8553C16.705 19.8553 17.1833 19.3811 17.1833 18.7962C17.1833 18.2112 16.705 17.7371 16.1149 17.7371C15.5249 17.7371 15.0466 18.2112 15.0466 18.7962C15.0466 19.3811 15.5249 19.8553 16.1149 19.8553Z" fill="#79D6C5"/>
<path d="M16.0377 19.7021C16.5851 19.7021 17.0288 19.2622 17.0288 18.7196C17.0288 18.177 16.5851 17.7371 16.0377 17.7371C15.4904 17.7371 15.0466 18.177 15.0466 18.7196C15.0466 19.2622 15.4904 19.7021 16.0377 19.7021Z" fill="#F5E7E0"/>
<path d="M16.0376 19.3346C16.3803 19.3346 16.658 19.0592 16.658 18.7195C16.658 18.3799 16.3803 18.1045 16.0376 18.1045C15.695 18.1045 15.4172 18.3799 15.4172 18.7195C15.4172 19.0592 15.695 19.3346 16.0376 19.3346Z" fill="url(#paint15_radial_4826_3492)"/>
<path opacity="0.3" d="M15.9604 18.8241C16.1353 18.8241 16.2771 18.6836 16.2771 18.5102C16.2771 18.3368 16.1353 18.1963 15.9604 18.1963C15.7856 18.1963 15.6438 18.3368 15.6438 18.5102C15.6438 18.6836 15.7856 18.8241 15.9604 18.8241Z" fill="#438782"/>
<path d="M15.8986 18.7273C16.0521 18.7273 16.1766 18.6039 16.1766 18.4517C16.1766 18.2994 16.0521 18.176 15.8986 18.176C15.7451 18.176 15.6206 18.2994 15.6206 18.4517C15.6206 18.6039 15.7451 18.7273 15.8986 18.7273Z" fill="#F5E7E0"/>
<g opacity="0.78">
<path opacity="0.3" d="M20.8695 16.3793L20.8515 16.3614C20.7869 16.2769 20.6967 16.2152 20.5941 16.1853C20.4969 16.165 20.3959 16.173 20.3032 16.2083C20.2703 16.2203 20.2391 16.2366 20.2105 16.2568C20.1196 16.3235 20.0463 16.4111 19.9969 16.512L19.9299 16.6498C19.9735 16.5675 20.0361 16.4966 20.1127 16.4431C20.1407 16.4227 20.1709 16.4055 20.2028 16.392C20.2954 16.3561 20.3969 16.3489 20.4937 16.3716C20.5993 16.3946 20.6276 16.438 20.6945 16.5222C20.6945 16.5222 20.7691 16.5579 20.7717 16.5656C20.8541 16.6702 20.7151 16.8489 20.6842 16.9739L20.8129 16.8744C20.8786 16.811 20.9202 16.7271 20.9305 16.6368C20.9408 16.5466 20.9193 16.4555 20.8695 16.3793Z" fill="url(#paint16_linear_4826_3492)"/>
<path opacity="0.3" d="M38.9691 25.5745C38.624 24.1161 38.0135 22.7323 37.1671 21.4912C34.0781 16.9893 28.4765 15.2131 23.9742 16.4406L23.6833 16.5248C23.5674 16.5606 23.4542 16.5963 23.3409 16.6371L23.2585 16.6678C23.3028 16.561 23.3046 16.4415 23.2637 16.3334C23.2336 16.2447 23.1796 16.1659 23.1074 16.1056C23.0352 16.0453 22.9477 16.0058 22.8544 15.9914C22.7524 15.9754 22.6479 15.9913 22.5556 16.0371C22.4632 16.0829 22.3877 16.1561 22.3395 16.2467L21.5672 17.3134L21.5518 17.3364L21.5363 17.3543C21.4914 17.417 21.4319 17.4683 21.363 17.5038C21.2941 17.5393 21.2176 17.5581 21.1399 17.5584C21.1142 17.5584 21.0395 17.5584 21.0395 17.5584C20.9274 17.5436 20.8245 17.4887 20.7501 17.4042C20.6758 17.3197 20.635 17.2112 20.6353 17.0991C20.6353 17.0812 20.6353 17.0633 20.6353 17.048C20.5818 17.1092 20.5461 17.1836 20.5322 17.2634C20.5183 17.3432 20.5266 17.4252 20.5563 17.5006C20.586 17.576 20.6359 17.6419 20.7006 17.6913C20.7654 17.7406 20.8425 17.7715 20.9237 17.7805H21.024C21.1018 17.78 21.1784 17.7615 21.2476 17.7265C21.3169 17.6915 21.377 17.6409 21.4231 17.5788V17.5584L21.4411 17.5355L22.2134 16.461C22.2638 16.3725 22.3397 16.3009 22.4314 16.2554C22.5232 16.21 22.6265 16.1927 22.7282 16.2058C22.8263 16.2111 22.9205 16.2453 22.9989 16.3039C23.0773 16.3626 23.1363 16.443 23.1684 16.535C23.2084 16.6395 23.2084 16.7547 23.1684 16.8592L23.2508 16.8285C23.364 16.7877 23.4773 16.752 23.5932 16.7188L23.8918 16.6295C28.3787 15.4045 33.9804 17.1807 37.0694 21.6928C37.9354 22.9309 38.5678 24.3144 38.9357 25.7761C39.0394 26.1966 39.1185 26.6227 39.1726 27.0522C39.1726 27.0522 39.1365 26.5239 39.1263 26.4601C39.0695 26.1283 39.0517 25.9037 38.9691 25.5745Z" fill="url(#paint17_linear_4826_3492)"/>
<path opacity="0.78" d="M20.7435 16.8438C20.6946 16.9042 20.6603 16.9749 20.6431 17.0504C20.6431 17.0504 20.6431 17.0377 20.6431 17.0326C20.6906 16.9781 20.725 16.9134 20.7435 16.8438Z" fill="url(#paint18_linear_4826_3492)"/>
</g>
<path d="M38.9329 25.7581C38.5638 24.3028 37.9323 22.9255 37.0693 21.6927C33.9803 17.1882 28.3811 15.412 23.8788 16.6421L23.5802 16.7289L23.2326 16.8437L23.1528 16.8769C23.1914 16.7714 23.1914 16.6558 23.1528 16.5502C23.1228 16.4615 23.0687 16.3827 22.9965 16.3224C22.9243 16.262 22.8368 16.2226 22.7435 16.2082C22.6416 16.1929 22.5375 16.2092 22.4453 16.2549C22.3531 16.3006 22.2775 16.3734 22.2287 16.4635L21.4564 17.5328L21.4384 17.5557V17.5762C21.3907 17.6366 21.3303 17.686 21.2614 17.7208C21.1925 17.7556 21.1167 17.775 21.0394 17.7778H20.939C20.824 17.7602 20.7196 17.7008 20.6463 17.6112C20.5731 17.5216 20.5361 17.4081 20.5426 17.2929C20.5566 17.1973 20.5997 17.1083 20.6661 17.0377C20.7295 16.9609 20.7656 16.8655 20.7688 16.7663C20.7721 16.6672 20.7423 16.5697 20.6841 16.489L20.6687 16.4711C20.6068 16.3874 20.5183 16.3267 20.4175 16.2989C20.3166 16.2712 20.2092 16.2779 20.1126 16.318C20.0797 16.33 20.0486 16.3463 20.02 16.3665C19.9267 16.4379 19.8525 16.5307 19.8037 16.637C19.234 17.7449 18.6076 18.8233 17.9271 19.8679C17.8473 19.9853 17.7649 20.1002 17.6697 20.215C17.5873 20.3324 17.4998 20.4472 17.4122 20.5596C17.3247 20.6744 17.232 20.7892 17.1394 20.9015C17.0467 21.0138 16.954 21.1261 16.8562 21.2358C16.797 21.3047 16.7352 21.3711 16.6734 21.44L16.6528 21.4604C16.4649 21.6646 16.2693 21.8586 16.0711 22.0423L16.0402 22.0704C15.9835 22.124 15.9243 22.1699 15.8677 22.2235L15.8394 22.2465C15.7055 22.3613 15.5819 22.466 15.4352 22.5655L15.394 22.5961L15.2319 22.7084L15.1829 22.739C15.1211 22.7824 15.0568 22.8207 14.9924 22.859H14.9796C14.9126 22.8998 14.8431 22.9381 14.7736 22.9738L14.7299 22.9968L14.5651 23.0733L14.5059 23.1014L14.3411 23.1678L14.2974 23.1856C14.2279 23.2086 14.1584 23.2341 14.0863 23.252H14.0528L13.8778 23.2954H13.8134C13.7624 23.3057 13.7108 23.3134 13.659 23.3183H13.5998C13.5277 23.3183 13.4582 23.3311 13.3861 23.3337C12.8798 23.3553 12.3783 23.2284 11.9445 22.9687C11.2083 22.5221 10.1425 21.7284 9.94946 20.215C9.94946 20.2839 9.96233 20.3528 9.9675 20.4192C10.0823 21.5029 10.5098 22.5308 11.199 23.3797C11.8881 24.2286 12.8095 24.8625 13.8528 25.2053C14.8961 25.5482 16.017 25.5856 17.0812 25.3129C18.1453 25.0402 19.1076 24.4691 19.8526 23.668C20.0354 23.4715 20.8695 22.7722 21.1217 22.5808L21.2556 22.4838C23.001 21.1593 25.6319 19.873 28.116 19.6995C28.4841 19.6638 28.8497 19.6459 29.2178 19.6459C29.6578 19.6632 30.0962 19.7075 30.5305 19.7786C31.9258 20.0032 34.7783 21.1312 36.8042 23.4613C38.2049 25.1471 39.0002 27.2473 39.0643 29.4306C39.0327 29.8032 38.9639 30.1715 38.8584 30.5305C38.8584 30.5151 39.0823 30.1195 39.0901 30.0839C39.1081 30.0049 39.1647 29.8745 39.1878 29.7878C39.2082 29.6987 39.2239 29.6083 39.2341 29.5173C39.3519 28.2564 39.25 26.9848 38.9329 25.7581Z" fill="url(#paint19_linear_4826_3492)"/>
<path opacity="0.4" d="M19.8217 16.5886C19.5102 17.145 18.8435 18.444 18.1639 19.5082L17.9451 19.8298C17.9451 19.8298 17.7983 20.085 17.7134 20.1871C17.6284 20.3045 17.5409 20.4193 17.456 20.5316C17.3659 20.6464 17.2758 20.7613 17.1831 20.8736C17.0904 20.9859 16.9952 21.0981 16.8999 21.2053L16.7146 21.4095L16.6965 21.4325C16.5086 21.6341 16.313 21.8255 16.1148 22.0144L16.0813 22.0424L15.9088 22.1955L15.8805 22.2185C15.7492 22.3308 15.6231 22.438 15.4841 22.5375C15.4697 22.5469 15.456 22.5571 15.4429 22.5681L15.2781 22.6805L15.2318 22.7111L15.0413 22.831L14.8328 22.9459L14.789 22.9663L14.6269 23.0454L14.5676 23.0709L14.4029 23.1398L14.3565 23.1551C14.2879 23.1806 14.2184 23.2036 14.148 23.224H14.112C14.0554 23.2394 13.9961 23.2547 13.9369 23.2649H13.8752L13.7181 23.2904H13.6589C13.5889 23.2993 13.5184 23.3044 13.4478 23.3057C12.9289 23.3335 12.4132 23.2093 11.9651 22.9484C11.2263 22.5018 10.1476 21.6724 9.95972 20.1411C9.95972 20.2024 9.98031 20.3376 9.98545 20.3963C10.1837 21.8765 11.1799 22.6447 11.9059 23.0888C12.3338 23.3621 12.8332 23.5049 13.3423 23.4997C13.4118 23.4997 13.5997 23.4818 13.6229 23.4818C14.7659 23.4001 16.0761 22.2057 16.0865 22.1879C16.2872 22.0067 17.1393 21.0395 17.1419 21.0369C17.2603 20.917 17.9142 20.0161 17.9142 20.0161V19.9956L17.9296 19.9752C18.6427 19.008 19.796 16.6243 19.8217 16.5886Z" fill="#CAF6F9"/>
<path d="M20.7434 19.5157C20.8314 19.4119 20.9269 19.3147 21.0292 19.2248C21.1296 19.1329 21.2274 19.041 21.3329 18.9491C21.4385 18.8573 21.5311 18.7654 21.6315 18.671C21.7333 18.5803 21.8399 18.4952 21.9507 18.4158C22.4067 18.0992 22.9026 17.8436 23.4258 17.6552C23.9426 17.4567 24.4807 17.318 25.0296 17.2418C25.3037 17.1989 25.5809 17.1776 25.8585 17.178C26.1371 17.1778 26.4144 17.2165 26.6822 17.2928C26.6883 17.2951 26.6934 17.2994 26.6967 17.305C26.7 17.3106 26.7013 17.3171 26.7002 17.3234C26.6991 17.3286 26.6961 17.3332 26.6919 17.3365C26.6877 17.3397 26.6824 17.3414 26.6771 17.3413C26.4016 17.3413 26.1339 17.3413 25.8636 17.3413C25.5933 17.3413 25.3282 17.3796 25.0604 17.4204C24.7927 17.4613 24.5301 17.52 24.265 17.5787C24.0038 17.6381 23.746 17.7114 23.4927 17.7981C22.9768 17.962 22.4824 18.1865 22.0202 18.4668C21.9049 18.5383 21.794 18.6167 21.6882 18.7016C21.5903 18.7858 21.4848 18.8802 21.3792 18.9568C21.1563 19.1304 20.944 19.3171 20.7434 19.5157Z" fill="#438782"/>
<path d="M13.0437 23.9284C13.4556 23.8416 13.87 23.788 14.2768 23.7115C14.4775 23.6732 14.6809 23.6324 14.874 23.5788C14.9744 23.5507 15.0748 23.5175 15.1726 23.4869C15.2704 23.4563 15.3734 23.4257 15.4686 23.3899C15.8549 23.2594 16.226 23.0883 16.5756 22.8795C16.9188 22.6581 17.2305 22.392 17.5023 22.0884C17.7789 21.7824 18.0368 21.4602 18.2746 21.1237C18.393 20.9553 18.514 20.7868 18.6298 20.6133C18.689 20.5265 18.7483 20.4448 18.7997 20.358C18.8512 20.2713 18.9001 20.1794 18.949 20.0875C19.1311 19.712 19.3366 19.348 19.5643 18.9978C19.7941 18.6528 20.0886 18.3547 20.4318 18.1199C20.1098 18.3821 19.8378 18.6993 19.6286 19.0565C19.4175 19.3959 19.2451 19.7736 19.0649 20.1615C19.0211 20.256 18.9748 20.3504 18.9233 20.4423C18.8718 20.5341 18.81 20.6235 18.756 20.6975C18.6427 20.8676 18.5268 21.0377 18.4084 21.2079C18.1776 21.5568 17.9248 21.8909 17.6516 22.2083C17.5109 22.3678 17.3613 22.5195 17.2037 22.6626C17.1213 22.7289 17.0415 22.7979 16.9463 22.8591C16.851 22.9204 16.7764 22.9867 16.6888 23.0429C16.326 23.265 15.9381 23.4441 15.533 23.5762L15.2344 23.6732C15.1341 23.7082 15.0318 23.7371 14.9281 23.76C14.7223 23.8106 14.5133 23.8472 14.3025 23.8697C13.8844 23.9134 13.4641 23.933 13.0437 23.9284Z" fill="#438782"/>
<path d="M35.1027 20.8633C34.6723 20.5162 34.22 20.1965 33.7486 19.9063C33.5145 19.7634 33.2722 19.6306 33.0279 19.5056C32.7832 19.3805 32.5334 19.2504 32.2812 19.1509C31.2647 18.7225 30.1958 18.4282 29.1021 18.2755C28.0117 18.121 26.9038 18.1339 25.8173 18.3138C24.7278 18.49 23.6714 18.829 22.6845 19.3193C22.1949 19.5674 21.7325 19.865 21.3047 20.2074C20.8782 20.5537 20.4789 20.9317 20.1102 21.338C19.7369 21.7412 19.3817 22.1674 19.0032 22.5732C18.8128 22.7774 18.6171 22.9739 18.406 23.1653C18.1964 23.3499 17.9745 23.5204 17.7419 23.6757C17.2718 23.9934 16.7489 24.2267 16.1973 24.3647C15.6496 24.4972 15.0878 24.564 14.524 24.5638C13.9666 24.5833 13.4093 24.5187 12.8714 24.3724C12.3295 24.223 11.8407 23.9259 11.4607 23.5149C11.8626 23.8946 12.3608 24.1592 12.9023 24.2805C13.1692 24.346 13.4414 24.3887 13.7157 24.4081C13.9888 24.4311 14.2632 24.4362 14.5369 24.4234C15.0844 24.4008 15.628 24.3212 16.1587 24.1861C16.6856 24.0464 17.1863 23.8232 17.6415 23.5251C17.8675 23.3698 18.0825 23.1992 18.285 23.0147C18.4832 22.8335 18.684 22.6395 18.8694 22.4405C19.2478 22.0398 19.6031 21.6161 19.9815 21.2104C20.3566 20.7975 20.7637 20.4144 21.1991 20.0645C21.6372 19.7154 22.1108 19.4126 22.6124 19.161C23.6178 18.6661 24.6918 18.322 25.7993 18.1402C26.906 17.9557 28.0349 17.9419 29.1458 18.0994C30.2544 18.2555 31.3362 18.5612 32.3612 19.0079C33.3858 19.4473 34.3164 20.0771 35.1027 20.8633Z" fill="#438782"/>
<path d="M22.2134 34.8255C22.087 34.8282 21.9613 34.8053 21.8441 34.7584C21.7268 34.7115 21.6204 34.6414 21.5312 34.5526C21.2481 34.1953 21.333 32.8299 21.1271 32.3295C20.9042 31.6604 20.4739 31.0781 19.8974 30.6656C19.321 30.2531 18.6279 30.0315 17.917 30.0327C17.8166 30.0327 17.7239 30.0327 17.6287 30.0327C17.8735 30.6065 18.0172 31.2176 18.0534 31.8395V32.4827V36.5839C18.0508 37.0198 18.1495 37.4501 18.3418 37.8421C18.5882 38.3247 18.9464 38.7425 19.3872 39.0615C19.8279 39.3804 20.3386 39.5916 20.8774 39.6771C20.9366 39.0849 21.1348 38.3422 21.5235 37.9211C21.8297 37.6206 22.1762 37.3628 22.5532 37.1555C23.0089 36.9183 23.413 36.556 23.413 36.0173C23.4134 35.861 23.3826 35.706 23.3225 35.5614C23.2623 35.4168 23.174 35.2855 23.0626 35.1747C22.9511 35.064 22.8188 34.9764 22.6731 34.9164C22.5274 34.8564 22.3712 34.8255 22.2134 34.8255Z" fill="url(#paint20_linear_4826_3492)"/>
<path d="M9.13599 28.3C10.9199 27.7079 13.7697 27.6083 15.3657 30.6377C16.2307 32.2862 15.636 33.4755 15.9423 35.0605C16.2358 36.5916 16.972 37.7249 19.0314 39.0927C19.0314 39.0927 16.1148 37.9827 14.251 36.3621C13.153 35.4106 12.1715 34.335 11.3267 33.1566C9.93916 31.3905 9.13599 28.3 9.13599 28.3Z" fill="url(#paint21_linear_4826_3492)"/>
<path d="M22.5299 14.1437C22.4322 14.1038 22.3289 14.0789 22.2236 14.0696C22.0308 14.0545 21.8374 14.0925 21.665 14.1794C21.5833 14.2206 21.5079 14.273 21.441 14.335L21.3818 14.3912C21.3508 14.422 21.3224 14.4553 21.2969 14.4907C21.1272 14.8617 20.9969 15.2491 20.9082 15.6468C20.8967 15.6814 20.8907 15.7176 20.8901 15.754C20.8901 15.783 20.8963 15.8116 20.9083 15.838C20.9203 15.8644 20.9378 15.888 20.9596 15.9071C21.024 15.9582 21.1218 15.9224 21.1656 15.9071C21.1869 15.8959 21.2067 15.8822 21.2248 15.8663C21.7036 15.4299 22.62 15.2742 22.8877 15.0675C22.9488 15.021 22.998 14.9611 23.0315 14.8924C23.0651 14.8237 23.0819 14.7482 23.0808 14.6719C23.0391 14.5467 22.9679 14.4332 22.8729 14.3409C22.778 14.2485 22.6622 14.18 22.5351 14.1411L22.5299 14.1437Z" fill="url(#paint22_linear_4826_3492)"/>
<g opacity="0.5">
<path opacity="0.5" d="M28.1497 16.5019C28.3401 16.3464 28.5609 16.2316 28.7984 16.165C29.0347 16.0962 29.2783 16.0551 29.5243 16.0425C30.0105 16.017 30.498 16.0426 30.9789 16.1191C31.4577 16.188 31.9311 16.3054 32.3919 16.4151C32.6221 16.4534 32.8569 16.4534 33.0871 16.4151C33.3234 16.3814 33.5566 16.3294 33.7848 16.2595C33.5636 16.3547 33.3333 16.4274 33.0974 16.4764C32.8584 16.5354 32.6107 16.5501 32.3663 16.5198C32.1244 16.4789 31.8926 16.4305 31.6585 16.3871C31.424 16.3437 31.1872 16.3105 30.9503 16.2799C30.4802 16.2195 30.0054 16.2024 29.532 16.2289C29.0624 16.2685 28.5987 16.3601 28.1497 16.5019Z" fill="#CAF6F9"/>
</g>
<g opacity="0.5">
<path opacity="0.5" d="M29.1226 15.8459C29.3761 15.6128 29.6839 15.4454 30.0184 15.3585C30.3451 15.2539 30.6814 15.1821 31.0223 15.1441C31.3641 15.1057 31.7085 15.0946 32.0521 15.1109C32.2165 15.1064 32.3779 15.0672 32.5258 14.9959C32.6734 14.9246 32.8041 14.8229 32.9093 14.6975C32.8134 14.8385 32.6911 14.9598 32.5489 15.0548C32.4029 15.1567 32.2303 15.2152 32.0521 15.2232C31.8796 15.2232 31.7148 15.2411 31.5372 15.2539C31.3596 15.2666 31.2051 15.2896 31.0379 15.3151C30.71 15.3635 30.3869 15.4403 30.0725 15.5448C29.7618 15.6628 29.4446 15.7633 29.1226 15.8459Z" fill="#CAF6F9"/>
</g>
<g opacity="0.5">
<path opacity="0.5" d="M29.1587 15.3687C29.3113 15.1278 29.5265 14.9321 29.7817 14.8021C30.025 14.657 30.2839 14.5397 30.5538 14.4525C30.6894 14.4118 30.8268 14.3786 30.9659 14.3529C31.1024 14.3223 31.2464 14.307 31.375 14.2815C31.5037 14.2493 31.6221 14.1862 31.7201 14.0977C31.8208 14.0068 31.9073 13.9019 31.9777 13.7864C31.926 13.9171 31.852 14.038 31.7588 14.1437C31.663 14.2583 31.5388 14.3463 31.3985 14.3989C31.2566 14.4423 31.1255 14.4703 30.9942 14.5086C30.8628 14.5469 30.7366 14.5903 30.6055 14.6362C30.3521 14.7346 30.1075 14.8542 29.8743 14.9935C29.6496 15.1429 29.4098 15.2686 29.1587 15.3687Z" fill="#CAF6F9"/>
</g>
<g clip-path="url(#clip0_4826_3492)">
<path d="M54.5074 21.7836C53.7944 22.2194 52.9795 22.4374 52.1137 22.4374C51.2479 22.4374 50.4331 22.2194 49.72 21.7836C49.007 21.3478 48.4468 20.7486 48.0394 19.9859C47.6319 19.2232 47.4282 18.3516 47.4282 17.4255C47.4282 17.1531 47.4282 16.9352 47.4792 16.6628V12.7405C47.1226 13.1218 46.8171 13.5576 46.5624 14.0479C46.0022 15.083 45.7476 16.1725 45.7476 17.4255C45.7476 18.6784 46.0022 19.8225 46.5624 20.803C47.1227 21.8381 47.8866 22.6008 48.8542 23.2C49.8219 23.7993 50.9424 24.0717 52.1647 24.0717C53.387 24.0717 54.4565 23.7993 55.4751 23.2C55.6279 23.0911 55.7806 22.9821 55.9334 22.8732V20.4762C55.4751 21.0209 55.0167 21.4568 54.5074 21.7836Z" fill="#5AB9C3"/>
<path d="M57.6649 14.0479C57.1047 13.0673 56.3408 12.2502 55.3731 11.6509C54.4055 11.0517 53.285 10.7793 52.0627 10.7793C50.8404 10.7793 49.72 11.0517 48.7523 11.6509C48.5995 11.7599 48.4467 11.8688 48.2939 11.9778V14.3203C48.6505 13.83 49.1088 13.3942 49.6181 13.1218C50.3311 12.686 51.146 12.4681 52.0118 12.4681C52.8776 12.4681 53.6925 12.686 54.4055 13.1218C55.1185 13.5576 55.6787 14.1569 56.0861 14.9195C56.4426 15.5733 56.6464 16.3359 56.6973 17.1531V17.262C56.6973 17.3165 56.6973 17.4255 56.6973 17.48C56.6973 17.5344 56.6973 17.6434 56.6973 17.6979V22.1105C57.0538 21.7292 57.3594 21.3478 57.614 20.8575C58.1742 19.8769 58.4289 18.7329 58.4289 17.48C58.5307 16.1725 58.2252 15.0285 57.6649 14.0479Z" fill="#5AB9C3"/>
<path d="M64.948 15.7368H66.6796V21.5113H68.3093V14.2659H62.4015C62.4015 14.7562 62.4015 15.2465 62.3506 15.7368H64.948Z" fill="#5AB9C3"/>
<path d="M66.2721 22.5463H62.4015C62.7071 22.0015 62.9108 21.5112 63.1145 20.9664C63.3182 20.4217 63.471 19.8769 63.5729 19.2777C63.6747 18.6784 63.7766 18.1336 63.7766 17.5344C63.7766 17.262 63.7766 17.0441 63.8275 16.7717H62.3506C62.2996 17.4799 62.2487 18.1336 62.1469 18.7874C62.045 19.4411 61.8413 20.0948 61.6376 20.7485C61.4338 21.4023 61.1283 22.0015 60.7208 22.6007H59.7532V26.6865H61.2811V24.0171H68.0037V26.6865H69.5316V22.6007H66.2721V22.5463Z" fill="#5AB9C3"/>
<path d="M79.5648 16.4451C79.1573 15.6824 78.5971 15.0832 77.8841 14.6474C77.1711 14.2116 76.3562 13.9937 75.4395 13.9937C74.6246 13.9937 73.9116 14.1571 73.2495 14.4839V16.4451C73.4023 16.2817 73.606 16.1183 73.8607 15.9548C74.319 15.6824 74.8792 15.519 75.4395 15.519C76.0506 15.519 76.5599 15.6824 77.0183 15.9548C77.4766 16.2272 77.8332 16.663 78.1387 17.1533C78.3425 17.5891 78.4952 18.0794 78.5462 18.6242V18.8966V18.9511V19.0055V22.8734C78.9536 22.492 79.3101 22.0562 79.6157 21.5659C80.0231 20.8033 80.2268 19.9316 80.2268 19.0055C80.1759 18.0794 79.9722 17.2078 79.5648 16.4451Z" fill="#5AB9C3"/>
<path d="M75.3884 22.4921C74.7773 22.4921 74.268 22.3286 73.8096 22.0563C73.3513 21.7839 72.9948 21.3481 72.6892 20.8578C72.4345 20.313 72.2817 19.7137 72.2817 19.06C72.2817 19.0055 72.2817 18.9511 72.2817 18.8421V15.1377C71.8743 15.519 71.5178 15.9548 71.2122 16.4451C70.8048 17.2078 70.6011 18.0795 70.6011 19.0056C70.6011 19.9861 70.8048 20.8033 71.2122 21.566C71.6197 22.3286 72.1799 22.9279 72.8929 23.3637C73.6059 23.7995 74.4208 24.0174 75.3375 24.0174C76.1524 24.0174 76.8654 23.854 77.4765 23.5271V21.566C77.3237 21.7294 77.12 21.8928 76.9163 22.0563C76.5089 22.3286 75.9996 22.4921 75.3884 22.4921Z" fill="#5AB9C3"/>
<path d="M131.564 16.4451C131.156 15.6824 130.596 15.0832 129.883 14.6474C129.17 14.2116 128.355 13.9937 127.439 13.9937C126.624 13.9937 125.911 14.1571 125.249 14.4839V16.4451C125.401 16.2817 125.605 16.1183 125.86 15.9548C126.318 15.6824 126.878 15.519 127.439 15.519C128.05 15.519 128.559 15.6824 129.017 15.9548C129.476 16.2272 129.832 16.663 130.138 17.1533C130.341 17.5891 130.494 18.0794 130.545 18.6242V18.8966V18.9511V19.0055V22.8734C130.953 22.492 131.309 22.0562 131.615 21.5659C132.022 20.8033 132.226 19.9316 132.226 19.0055C132.175 18.0794 131.971 17.2078 131.564 16.4451Z" fill="#5AB9C3"/>
<path d="M127.387 22.4921C126.776 22.4921 126.267 22.3286 125.809 22.0563C125.35 21.7839 124.994 21.3481 124.688 20.8578C124.434 20.313 124.281 19.7137 124.281 19.06C124.281 19.0055 124.281 18.9511 124.281 18.8421V15.1377C123.873 15.519 123.517 15.9548 123.211 16.4451C122.804 17.2078 122.6 18.0795 122.6 19.0056C122.6 19.9861 122.804 20.8033 123.211 21.566C123.619 22.3286 124.179 22.9279 124.892 23.3637C125.605 23.7995 126.42 24.0174 127.337 24.0174C128.151 24.0174 128.864 23.854 129.476 23.5271V21.566C129.323 21.7294 129.119 21.8928 128.915 22.0563C128.508 22.3286 127.999 22.4921 127.387 22.4921Z" fill="#5AB9C3"/>
<path d="M102.941 16.3906C102.534 15.628 101.973 15.0287 101.311 14.6474C100.598 14.2116 99.8344 13.9937 98.9177 13.9937C98.2556 13.9937 97.5935 14.1571 97.0333 14.4295C96.8805 14.4839 96.7277 14.5929 96.575 14.7018V16.4996C96.7787 16.2817 96.9824 16.1183 97.1861 16.0093C97.6445 15.7369 98.1538 15.5735 98.7649 15.5735C99.3761 15.5735 99.8854 15.7369 100.344 16.0093C100.802 16.2817 101.159 16.7175 101.464 17.2078C101.719 17.7526 101.872 18.3518 101.872 19.0055C101.872 19.6593 101.719 20.313 101.464 20.8033C101.21 21.348 100.802 21.7294 100.344 22.0018C99.8854 22.2742 99.3251 22.4376 98.7649 22.4376C98.2047 22.4376 97.6445 22.2742 97.1861 22.0018C96.9824 21.8383 96.7787 21.6749 96.575 21.5115V23.2547C96.7277 23.3637 96.9315 23.4727 97.0842 23.5816C97.6445 23.854 98.2556 23.9629 98.9177 23.9629C99.7835 23.9629 100.598 23.745 101.311 23.3092C102.024 22.8734 102.585 22.2742 102.941 21.566C103.349 20.8033 103.552 19.9316 103.552 18.9511C103.552 17.9705 103.349 17.1533 102.941 16.3906Z" fill="#5AB9C3"/>
<path d="M94.0286 14.1025V27.5038H95.6583V14.1025H94.0286Z" fill="#5AB9C3"/>
<path d="M143.073 16.3906C142.666 15.628 142.106 15.0287 141.444 14.6474C140.731 14.2116 139.967 13.9937 139.05 13.9937C138.388 13.9937 137.726 14.1571 137.166 14.4295C137.013 14.4839 136.86 14.5929 136.707 14.7018V16.4996C136.911 16.2817 137.115 16.1183 137.318 16.0093C137.777 15.7369 138.286 15.5735 138.897 15.5735C139.508 15.5735 140.018 15.7369 140.476 16.0093C140.934 16.2817 141.291 16.7175 141.597 17.2078C141.851 17.7526 142.004 18.3518 142.004 19.0055C142.004 19.6593 141.851 20.313 141.597 20.8033C141.342 21.348 140.934 21.7294 140.476 22.0018C140.018 22.2742 139.457 22.4376 138.897 22.4376C138.337 22.4376 137.777 22.2742 137.318 22.0018C137.115 21.8383 136.911 21.6749 136.707 21.5115V23.2547C136.86 23.3637 137.064 23.4727 137.217 23.5816C137.777 23.854 138.388 23.9629 139.05 23.9629C139.916 23.9629 140.731 23.745 141.444 23.3092C142.157 22.8734 142.717 22.2742 143.073 21.566C143.481 20.8033 143.685 19.9316 143.685 18.9511C143.685 17.9705 143.481 17.1533 143.073 16.3906Z" fill="#5AB9C3"/>
<path d="M134.161 14.1025V27.5038H135.74V14.1025H134.161Z" fill="#5AB9C3"/>
<path d="M111.141 14.157C110.631 14.1026 109.969 14.0481 109.205 14.0481C108.645 14.0481 108.187 14.1026 107.728 14.266C107.27 14.4294 106.863 14.5929 106.557 14.8652C106.251 15.1376 105.946 15.4645 105.793 15.9003C105.64 16.3361 105.488 16.7719 105.488 17.3167C105.488 17.5891 105.538 17.807 105.589 18.0794C105.64 18.3518 105.742 18.5697 105.844 18.7876C105.946 19.0055 106.15 19.2234 106.353 19.3868C106.557 19.5503 106.812 19.7137 107.168 19.8227L108.594 20.1495C108.747 20.1495 108.9 20.1495 109.053 20.204C109.205 20.2585 109.358 20.204 109.562 20.204H110.988V23.9629H112.567V14.4839C112.108 14.3205 111.65 14.266 111.141 14.157ZM110.835 18.8965H109.256C108.594 18.8965 108.085 18.7876 107.627 18.5697C107.219 18.3518 107.015 17.916 107.015 17.3167C107.015 16.663 107.219 16.2272 107.627 15.9548C108.034 15.6824 108.543 15.519 109.205 15.519C109.562 15.519 109.918 15.519 110.224 15.5734C110.53 15.6279 110.733 15.6279 110.835 15.6279V18.8965Z" fill="#5AB9C3"/>
<path d="M105.946 21.7294C105.742 22.1107 105.589 22.4376 105.386 22.8189C105.182 23.2003 105.029 23.5816 104.876 23.9085H106.506C106.761 23.3092 107.066 22.71 107.423 22.0018C107.576 21.6749 107.779 21.3481 107.983 21.0212L106.506 20.6943C106.302 21.0212 106.099 21.3481 105.946 21.7294Z" fill="#5AB9C3"/>
<path d="M114.095 14.3203V15.7367H115.623H119.901H121.581V14.3203H114.095Z" fill="#5AB9C3"/>
<path d="M118.678 16.7173H117.049V23.9082H118.678V16.7173Z" fill="#5AB9C3"/>
<path d="M91.1766 16.554C90.7691 15.7913 90.2089 15.1921 89.4959 14.7563C88.7829 14.3204 87.968 14.1025 87.0513 14.1025C86.2364 14.1025 85.5234 14.266 84.8613 14.5928V16.554C85.0141 16.3906 85.2178 16.2271 85.4725 16.0637C85.9308 15.7913 86.4911 15.6279 87.0513 15.6279C87.6624 15.6279 88.1717 15.7913 88.6301 16.0637C89.0885 16.3361 89.445 16.7719 89.7505 17.2622C89.9543 17.698 90.1071 18.1883 90.158 18.7331V19.0055V19.0599V19.1144V22.9823C90.5654 22.6009 90.9219 22.1651 91.2275 21.6748C91.6349 20.9121 91.8387 20.0405 91.8387 19.1144C91.7877 18.1338 91.584 17.2622 91.1766 16.554Z" fill="#5AB9C3"/>
<path d="M87.0513 22.601C86.4401 22.601 85.9308 22.4375 85.4725 22.1652C85.0141 21.8928 84.6576 21.4569 84.352 20.9667C84.0974 20.4219 83.9446 19.8226 83.9446 19.1689C83.9446 19.1144 83.9446 19.06 83.9446 18.951V15.2466C83.5372 15.6279 83.1806 16.0637 82.8751 16.554C82.4676 17.3167 82.2639 18.1883 82.2639 19.1144C82.2639 20.095 82.4676 20.9122 82.8751 21.6749C83.2825 22.4375 83.8427 23.0368 84.5557 23.4726C85.2688 23.9084 86.0836 24.1263 87.0004 24.1263C87.8152 24.1263 88.5282 23.9629 89.1394 23.636V21.6749C88.9866 21.8383 88.7829 22.0017 88.5792 22.1652C88.1717 22.4375 87.6115 22.601 87.0513 22.601Z" fill="#5AB9C3"/>
<path d="M84.6066 12.904C85.2177 12.2503 86.1345 11.8145 87.3058 11.5421L91.1765 10.6704L90.9218 9.03613L86.7456 10.0167C85.1668 10.3981 83.9445 11.1607 83.1806 12.3048C82.7222 12.9585 82.4166 13.7756 82.2129 14.7017L83.8936 13.7756C84.0464 13.5033 84.4538 13.0674 84.6066 12.904Z" fill="#5AB9C3"/>
</g>
<defs>
<linearGradient id="paint0_linear_4826_3492" x1="28.7854" y1="23.229" x2="27.2418" y2="39.4806" gradientUnits="userSpaceOnUse">
<stop stop-color="#003355"/>
<stop offset="0.07" stop-color="#155470"/>
<stop offset="0.17" stop-color="#2D7A8F"/>
<stop offset="0.24" stop-color="#3C92A3"/>
<stop offset="0.29" stop-color="#419BAA"/>
<stop offset="0.43" stop-color="#47A0AF"/>
<stop offset="0.62" stop-color="#58B0BD"/>
<stop offset="0.84" stop-color="#73C8D5"/>
<stop offset="0.88" stop-color="#79CEDA"/>
<stop offset="1" stop-color="#91E8F1"/>
</linearGradient>
<linearGradient id="paint1_linear_4826_3492" x1="29.1071" y1="20.682" x2="28.5201" y2="38.1539" gradientUnits="userSpaceOnUse">
<stop offset="0.02" stop-color="#003355"/>
<stop offset="0.03" stop-color="#033759"/>
<stop offset="0.29" stop-color="#3F8A9E"/>
<stop offset="0.41" stop-color="#56AAB9"/>
<stop offset="0.54" stop-color="#5FB3C1"/>
<stop offset="0.76" stop-color="#77CDD8"/>
<stop offset="0.98" stop-color="#96EDF5"/>
</linearGradient>
<linearGradient id="paint2_linear_4826_3492" x1="31.6479" y1="20.1384" x2="30.2942" y2="34.4117" gradientUnits="userSpaceOnUse">
<stop offset="0.02" stop-color="#003355"/>
<stop offset="0.09" stop-color="#155470"/>
<stop offset="0.17" stop-color="#2D7A8F"/>
<stop offset="0.25" stop-color="#3C92A3"/>
<stop offset="0.29" stop-color="#419BAA"/>
<stop offset="0.42" stop-color="#47A1AF"/>
<stop offset="0.59" stop-color="#58B1BE"/>
<stop offset="0.79" stop-color="#73CBD6"/>
<stop offset="0.98" stop-color="#95ECF4"/>
</linearGradient>
<linearGradient id="paint3_linear_4826_3492" x1="29.4933" y1="19.7939" x2="31.6182" y2="25.4233" gradientUnits="userSpaceOnUse">
<stop offset="0.05" stop-color="#064369"/>
<stop offset="0.19" stop-color="#04456F" stop-opacity="0.73"/>
<stop offset="0.51" stop-color="#004C7F" stop-opacity="0.04"/>
<stop offset="0.52" stop-color="#004C80" stop-opacity="0"/>
<stop offset="0.98" stop-color="#96EDF5" stop-opacity="0"/>
</linearGradient>
<linearGradient id="paint4_linear_4826_3492" x1="10.0551" y1="19.4011" x2="40.022" y2="19.4011" gradientUnits="userSpaceOnUse">
<stop stop-color="#003355"/>
<stop offset="0.6" stop-color="#419BAA"/>
<stop offset="1" stop-color="#96EDF5"/>
</linearGradient>
<linearGradient id="paint5_linear_4826_3492" x1="16.4753" y1="15.8356" x2="19.2636" y2="12.5732" gradientUnits="userSpaceOnUse">
<stop offset="0.02" stop-color="#429BAB"/>
<stop offset="0.58" stop-color="#6DD0D6"/>
<stop offset="0.98" stop-color="#90E8F0" stop-opacity="0.6"/>
<stop offset="1" stop-color="#92E9F2"/>
</linearGradient>
<linearGradient id="paint6_linear_4826_3492" x1="86.2198" y1="20.2368" x2="86.2678" y2="20.3022" gradientUnits="userSpaceOnUse">
<stop offset="0.02" stop-color="#429BAB"/>
<stop offset="0.58" stop-color="#6DD0D6"/>
<stop offset="0.98" stop-color="#90E8F0" stop-opacity="0.6"/>
<stop offset="1" stop-color="#92E9F2"/>
</linearGradient>
<linearGradient id="paint7_linear_4826_3492" x1="60.5946" y1="32.4879" x2="61.3385" y2="32.6936" gradientUnits="userSpaceOnUse">
<stop offset="0.02" stop-color="#429BAB"/>
<stop offset="0.58" stop-color="#6DD0D6"/>
<stop offset="0.98" stop-color="#90E8F0" stop-opacity="0.6"/>
<stop offset="1" stop-color="#92E9F2"/>
</linearGradient>
<linearGradient id="paint8_linear_4826_3492" x1="13.7323" y1="28.2361" x2="61.1272" y2="28.2361" gradientUnits="userSpaceOnUse">
<stop stop-color="#78FF65"/>
<stop offset="0.01" stop-color="#62D36C"/>
<stop offset="0.02" stop-color="#4FAD72"/>
<stop offset="0.03" stop-color="#3F8F77"/>
<stop offset="0.04" stop-color="#357A7A"/>
<stop offset="0.05" stop-color="#2E6D7C"/>
<stop offset="0.06" stop-color="#2C697D"/>
<stop offset="0.26" stop-color="#1B577D"/>
<stop offset="0.5" stop-color="#0D487D"/>
<stop offset="0.7" stop-color="#08437D"/>
</linearGradient>
<linearGradient id="paint9_linear_4826_3492" x1="13.8187" y1="17.1142" x2="10.6993" y2="19.6211" gradientUnits="userSpaceOnUse">
<stop stop-color="#663388"/>
<stop offset="0.15" stop-color="#6666AA"/>
<stop offset="0.7" stop-color="#419BAA"/>
<stop offset="1" stop-color="#96EDF5"/>
</linearGradient>
<linearGradient id="paint10_linear_4826_3492" x1="10.5519" y1="19.4826" x2="19.1571" y2="15.2487" gradientUnits="userSpaceOnUse">
<stop stop-color="#7393AB"/>
<stop offset="0.18" stop-color="#50AEBF"/>
<stop offset="0.58" stop-color="#7DDBE0" stop-opacity="0.4"/>
<stop offset="1" stop-color="#94D9E0" stop-opacity="0.6"/>
</linearGradient>
<linearGradient id="paint11_linear_4826_3492" x1="41.0077" y1="23.5556" x2="37.9983" y2="31.7317" gradientUnits="userSpaceOnUse">
<stop offset="0.06" stop-color="#2C697D"/>
<stop offset="0.26" stop-color="#1B577D"/>
<stop offset="0.5" stop-color="#0D487D"/>
<stop offset="0.7" stop-color="#08437D"/>
</linearGradient>
<linearGradient id="paint12_linear_4826_3492" x1="36.0448" y1="15.9634" x2="6.83365" y2="22.2373" gradientUnits="userSpaceOnUse">
<stop offset="0.3" stop-color="#419BAA"/>
<stop offset="0.85" stop-color="#6666AA"/>
<stop offset="1" stop-color="#663388"/>
</linearGradient>
<linearGradient id="paint13_linear_4826_3492" x1="14.4159" y1="12.5843" x2="42.9778" y2="22.8287" gradientUnits="userSpaceOnUse">
<stop offset="0.18" stop-color="#50AEBF"/>
<stop offset="0.58" stop-color="#7DDBE0" stop-opacity="0.4"/>
<stop offset="0.66" stop-color="#85DAE0" stop-opacity="0.47"/>
<stop offset="0.84" stop-color="#94D9E0" stop-opacity="0.6"/>
</linearGradient>
<linearGradient id="paint14_linear_4826_3492" x1="9.89804" y1="20.0543" x2="39.2702" y2="20.0543" gradientUnits="userSpaceOnUse">
<stop stop-color="#185A75"/>
<stop offset="0.18" stop-color="#429BAB"/>
<stop offset="0.7" stop-color="#6DD0D6"/>
<stop offset="1" stop-color="#96EDF5"/>
</linearGradient>
<radialGradient id="paint15_radial_4826_3492" cx="0" cy="0" r="1" gradientUnits="userSpaceOnUse" gradientTransform="translate(15.8754 18.5434) scale(0.834057 0.826878)">
<stop stop-color="#96EDF5"/>
<stop offset="0.61" stop-color="#94EEF2"/>
<stop offset="0.65" stop-color="#8BE7EB"/>
<stop offset="0.75" stop-color="#7BDAE0"/>
<stop offset="0.86" stop-color="#71D2D9"/>
<stop offset="1" stop-color="#6ED0D7"/>
</radialGradient>
<linearGradient id="paint16_linear_4826_3492" x1="-55.0016" y1="16.5783" x2="195.708" y2="16.5783" gradientUnits="userSpaceOnUse">
<stop stop-color="#6ED0D7"/>
<stop offset="0.12" stop-color="#71D2D9"/>
<stop offset="0.21" stop-color="#7BDAE0"/>
<stop offset="0.29" stop-color="#8BE7EB"/>
<stop offset="0.32" stop-color="#94EEF2"/>
<stop offset="1" stop-color="#96EDF5"/>
</linearGradient>
<linearGradient id="paint17_linear_4826_3492" x1="-95995.6" y1="-108.635" x2="236686" y2="-108.635" gradientUnits="userSpaceOnUse">
<stop stop-color="#6ED0D7"/>
<stop offset="0.12" stop-color="#71D2D9"/>
<stop offset="0.21" stop-color="#7BDAE0"/>
<stop offset="0.29" stop-color="#8BE7EB"/>
<stop offset="0.32" stop-color="#94EEF2"/>
<stop offset="1" stop-color="#96EDF5"/>
</linearGradient>
<linearGradient id="paint18_linear_4826_3492" x1="36.006" y1="18.2184" x2="46.051" y2="18.2184" gradientUnits="userSpaceOnUse">
<stop stop-color="#6ED0D7"/>
<stop offset="0.12" stop-color="#71D2D9"/>
<stop offset="0.21" stop-color="#7BDAE0"/>
<stop offset="0.29" stop-color="#8BE7EB"/>
<stop offset="0.32" stop-color="#94EEF2"/>
<stop offset="1" stop-color="#96EDF5"/>
</linearGradient>
<linearGradient id="paint19_linear_4826_3492" x1="4498.36" y1="-249.007" x2="7433.05" y2="-249.007" gradientUnits="userSpaceOnUse">
<stop stop-color="#6ED0D7"/>
<stop offset="0.12" stop-color="#71D2D9"/>
<stop offset="0.21" stop-color="#7BDAE0"/>
<stop offset="0.29" stop-color="#8BE7EB"/>
<stop offset="0.32" stop-color="#94EEF2"/>
<stop offset="1" stop-color="#96EDF5"/>
</linearGradient>
<linearGradient id="paint20_linear_4826_3492" x1="18.5039" y1="42.1016" x2="20.36" y2="33.6602" gradientUnits="userSpaceOnUse">
<stop stop-color="#003355"/>
<stop offset="0.57" stop-color="#419BAA"/>
<stop offset="1" stop-color="#96EDF5"/>
</linearGradient>
<linearGradient id="paint21_linear_4826_3492" x1="1834.65" y1="-852.009" x2="1469.38" y2="-559.015" gradientUnits="userSpaceOnUse">
<stop stop-color="#003355"/>
<stop offset="0.6" stop-color="#419BAA"/>
<stop offset="1" stop-color="#96EDF5"/>
</linearGradient>
<linearGradient id="paint22_linear_4826_3492" x1="21.6171" y1="15.9959" x2="21.9587" y2="14.2223" gradientUnits="userSpaceOnUse">
<stop offset="0.11" stop-color="#94EEF2"/>
<stop offset="0.22" stop-color="#84E1E6"/>
<stop offset="0.37" stop-color="#74D4DB"/>
<stop offset="0.48" stop-color="#6ED0D7"/>
<stop offset="0.63" stop-color="#74D2D8" stop-opacity="0.98"/>
<stop offset="0.74" stop-color="#87D7DB" stop-opacity="0.93"/>
<stop offset="0.84" stop-color="#A8E0E0" stop-opacity="0.84"/>
<stop offset="0.94" stop-color="#D6ECE7" stop-opacity="0.71"/>
<stop offset="1" stop-color="#FFF7EE" stop-opacity="0.6"/>
</linearGradient>
<clipPath id="clip0_4826_3492">
<rect width="98" height="19" fill="white" transform="translate(46 9)"/>
</clipPath>
</defs>
</svg>
