<svg width="50" height="50" viewBox="0 0 50 50" fill="none" xmlns="http://www.w3.org/2000/svg">
<g filter="url(#filter0_d_4826_3199)">
<path d="M43 23C43 34.0457 34.0457 43 23 43C11.9543 43 3 34.0457 3 23C3 11.9543 11.9543 3 23 3C34.0457 3 43 11.9543 43 23ZM5.94732 23C5.94732 32.4179 13.5821 40.0527 23 40.0527C32.4179 40.0527 40.0527 32.4179 40.0527 23C40.0527 13.5821 32.4179 5.94732 23 5.94732C13.5821 5.94732 5.94732 13.5821 5.94732 23Z" fill="#FFF7EE"/>
<path d="M23 4.48006C23 3.66265 23.6635 2.9943 24.4787 3.05474C26.5989 3.21193 28.6837 3.70642 30.6537 4.52241C33.0802 5.5275 35.285 7.00069 37.1421 8.85787C38.9993 10.715 40.4725 12.9198 41.4776 15.3463C42.2936 17.3163 42.7881 19.4011 42.9453 21.5213C43.0057 22.3365 42.3374 23 41.5199 23C40.7025 23 40.0466 22.3361 39.9756 21.5218C39.8249 19.7907 39.41 18.0899 38.7428 16.4791C37.8865 14.4117 36.6313 12.5333 35.049 10.951C33.4667 9.36869 31.5883 8.11354 29.5209 7.25721C27.9101 6.59002 26.2093 6.1751 24.4782 6.02436C23.6639 5.95345 23 5.29748 23 4.48006Z" fill="url(#paint0_linear_4826_3199)"/>
<circle cx="23" cy="23" r="14" fill="url(#paint1_linear_4826_3199)"/>
<path d="M19.0195 16.1592V29H16.9014V18.6729L13.7637 19.7363V17.9873L18.7646 16.1592H19.0195ZM25.6904 23.0498L24.0029 22.6367L24.6973 16.2031H31.5967V17.9961H26.4551L26.1035 21.1338C26.3027 21.0166 26.5781 20.9023 26.9297 20.791C27.2812 20.6738 27.6826 20.6152 28.1338 20.6152C28.7373 20.6152 29.2764 20.7148 29.751 20.9141C30.2314 21.1074 30.6387 21.3916 30.9727 21.7666C31.3066 22.1357 31.5615 22.5869 31.7373 23.1201C31.9131 23.6475 32.001 24.2422 32.001 24.9043C32.001 25.4961 31.9131 26.0498 31.7373 26.5654C31.5674 27.0811 31.3096 27.5352 30.9639 27.9277C30.6182 28.3203 30.1816 28.6279 29.6543 28.8506C29.1328 29.0674 28.5146 29.1758 27.7998 29.1758C27.2666 29.1758 26.7539 29.0996 26.2617 28.9473C25.7754 28.7891 25.3389 28.5576 24.9521 28.2529C24.5654 27.9424 24.2549 27.5615 24.0205 27.1104C23.7861 26.6533 23.6514 26.1289 23.6162 25.5371H25.6904C25.7432 25.9531 25.8574 26.3076 26.0332 26.6006C26.2148 26.8877 26.4551 27.1074 26.7539 27.2598C27.0527 27.4121 27.3984 27.4883 27.791 27.4883C28.1484 27.4883 28.4561 27.4268 28.7139 27.3037C28.9717 27.1748 29.1855 26.9932 29.3555 26.7588C29.5312 26.5186 29.6602 26.2373 29.7422 25.915C29.8301 25.5928 29.874 25.2354 29.874 24.8428C29.874 24.4678 29.8242 24.125 29.7246 23.8145C29.6309 23.5039 29.4873 23.2344 29.2939 23.0059C29.1064 22.7773 28.8691 22.6016 28.582 22.4785C28.2949 22.3496 27.9639 22.2852 27.5889 22.2852C27.085 22.2852 26.6982 22.3584 26.4287 22.5049C26.165 22.6514 25.9189 22.833 25.6904 23.0498Z" fill="#FFF7EE"/>
<circle cx="4.5" cy="23.5" r="1.5" fill="#BADDCD"/>
<circle cx="22.5" cy="41.5" r="1.5" fill="#BADDCD"/>
</g>
<defs>
<filter id="filter0_d_4826_3199" x="0" y="0" width="50" height="50" filterUnits="userSpaceOnUse" color-interpolation-filters="sRGB">
<feFlood flood-opacity="0" result="BackgroundImageFix"/>
<feColorMatrix in="SourceAlpha" type="matrix" values="0 0 0 0 0 0 0 0 0 0 0 0 0 0 0 0 0 0 127 0" result="hardAlpha"/>
<feOffset dx="2" dy="2"/>
<feGaussianBlur stdDeviation="2.5"/>
<feColorMatrix type="matrix" values="0 0 0 0 0 0 0 0 0 0 0 0 0 0 0 0 0 0 0.06 0"/>
<feBlend mode="normal" in2="BackgroundImageFix" result="effect1_dropShadow_4826_3199"/>
<feBlend mode="normal" in="SourceGraphic" in2="effect1_dropShadow_4826_3199" result="shape"/>
</filter>
<linearGradient id="paint0_linear_4826_3199" x1="3" y1="21.8889" x2="37.483" y2="32.5479" gradientUnits="userSpaceOnUse">
<stop offset="0.142649" stop-color="#88DDEE"/>
<stop offset="1" stop-color="#BBDDCC"/>
</linearGradient>
<linearGradient id="paint1_linear_4826_3199" x1="9" y1="27.6667" x2="34.6742" y2="30.1584" gradientUnits="userSpaceOnUse">
<stop offset="0.257093" stop-color="#BBDDCC"/>
<stop offset="1" stop-color="#88DDEE"/>
</linearGradient>
</defs>
</svg>
