<svg width="50" height="50" viewBox="0 0 50 50" fill="none" xmlns="http://www.w3.org/2000/svg">
<g filter="url(#filter0_d_4826_1660)">
<circle cx="23" cy="23" r="10" stroke="url(#paint0_linear_4826_1660)" stroke-width="20"/>
<mask id="mask0_4826_1660" style="mask-type:alpha" maskUnits="userSpaceOnUse" x="10" y="9" width="27" height="28">
<rect x="12.1881" y="10.5" width="22.3168" height="24.4715" rx="10.5" stroke="black" stroke-width="3"/>
</mask>
<g mask="url(#mask0_4826_1660)">
<path fill-rule="evenodd" clip-rule="evenodd" d="M36.0048 28.9303H21.4611V36.4714H10.688V28.9303V27.3143V9H36.0048V28.9303Z" fill="url(#paint1_linear_4826_1660)"/>
<path fill-rule="evenodd" clip-rule="evenodd" d="M36.0048 28.9303H21.4611V36.4714H10.688V28.9303V27.3143V9H36.0048V28.9303Z" fill="url(#paint2_linear_4826_1660)"/>
</g>
<path d="M14.9974 23.5438C14.9974 26.5187 13.9122 28.9304 12.5734 28.9304C11.7468 28.9304 11.3242 28.9302 10.6881 28.9302C9.07218 28.9302 8.8029 27.3333 8.80286 23.5438C8.80282 19.8278 9.61088 18.1572 10.4189 18.1572C10.9226 18.08 11.7616 18.1572 12.5734 18.1573C13.9122 18.1573 14.9974 20.5689 14.9974 23.5438Z" fill="#88DDEE"/>
<ellipse cx="10.4188" cy="23.5438" rx="2.42395" ry="5.38656" fill="#FFF7EE"/>
<circle cx="22" cy="34" r="3" fill="#FFF7EE"/>
</g>
<defs>
<filter id="filter0_d_4826_1660" x="0" y="0" width="50" height="50" filterUnits="userSpaceOnUse" color-interpolation-filters="sRGB">
<feFlood flood-opacity="0" result="BackgroundImageFix"/>
<feColorMatrix in="SourceAlpha" type="matrix" values="0 0 0 0 0 0 0 0 0 0 0 0 0 0 0 0 0 0 127 0" result="hardAlpha"/>
<feOffset dx="2" dy="2"/>
<feGaussianBlur stdDeviation="2.5"/>
<feColorMatrix type="matrix" values="0 0 0 0 0 0 0 0 0 0 0 0 0 0 0 0 0 0 0.06 0"/>
<feBlend mode="normal" in2="BackgroundImageFix" result="effect1_dropShadow_4826_1660"/>
<feBlend mode="normal" in="SourceGraphic" in2="effect1_dropShadow_4826_1660" result="shape"/>
</filter>
<linearGradient id="paint0_linear_4826_1660" x1="11" y1="8.5" x2="28.6494" y2="48.4556" gradientUnits="userSpaceOnUse">
<stop offset="0.273456" stop-color="#BBDDCC"/>
<stop offset="0.816253" stop-color="#88DDEE"/>
</linearGradient>
<linearGradient id="paint1_linear_4826_1660" x1="11.2991" y1="6.94133" x2="20.8746" y2="23.3483" gradientUnits="userSpaceOnUse">
<stop offset="0.390625" stop-color="#BBDDCC"/>
<stop offset="1" stop-color="#88DDEE"/>
</linearGradient>
<linearGradient id="paint2_linear_4826_1660" x1="23.3464" y1="9" x2="37.4998" y2="31" gradientUnits="userSpaceOnUse">
<stop stop-color="white"/>
<stop offset="1" stop-color="#BBDDCC"/>
</linearGradient>
</defs>
</svg>
