<svg width="218" height="189" viewBox="0 0 218 189" fill="none" xmlns="http://www.w3.org/2000/svg">
<path d="M118.9 167.271C163.374 139.608 182.954 158.246 197.474 142.68C212.85 126.173 206.711 103.36 199.23 86.9708C191.749 70.5815 163.816 42.0656 124.463 38.0086C85.5222 33.9958 65.7495 42.4771 45.726 54.2363C16.9228 71.1548 1.16363 120.22 12.924 148.559C21.4528 169.109 39.0416 185.542 60.2751 188.438C82.9104 191.539 96.1169 181.441 118.9 167.271Z" fill="url(#paint0_linear_2859_2834)"/>
<path d="M166.713 69.4879C165.167 74.0215 163.828 74.5808 162.297 76.1852C160.192 78.3931 156.954 80.8071 156.836 82.441C156.836 82.5587 156.615 85.6204 151.728 91.1844C151.581 91.3463 151.434 91.5229 151.272 91.6995C151.169 91.8173 151.066 91.9351 150.963 92.0528C143.441 100.634 114.017 108.818 111.529 121.61C110.911 124.789 110.528 127.909 110.558 130.956C110.558 131.059 110.558 131.148 110.558 131.251C110.558 131.295 110.558 131.354 110.558 131.398C110.558 131.648 110.572 131.884 110.587 132.134C110.587 132.252 110.602 132.384 110.602 132.502C110.602 132.62 110.617 132.752 110.631 132.87C110.646 132.988 110.646 133.12 110.661 133.238C110.675 133.356 110.675 133.488 110.69 133.606C110.705 133.856 110.734 134.092 110.764 134.327C110.778 134.43 110.793 134.518 110.808 134.622C110.823 134.769 110.852 134.916 110.867 135.048C110.881 135.166 110.896 135.284 110.926 135.402C110.94 135.519 110.97 135.637 110.985 135.77C111.029 136.005 111.073 136.255 111.117 136.491C111.117 136.506 111.117 136.52 111.117 136.52C111.353 137.654 111.662 138.772 112.059 139.891C114.149 145.661 117.873 150.607 126.175 155.582C130.252 143.232 149.77 143.821 155.452 146.338C156.306 146.721 156.276 147.957 155.393 148.266C153.553 148.929 150.977 150.106 150.124 151.696C149.093 153.654 144.383 163.84 137.833 163.133C138.834 163.442 144.383 165.312 146.355 169.831C147.268 171.921 149.623 179.163 151.875 181.606C152.449 182.18 152.39 182.975 151.419 182.916C147.621 183.019 141.101 183.181 138.304 182.636C133.491 181.694 124.365 175.439 123.776 164.384C123.143 162.073 97.5309 166.21 66.2667 127.968C46.94 104.27 56.964 69.1051 67.4001 54.0471C74.0386 44.4795 102.447 19.1767 135.375 25.5796C167.993 31.8943 169.141 62.3489 166.713 69.4879Z" fill="url(#paint1_linear_2859_2834)"/>
<g opacity="0.16">
<path d="M71.1391 74.9194C71.2274 76.3178 71.7868 77.4512 72.6846 77.7161C73.7444 78.04 74.8337 77.0832 75.2458 75.7732C75.658 74.4631 74.9662 72.8881 74.1566 72.6526C72.3167 72.108 71.0361 73.315 71.1391 74.9194Z" fill="#003355"/>
<path d="M78.9994 45.2303C77.1741 47.659 77.3213 51.2505 78.6314 52.2073C80.1622 53.326 82.8559 51.9129 84.6811 49.4842C86.5063 47.0555 86.4327 44.038 85.3434 43.0959C83.0914 41.1824 80.8246 42.7868 78.9994 45.2303Z" fill="#003355"/>
<path d="M62.8521 69.3847C61.9101 70.8567 62.4252 73.094 63.4115 73.7123C64.854 74.5954 66.2229 73.6239 67.165 72.152C68.1071 70.68 68.5634 69.267 66.8706 68.1925C65.0601 67.0738 63.7942 67.9128 62.8521 69.3847Z" fill="#003355"/>
<path d="M93.13 49.263C91.9524 51.4267 91.0987 53.9585 92.0849 54.9741C93.2478 56.1664 95.6324 55.4746 97.4282 53.7819C99.2093 52.0891 99.695 49.263 98.8118 48.3651C96.7658 46.275 94.4695 46.7754 93.13 49.263Z" fill="#003355"/>
<path d="M83.533 55.7987C84.7694 54.7242 86.0648 54.2532 86.8596 54.7536C87.8016 55.3424 87.6986 56.9763 86.8596 58.3746C86.0206 59.773 84.269 60.4942 83.5478 60.0527C81.9286 59.0223 82.1347 57.0204 83.533 55.7987Z" fill="#003355"/>
</g>
<path d="M161.516 76.0971C157.998 79.1293 156.836 80.7337 156.733 82.3676C156.733 82.4854 156.512 85.547 151.625 91.111C151.478 91.2729 151.331 91.4495 151.169 91.6261C151.066 91.7439 150.992 92.3327 150.889 92.4504C143.367 101.032 113.914 108.745 111.426 121.536C110.808 124.716 110.425 127.836 110.455 130.883C110.455 130.986 110.455 131.074 110.455 131.177C110.455 131.222 110.455 131.28 110.455 131.325C110.455 131.575 110.469 131.81 110.484 132.061C110.484 132.178 110.499 132.311 110.499 132.429C110.499 132.546 110.514 132.679 110.528 132.797C110.543 132.914 110.543 133.032 110.558 133.165C110.572 133.282 110.572 133.415 110.587 133.532C110.617 133.783 110.631 134.018 110.661 134.254C110.675 134.357 110.69 134.445 110.705 134.548C110.72 134.695 110.749 134.843 110.764 134.975C110.779 135.093 110.808 135.211 110.823 135.328C110.837 135.446 110.867 135.564 110.882 135.696C110.926 135.932 110.97 136.182 111.014 136.418C111.014 136.432 111.014 136.447 111.014 136.447C111.485 138.832 110.572 141.29 108.674 142.82C108.32 143.115 108.011 143.321 107.79 143.453C105.494 144.778 96.7067 146.53 91.1133 120.859C82.7232 82.2498 103.89 78.4816 111.691 74.1394C112.25 75.1256 112.928 76.0529 113.649 76.8625C114.503 77.8193 115.4 78.6288 116.387 79.409C118.359 80.9692 120.537 82.2351 122.819 83.2213C125.101 84.2222 127.47 84.9288 129.928 85.3556C132.387 85.7825 134.86 85.9739 137.347 85.7236C137.509 85.7089 137.656 85.6942 137.818 85.6795C137.965 85.6648 138.127 85.65 138.274 85.6206L139.158 85.5028L140.939 85.2526C142.116 85.076 143.309 84.8846 144.486 84.6786C145.664 84.4578 146.856 84.2075 148.019 83.9131C149.196 83.6188 150.359 83.2802 151.507 82.8533C152.008 82.6767 152.508 82.4706 153.009 82.2646C155.025 80.7926 160.059 77.5249 161.516 76.0971Z" fill="url(#paint2_linear_2859_2834)"/>
<path d="M158.19 79.2468L154.79 81.2928L155.82 81.9994C155.82 81.9994 156.659 82.9267 156.704 82.647C156.865 81.5431 158.485 79.2468 158.485 79.2468H158.19Z" fill="#6FA2AB"/>
<path opacity="0.45" d="M145.031 89.5653C144.957 89.1679 144.574 88.9029 144.177 88.9765C134.992 90.6987 114.37 104.844 113.134 106.213C111.058 108.495 109.351 111.483 108.541 113.779C106.554 119.402 106.068 125.437 105.656 131.354C103.89 122.964 102.418 107.611 109.189 101.473C110.499 100.281 123.614 89.3003 127.044 87.3868C127.294 87.2985 127.367 86.6214 127.058 86.6508C124.556 86.8128 109.027 99.8836 109.027 99.8836C103.654 104.962 102.963 112.233 103.066 118.945C103.11 122.331 103.522 125.775 103.993 129.102C104.214 130.633 105.583 134.548 104.449 135.887C101.917 134.901 100.181 127.218 99.5182 124.818C98.2965 120.388 97.0159 112.204 98.2523 106.081C98.7086 103.843 99.7243 101.724 100.696 99.6629C101.535 97.8671 108.895 88.1669 110.926 85.6794C111.102 85.4586 111.264 85.2083 111.397 84.9581C111.5 84.7815 111.5 84.5901 111.308 84.4429C111.132 84.3104 110.941 84.2516 110.779 84.3988C110.514 84.6196 110.278 84.8551 110.057 85.12C109.056 86.327 108.085 87.5487 107.055 88.7263C105.965 89.9774 100.078 97.9701 99.0472 100.149C97.5605 103.313 96.8981 106.596 96.7068 110.084C96.2505 117.93 98.0463 125.304 100.975 132.531C101.402 133.606 103.331 139.567 105.538 138.802C107.202 138.228 106.495 133.9 106.569 132.531C106.893 127.203 107.04 121.404 108.659 116.296C109.204 114.603 111.294 109.893 113.767 107.273C115.945 104.962 135.39 92.1559 144.457 90.4485C144.854 90.3454 145.104 89.9627 145.031 89.5653Z" fill="url(#paint3_linear_2859_2834)"/>
<g opacity="0.6">
<path opacity="0.6" d="M110.264 66.3966C110.131 66.3966 110.013 66.3378 109.925 66.2347C109.778 66.0434 109.807 65.7637 109.999 65.6165L114.9 61.6717C115.092 61.5245 115.371 61.5539 115.519 61.7453C115.666 61.9367 115.636 62.2163 115.445 62.3635L110.543 66.3083C110.455 66.3672 110.367 66.3966 110.264 66.3966Z" fill="#FFA173"/>
</g>
<g opacity="0.6">
<path opacity="0.6" d="M118.33 71.2541C118.197 71.2541 118.08 71.1953 117.991 71.0922C117.83 70.9009 117.859 70.6212 118.05 70.474L121.76 67.3829C121.951 67.221 122.231 67.2505 122.378 67.4418C122.54 67.6332 122.51 67.9128 122.319 68.06L118.61 71.1511C118.536 71.2247 118.433 71.2541 118.33 71.2541Z" fill="#FFA173"/>
</g>
<g opacity="0.6">
<path opacity="0.6" d="M167.051 63.2173C166.934 63.2173 166.831 63.1731 166.742 63.0848L164.343 60.6561C164.166 60.4795 164.166 60.1998 164.343 60.0379C164.52 59.876 164.799 59.8613 164.961 60.0379L167.361 62.4666C167.537 62.6432 167.537 62.9229 167.361 63.0848C167.272 63.1731 167.169 63.2173 167.051 63.2173Z" fill="#FFA173"/>
</g>
<g opacity="0.6">
<path opacity="0.6" d="M166.536 65.5282C166.419 65.5282 166.316 65.484 166.227 65.3957L163.371 62.5107C163.195 62.3341 163.195 62.0544 163.371 61.8925C163.548 61.7159 163.828 61.7159 163.99 61.8925L166.845 64.7775C167.022 64.9541 167.022 65.2338 166.845 65.3957C166.757 65.484 166.654 65.5282 166.536 65.5282Z" fill="#FFA173"/>
</g>
<g opacity="0.6">
<path opacity="0.6" d="M165.785 68.104C165.668 68.104 165.55 68.0598 165.462 67.9568L161.87 64.0708C161.708 63.8942 161.723 63.6145 161.9 63.4526C162.076 63.2907 162.356 63.3054 162.518 63.4821L166.109 67.368C166.271 67.5446 166.256 67.8243 166.08 67.9862C166.006 68.0598 165.888 68.104 165.785 68.104Z" fill="#FFA173"/>
</g>
<g opacity="0.6">
<path opacity="0.6" d="M110.705 68.6045C110.573 68.6045 110.455 68.5456 110.367 68.4426C110.205 68.2512 110.234 67.9716 110.426 67.8244L116.637 62.702C116.829 62.5401 117.108 62.5695 117.256 62.7609C117.418 62.9523 117.388 63.2319 117.197 63.3791L110.985 68.5015C110.897 68.5751 110.808 68.6045 110.705 68.6045Z" fill="#FFA173"/>
</g>
<g opacity="0.6">
<path opacity="0.6" d="M115.048 71.1068C114.915 71.1068 114.797 71.0479 114.709 70.9449C114.547 70.7536 114.576 70.4739 114.768 70.3267L121.009 65.0865C121.2 64.9246 121.48 64.9541 121.627 65.1454C121.789 65.3368 121.76 65.6165 121.568 65.7636L115.327 71.0038C115.254 71.0774 115.151 71.1068 115.048 71.1068Z" fill="#FFA173"/>
</g>
<g opacity="0.6">
<path opacity="0.6" d="M111.559 70.9596C111.427 70.9596 111.309 70.9007 111.22 70.7976C111.059 70.6063 111.088 70.3266 111.279 70.1794L118.801 63.8353C118.992 63.6734 119.272 63.7029 119.419 63.8942C119.581 64.0856 119.552 64.3652 119.36 64.5124L111.839 70.8565C111.765 70.9301 111.662 70.9596 111.559 70.9596Z" fill="#FFA173"/>
</g>
<g filter="url(#filter0_d_2859_2834)">
<path d="M156.968 64.1446C159.265 63.703 161.325 61.2595 162.267 61.2154C162.635 61.2006 162.812 61.0976 163.018 61.5392C163.195 61.9366 162.812 62.2899 162.562 62.496C161.62 63.2761 161.443 63.8502 160.089 64.7775C159.147 65.4251 157.307 66.1317 155.791 66.0286C154.157 65.8815 153.053 65.6607 151.861 64.4978C151.566 64.2034 151.36 63.9385 151.434 63.4822C151.699 62.0691 153.921 64.7186 156.968 64.1446Z" fill="#003355"/>
</g>
<g filter="url(#filter1_d_2859_2834)">
<path d="M129.693 62.3785C128.766 61.2009 127.838 63.3794 127.426 63.8357C126.499 64.8661 125.292 65.3666 123.879 65.1163C121.686 64.7336 119.301 61.8044 117.02 61.9811C114.812 62.1577 116.843 63.2469 117.638 63.6738C119.139 64.4981 120.449 65.6462 122.024 66.338C123.776 67.1035 125.557 67.4714 127.191 66.3086C128.118 65.6757 130.606 63.5413 129.693 62.3785Z" fill="#003355"/>
</g>
<path d="M122.525 51.1916C121.377 50.9119 119.566 52.7371 118.639 51.7509C117.594 50.647 121.774 49.2044 122.157 49.1456C128.634 48.1005 127.397 51.5596 122.525 51.1916Z" fill="#003355"/>
<path d="M156.159 48.5863C155.894 46.2606 163.077 49.2634 162.621 50.3085C162.4 50.809 156.483 50.7943 156.159 48.5863Z" fill="#003355"/>
<path d="M149.657 15.4319C155.712 9.2438 139.55 -0.517874 131.73 4.51183C126.942 7.60424 126.428 13.9467 120.558 16.1842C117.739 16.8277 114.544 17.4857 111.834 18.4828C108.92 19.5449 103.164 21.455 104.813 26.3647C107.45 34.1931 112.547 25.3417 115.479 23.8669C121.822 20.6776 130.457 19.5098 137.23 21.5299C137.446 21.6001 141.236 26.4083 142.124 26.247C144.239 25.8462 143.297 21.9246 149.657 15.4319Z" fill="url(#paint4_linear_2859_2834)"/>
<path d="M135.874 1.78764C128.183 2.83046 127.299 10.9076 121.169 14.1964C116.577 16.6451 107.655 15.6888 104.647 20.5787C103.848 21.8771 101.81 26.7935 105.343 29.3477C105.96 29.7027 107.534 30.4529 107.8 30.4845C108.098 30.505 108.495 29.5591 108.495 29.5591L108.48 29.5573C108.191 29.7158 106.923 29.1648 106.493 28.8766C105.353 28.252 104.435 27.5351 104.746 24.0294C104.997 21.2873 107.374 20.0726 109.623 19.3023C111.622 18.6208 121.451 16.1124 122.379 15.6149C126.538 13.3965 127.45 8.88001 131.155 5.94066C136.136 1.98178 144.152 3.12684 147.859 8.874C151.362 14.33 142.085 24.6859 143.284 25.6882C144.557 21.4073 149.729 19.8725 150.798 14.9152C152.392 7.42624 142.303 0.906051 135.874 1.78764Z" fill="url(#paint5_linear_2859_2834)"/>
<path d="M107.657 30.4233C112.998 33.3998 119.209 30.0614 124.589 28.5366C127.521 27.6991 129.779 27.6116 132.744 27.7563C134.859 27.8595 143.948 28.8058 143.621 28.2778C142.251 18.9989 130.004 19.4116 121.362 21.3939C118.512 22.0484 115.532 23.7992 113.234 25.4828C112.678 25.8762 107.657 30.4233 107.657 30.4233Z" fill="url(#paint6_linear_2859_2834)"/>
<path d="M137.84 17.1699C135.282 16.8279 133.826 15.0742 133.806 12.2348C134.171 11.2071 133.922 8.9624 136.269 8.91852C137.993 8.8633 143.642 9.48949 143.789 11.9279C143.925 13.9883 141.087 17.6015 137.84 17.1699Z" fill="url(#paint7_linear_2859_2834)"/>
<path d="M138.674 12.1929C139.892 12.9417 141.404 12.7124 142.05 11.6807C142.696 10.649 142.232 9.20565 141.013 8.45686C139.795 7.70808 138.284 7.93742 137.638 8.96911C136.992 10.0008 137.456 11.4441 138.674 12.1929Z" fill="#FF8A73"/>
<path d="M127.632 105.227C126.675 104.77 70.9033 75.0665 73.0229 47.703C72.9493 47.5117 71.1829 47.2909 70.2556 47.5853C68.8278 48.0563 66.0164 50.588 65.2952 52.7371C63.0431 59.4639 70.6531 69.6792 73.9502 73.2119C93.2769 93.8191 128.913 105.83 127.632 105.227Z" fill="url(#paint8_linear_2859_2834)"/>
<path opacity="0.6" d="M113.178 72.9913C113.443 73.4623 113.737 73.9334 114.076 74.3749C114.414 74.8165 114.768 75.2434 115.165 75.6555C115.945 76.4798 116.799 77.2305 117.712 77.9223C119.537 79.3207 121.553 80.4688 123.673 81.4109C125.793 82.3382 128 83.0595 130.267 83.5158C132.534 83.9721 134.845 84.1781 137.141 84.0457C137.436 84.0309 137.715 84.0015 138.01 83.9868L138.893 83.9132L140.659 83.7365C141.837 83.6188 143.014 83.4863 144.192 83.3244C145.369 83.1625 146.532 82.9859 147.68 82.7651C148.829 82.5443 149.977 82.2646 151.095 81.9408C152.214 81.6169 153.333 81.2195 154.393 80.7485C155.467 80.2775 156.512 79.7328 157.498 79.0999C158.646 78.3934 159.75 77.628 160.766 76.6859C161.531 75.9794 162.989 74.478 163.092 74.5516C163.195 74.6252 161.973 75.9647 161.973 75.9647L161.37 76.6417L160.751 77.3041C159.912 78.1579 158.853 78.9527 157.881 79.6887C156.91 80.4099 155.864 81.0576 154.79 81.6169C153.715 82.1763 152.582 82.662 151.449 83.0742C150.3 83.4863 149.138 83.8249 147.96 84.1193C146.783 84.4136 145.605 84.6492 144.413 84.87C143.22 85.076 142.028 85.2527 140.851 85.4293L139.07 85.6648L138.172 85.7826C137.862 85.812 137.553 85.8562 137.244 85.8709C136.008 85.9739 134.771 85.9886 133.535 85.915C132.299 85.8562 131.077 85.709 129.87 85.4734C127.441 85.0319 125.071 84.2959 122.819 83.3097C120.567 82.3235 118.418 81.0723 116.46 79.5415C115.489 78.7761 114.562 77.9223 113.723 76.995C112.884 76.053 112.133 75.0226 111.559 73.845C111.353 73.4035 111.529 72.8736 111.971 72.6675C112.442 72.4025 112.957 72.5644 113.178 72.9913Z" fill="#003355"/>
<path d="M60.1584 86.1799C60.8797 90.4486 57.6415 97.9997 62.7933 108.509C67.9452 119.019 82.9002 123.7 85.6969 121.978C89.3179 119.755 80.3832 107.376 79.7797 105.389C79.1615 103.387 78.7051 93.9224 78.7051 93.9224" fill="#19576D"/>
<path d="M61.1152 86.4597C61.8365 90.7284 58.0242 97.7201 63.1613 108.23C68.3131 118.74 83.6213 123.082 85.6968 121.963C88.6996 120.329 79.6912 107.523 79.073 105.521C78.4548 103.52 77.763 92.0826 77.763 92.0826" fill="url(#paint9_linear_2859_2834)"/>
<path d="M126.602 137.256C126.602 124.274 113.075 113.749 96.3976 113.749C83.253 113.749 72.0662 120.285 67.9153 129.411C64.7506 129.087 60.5997 129.941 60.5997 133.782C60.5703 142.953 68.3422 150.769 75.6872 155.067C73.9503 156.612 73.2143 158.6 74.0239 159.542C74.8629 160.528 77.0267 160.042 78.8813 158.467C79.3376 158.07 79.7351 157.657 80.0589 157.231C80.7507 157.51 81.4131 157.746 82.046 157.937C86.3147 159.733 91.2016 160.763 96.3976 160.763C101.181 160.763 105.7 159.895 109.719 158.364C110.087 158.923 110.572 159.497 111.176 160.013C113.031 161.588 115.194 162.059 116.033 161.087C116.872 160.101 116.048 158.04 114.193 156.465C114.149 156.421 114.09 156.392 114.046 156.347C121.656 152.064 126.602 145.116 126.602 137.256Z" fill="url(#paint10_linear_2859_2834)"/>
<path d="M132.725 138.684C131.754 138.684 130.871 138.213 130.238 137.33C129.178 135.873 128.972 133.65 129.649 131.81C128.633 131.913 127.515 132.178 126.308 132.59C125.925 132.723 125.498 132.517 125.365 132.134C125.233 131.751 125.439 131.324 125.822 131.192C127.691 130.529 129.237 130.279 130.503 130.265C131.356 129.205 133.02 128.012 136.081 128.395C136.479 128.454 136.773 128.822 136.714 129.219C136.655 129.617 136.287 129.911 135.89 129.852C134.477 129.676 133.299 129.882 132.431 130.456C133.667 130.75 134.477 131.295 134.977 131.751C136.155 132.84 136.626 134.43 136.229 135.902C135.861 137.256 134.801 138.257 133.388 138.581C133.167 138.655 132.946 138.684 132.725 138.684ZM131.268 131.795C130.414 133.37 130.679 135.431 131.43 136.476C131.872 137.094 132.431 137.33 133.079 137.183C133.962 136.991 134.595 136.403 134.816 135.564C135.066 134.621 134.757 133.591 133.976 132.87C133.329 132.252 132.401 131.884 131.268 131.795Z" fill="#F5EBE7"/>
<path d="M77.1886 132.678C78.1804 132.678 78.9844 131.874 78.9844 130.883C78.9844 129.891 78.1804 129.087 77.1886 129.087C76.1968 129.087 75.3928 129.891 75.3928 130.883C75.3928 131.874 76.1968 132.678 77.1886 132.678Z" fill="#EEF1DC"/>
<path d="M77.1885 133.415C75.7902 133.415 74.6567 132.281 74.6567 130.883C74.6567 129.484 75.7902 128.351 77.1885 128.351C78.5868 128.351 79.7203 129.484 79.7203 130.883C79.7203 132.281 78.5868 133.415 77.1885 133.415ZM77.1885 129.823C76.5997 129.823 76.1287 130.294 76.1287 130.883C76.1287 131.472 76.5997 131.943 77.1885 131.943C77.7773 131.943 78.2483 131.472 78.2483 130.883C78.2483 130.294 77.7773 129.823 77.1885 129.823Z" fill="#99AABB"/>
<path d="M76.5261 129.558C76.3201 129.558 76.1287 129.485 75.9815 129.323L74.8482 128.086C74.5686 127.792 74.598 127.321 74.8924 127.041C75.1867 126.762 75.6577 126.791 75.9374 127.085L77.0707 128.322C77.3504 128.616 77.3209 129.087 77.0265 129.367C76.8793 129.499 76.7027 129.558 76.5261 129.558Z" fill="#99AABB"/>
<path d="M75.4073 130.942C75.2601 130.942 75.1129 130.898 74.9805 130.809L73.7294 129.926C73.3909 129.691 73.3173 129.234 73.5528 128.896C73.7882 128.557 74.2445 128.484 74.583 128.719L75.8341 129.602C76.1726 129.838 76.2463 130.294 76.0108 130.633C75.8636 130.839 75.6428 130.942 75.4073 130.942Z" fill="#99AABB"/>
<path d="M178.169 106.07H211.391C214.629 106.07 217.25 103.45 217.25 100.212V90.1145C217.25 86.8762 214.629 84.2561 211.391 84.2561H178.169C174.931 84.2561 172.311 86.8762 172.311 90.1145V100.212C172.326 103.45 174.946 106.07 178.169 106.07Z" fill="url(#paint11_linear_2859_2834)"/>
<path d="M178.169 106.806H211.391C215.027 106.806 217.985 103.848 217.985 100.212V90.1146C217.985 86.4789 215.027 83.5203 211.391 83.5203H178.169C174.533 83.5203 171.575 86.4789 171.575 90.1146V100.212C171.59 103.848 174.548 106.806 178.169 106.806ZM211.391 84.9922C214.217 84.9922 216.513 87.2884 216.513 90.1146V100.212C216.513 103.038 214.217 105.335 211.391 105.335H178.169C175.358 105.335 173.061 103.038 173.047 100.212V90.1146C173.047 87.2884 175.343 84.9922 178.169 84.9922H211.391Z" fill="url(#paint12_linear_2859_2834)"/>
<path d="M208.285 84.9773C208.285 89.7611 212.157 93.6324 216.94 93.6324C217.043 93.6324 217.161 93.6324 217.264 93.6324V89.1871C217.264 86.464 215.056 84.2708 212.348 84.2708H208.33C208.3 84.4915 208.285 84.7418 208.285 84.9773Z" fill="url(#paint13_linear_2859_2834)"/>
<path d="M216.94 94.3687H218V89.1874C218 86.0669 215.468 83.5352 212.348 83.5352H207.682L207.594 84.1681C207.564 84.4183 207.55 84.698 207.55 84.9777C207.55 90.1589 211.759 94.3687 216.94 94.3687ZM212.348 85.0071C214.659 85.0071 216.528 86.8765 216.528 89.1874V92.882C212.363 92.6612 209.036 89.2169 209.021 85.0071H212.348Z" fill="url(#paint14_linear_2859_2834)"/>
<path d="M216.41 96.9739C211.627 97.0033 207.785 100.889 207.799 105.673C207.799 105.776 207.799 105.894 207.814 105.997L212.259 105.967C214.982 105.953 217.176 103.73 217.161 101.022L217.146 97.0033C216.911 96.9739 216.661 96.9739 216.41 96.9739Z" fill="url(#paint15_linear_2859_2834)"/>
<path d="M207.181 106.733L212.274 106.704C215.395 106.689 217.927 104.142 217.912 101.022L217.897 96.3557L217.25 96.2821C216.97 96.2527 216.69 96.2527 216.425 96.2527C211.259 96.2821 207.064 100.521 207.078 105.688C207.078 105.806 207.078 105.953 207.108 106.115L207.181 106.733ZM216.411 97.7099L216.425 101.022C216.44 103.333 214.571 105.217 212.26 105.232L208.55 105.261C208.756 101.081 212.201 97.7393 216.411 97.7099Z" fill="url(#paint16_linear_2859_2834)"/>
<path d="M181.305 85.0217C181.305 89.8056 177.433 93.6768 172.649 93.6768C172.546 93.6768 172.429 93.6768 172.326 93.6768V89.2315C172.326 86.5084 174.534 84.3152 177.242 84.3152H181.26C181.29 84.536 181.305 84.7862 181.305 85.0217Z" fill="url(#paint17_linear_2859_2834)"/>
<path d="M171.59 94.4126H172.65C177.831 94.4126 182.041 90.2029 182.041 85.0216C182.041 84.7419 182.026 84.4623 181.996 84.212L181.908 83.5791H177.242C174.121 83.5791 171.59 86.1109 171.59 89.2314V94.4126ZM180.569 85.051C180.554 89.2608 177.227 92.7199 173.062 92.926V89.2314C173.062 86.9204 174.931 85.051 177.242 85.051H180.569Z" fill="url(#paint18_linear_2859_2834)"/>
<path d="M173.179 97.0032C177.963 97.0326 181.805 100.919 181.79 105.702C181.79 105.805 181.79 105.923 181.776 106.026L177.33 105.997C174.607 105.982 172.414 103.759 172.429 101.051L172.443 97.0326C172.679 97.0179 172.929 97.0032 173.179 97.0032Z" fill="url(#paint19_linear_2859_2834)"/>
<path d="M182.408 106.762L182.497 106.129C182.526 105.968 182.526 105.82 182.526 105.703C182.541 100.536 178.346 96.2968 173.179 96.2673C172.914 96.2673 172.664 96.2821 172.399 96.2968L171.707 96.3409L171.693 101.051C171.678 104.172 174.21 106.718 177.33 106.733L182.408 106.762ZM173.179 97.7393C177.404 97.7687 180.848 101.11 181.054 105.29L177.345 105.261C175.034 105.246 173.165 103.362 173.179 101.051V97.7393Z" fill="url(#paint20_linear_2859_2834)"/>
<path d="M194.743 100.124C192.077 100.124 189.915 97.9622 189.915 95.2957C189.915 92.6293 192.077 90.4678 194.743 90.4678C197.41 90.4678 199.571 92.6293 199.571 95.2957C199.571 97.9622 197.41 100.124 194.743 100.124Z" fill="url(#paint21_linear_2859_2834)"/>
<path d="M39.8307 119.416H6.60884C3.37056 119.416 0.750488 116.796 0.750488 113.558V103.46C0.750488 100.222 3.37056 97.6021 6.60884 97.6021H39.8307C43.069 97.6021 45.689 100.222 45.689 103.46V113.558C45.6743 116.796 43.0542 119.416 39.8307 119.416Z" fill="url(#paint22_linear_2859_2834)"/>
<path d="M39.8308 120.153H6.60898C2.97327 120.153 0.0146484 117.194 0.0146484 113.558V103.461C0.0146484 99.8251 2.97327 96.8665 6.60898 96.8665H39.8308C43.4666 96.8665 46.4252 99.8251 46.4252 103.461V113.558C46.4105 117.194 43.4518 120.153 39.8308 120.153ZM6.60898 98.3384C3.78284 98.3384 1.4866 100.635 1.4866 103.461V113.558C1.4866 116.384 3.78284 118.681 6.60898 118.681H39.8308C42.6423 118.681 44.9385 116.384 44.9532 113.558V103.461C44.9532 100.635 42.657 98.3384 39.8308 98.3384H6.60898Z" fill="url(#paint23_linear_2859_2834)"/>
<path d="M9.71456 98.3235C9.71456 103.107 5.84335 106.979 1.05954 106.979C0.956502 106.979 0.838754 106.979 0.735718 106.979V102.533C0.735718 99.8102 2.94361 97.6169 5.65199 97.6169H9.67039C9.69983 97.8377 9.71456 98.088 9.71456 98.3235Z" fill="url(#paint24_linear_2859_2834)"/>
<path d="M1.05976 107.715H0V102.533C0 99.4128 2.53165 96.8811 5.65207 96.8811H10.318L10.4063 97.514C10.4357 97.7643 10.4505 98.0439 10.4505 98.3236C10.4505 103.505 6.24084 107.715 1.05976 107.715ZM5.65207 98.353C3.34119 98.353 1.4719 100.222 1.4719 102.533V106.228C5.63737 106.007 8.96385 102.563 8.97857 98.353H5.65207Z" fill="url(#paint25_linear_2859_2834)"/>
<path d="M1.58972 110.32C6.37349 110.349 10.2152 114.235 10.2005 119.019C10.2005 119.122 10.2005 119.24 10.1858 119.343L5.74059 119.313C3.01752 119.299 0.824344 117.076 0.839063 114.368L0.853761 110.349C1.08927 110.32 1.3395 110.32 1.58972 110.32Z" fill="url(#paint26_linear_2859_2834)"/>
<path d="M10.8185 120.079L5.72561 120.05C2.6051 120.035 0.0733572 117.489 0.0880766 114.368L0.10281 109.702L0.750449 109.628C1.03012 109.599 1.3098 109.599 1.57475 109.599C6.74126 109.628 10.9363 113.868 10.9216 119.034C10.9216 119.152 10.9216 119.299 10.8921 119.461L10.8185 120.079ZM1.58945 111.056L1.57475 114.368C1.56003 116.679 3.4294 118.563 5.74035 118.578L9.44963 118.607C9.24355 114.427 5.79919 111.086 1.58945 111.056Z" fill="url(#paint27_linear_2859_2834)"/>
<path d="M36.6954 98.3677C36.6954 103.152 40.5667 107.023 45.3505 107.023C45.4535 107.023 45.5713 107.023 45.6743 107.023V102.577C45.6743 99.8543 43.4664 97.6611 40.758 97.6611H36.7396C36.7102 97.8819 36.6954 98.1322 36.6954 98.3677Z" fill="url(#paint28_linear_2859_2834)"/>
<path d="M46.4103 107.759H45.3505C40.1692 107.759 35.9595 103.549 35.9595 98.3678C35.9595 98.0881 35.9742 97.8085 36.0036 97.5582L36.092 96.9253H40.758C43.8786 96.9253 46.4103 99.457 46.4103 102.578V107.759ZM37.4314 98.3972C37.4461 102.607 40.7727 106.066 44.9383 106.272V102.578C44.9383 100.267 43.069 98.3972 40.758 98.3972H37.4314Z" fill="url(#paint29_linear_2859_2834)"/>
<path d="M44.8207 110.349C40.0368 110.379 36.195 114.265 36.2098 119.048C36.2098 119.151 36.2097 119.269 36.2245 119.372L40.6697 119.343C43.3929 119.328 45.5861 117.105 45.5714 114.397L45.5567 110.379C45.3211 110.364 45.0709 110.349 44.8207 110.349Z" fill="url(#paint30_linear_2859_2834)"/>
<path d="M35.5916 120.108L35.5033 119.475C35.4739 119.313 35.4739 119.166 35.4739 119.049C35.4592 113.882 39.6542 109.643 44.8206 109.613C45.0855 109.613 45.3357 109.628 45.6007 109.643L46.2925 109.687L46.3072 114.397C46.3219 117.518 43.7902 120.064 40.6698 120.079L35.5916 120.108ZM44.8206 111.085C40.5962 111.115 37.1519 114.456 36.9458 118.636L40.6551 118.607C42.966 118.592 44.8353 116.708 44.8206 114.397V111.085Z" fill="url(#paint31_linear_2859_2834)"/>
<path d="M23.2566 113.47C25.923 113.47 28.0845 111.308 28.0845 108.642C28.0845 105.976 25.923 103.814 23.2566 103.814C20.5902 103.814 18.4286 105.976 18.4286 108.642C18.4286 111.308 20.5902 113.47 23.2566 113.47Z" fill="url(#paint32_linear_2859_2834)"/>
<g filter="url(#filter2_d_2859_2834)">
<path d="M43.0801 71.0666C45.2892 71.0666 47.0801 69.2758 47.0801 67.0667C47.0801 64.8575 45.2892 63.0667 43.0801 63.0667C40.8709 63.0667 39.0801 64.8575 39.0801 67.0667C39.0801 69.2758 40.8709 71.0666 43.0801 71.0666Z" fill="url(#paint33_linear_2859_2834)"/>
</g>
<g filter="url(#filter3_d_2859_2834)">
<path d="M178.906 141.091C180.839 141.091 182.406 139.524 182.406 137.591C182.406 135.658 180.839 134.091 178.906 134.091C176.973 134.091 175.406 135.658 175.406 137.591C175.406 139.524 176.973 141.091 178.906 141.091Z" fill="url(#paint34_linear_2859_2834)"/>
</g>
<g filter="url(#filter4_d_2859_2834)">
<path d="M49.5 175C51.433 175 53 173.433 53 171.5C53 169.567 51.433 168 49.5 168C47.567 168 46 169.567 46 171.5C46 173.433 47.567 175 49.5 175Z" fill="url(#paint35_linear_2859_2834)"/>
</g>
<path d="M155.055 81.3665C154.967 81.3223 152.876 82.4704 152.803 82.5146C153.377 84.0454 150.065 88.3729 148.77 89.786C140.277 99.074 127.471 99.7805 127.471 99.7805C127.471 99.7805 132.829 102.666 138.363 100.958C140.733 100.237 142.646 99.9866 144.148 99.0151C147.636 96.7778 152.155 93.7014 155.025 89.2708C155.6 88.5643 159.942 83.5891 155.055 81.3665Z" fill="url(#paint36_linear_2859_2834)"/>
<path d="M115.474 114.603C123.709 114.603 130.385 107.927 130.385 99.6923C130.385 91.4573 123.709 84.7815 115.474 84.7815C107.239 84.7815 100.563 91.4573 100.563 99.6923C100.563 107.927 107.239 114.603 115.474 114.603Z" fill="url(#paint37_linear_2859_2834)"/>
<path d="M116.932 114.603C124.768 114.603 131.121 108.25 131.121 100.414C131.121 92.577 124.768 86.2241 116.932 86.2241C109.095 86.2241 102.742 92.577 102.742 100.414C102.742 108.25 109.095 114.603 116.932 114.603Z" fill="#FDEC87"/>
<path d="M114.008 111.729C120.071 113.354 126.303 109.756 127.927 103.693C128.927 99.9609 127.949 96.1651 125.634 93.419" stroke="url(#paint38_linear_2859_2834)" stroke-width="2" stroke-linecap="round"/>
<g filter="url(#filter5_d_2859_2834)">
<path d="M117.75 101.163L109.852 99.8733L110.123 98.2088L118.022 99.4981C118.792 99.6239 119.445 99.6034 119.98 99.4368C120.515 99.2702 120.936 98.9798 121.243 98.5655C121.557 98.1524 121.765 97.6384 121.865 97.0235C121.947 96.5217 121.912 96.0226 121.761 95.5262C121.617 95.0311 121.322 94.5947 120.876 94.217C120.436 93.8406 119.814 93.5866 119.008 93.4551L115.34 92.8562L113.093 106.617L111.058 106.285L113.578 90.8489L119.282 91.78C120.448 91.9703 121.397 92.3321 122.13 92.8654C122.864 93.3916 123.379 94.0415 123.673 94.8152C123.976 95.583 124.053 96.4228 123.904 97.3346C123.743 98.3241 123.396 99.1382 122.863 99.7769C122.339 100.41 121.647 100.848 120.787 101.092C119.929 101.33 118.916 101.353 117.75 101.163ZM117.386 102.594L117.112 104.269L109.341 103.001L109.614 101.326L117.386 102.594Z" fill="#FFA800"/>
</g>
<path d="M151.949 104.461C149.447 107.994 139.57 110.747 135.125 110.335C130.326 109.893 123.378 107.082 122.966 104.491C122.628 102.386 126.425 101.297 130.974 100.487C130.974 100.487 135.493 100.59 140.512 98.7209C142.661 97.926 145.958 96.5277 147.298 95.5268C149.52 93.8782 152.773 92.1119 155.026 89.271C156.35 94.2609 156.1 98.6031 151.949 104.461Z" fill="url(#paint39_linear_2859_2834)"/>
<path opacity="0.6" d="M108.026 119.519C108.026 120.123 102.963 120.211 96.7216 120.211C90.4805 120.211 85.417 120.123 85.417 119.519C85.417 118.916 90.4805 117.709 96.7216 117.709C102.963 117.709 108.026 118.916 108.026 119.519Z" fill="#99AABB"/>
<defs>
<filter id="filter0_d_2859_2834" x="151.419" y="61.1946" width="15.6445" height="8.84424" filterUnits="userSpaceOnUse" color-interpolation-filters="sRGB">
<feFlood flood-opacity="0" result="BackgroundImageFix"/>
<feColorMatrix in="SourceAlpha" type="matrix" values="0 0 0 0 0 0 0 0 0 0 0 0 0 0 0 0 0 0 127 0" result="hardAlpha"/>
<feOffset dx="2" dy="2"/>
<feGaussianBlur stdDeviation="1"/>
<feColorMatrix type="matrix" values="0 0 0 0 0 0 0 0 0 0 0 0 0 0 0 0 0 0 0.08 0"/>
<feBlend mode="normal" in2="BackgroundImageFix" result="effect1_dropShadow_2859_2834"/>
<feBlend mode="normal" in="SourceGraphic" in2="effect1_dropShadow_2859_2834" result="shape"/>
</filter>
<filter id="filter1_d_2859_2834" x="112.022" y="61.9734" width="17.8691" height="9.07861" filterUnits="userSpaceOnUse" color-interpolation-filters="sRGB">
<feFlood flood-opacity="0" result="BackgroundImageFix"/>
<feColorMatrix in="SourceAlpha" type="matrix" values="0 0 0 0 0 0 0 0 0 0 0 0 0 0 0 0 0 0 127 0" result="hardAlpha"/>
<feOffset dx="-2" dy="2"/>
<feGaussianBlur stdDeviation="1"/>
<feColorMatrix type="matrix" values="0 0 0 0 0 0 0 0 0 0 0 0 0 0 0 0 0 0 0.08 0"/>
<feBlend mode="normal" in2="BackgroundImageFix" result="effect1_dropShadow_2859_2834"/>
<feBlend mode="normal" in="SourceGraphic" in2="effect1_dropShadow_2859_2834" result="shape"/>
</filter>
<filter id="filter2_d_2859_2834" x="29.0801" y="60.0667" width="18" height="18" filterUnits="userSpaceOnUse" color-interpolation-filters="sRGB">
<feFlood flood-opacity="0" result="BackgroundImageFix"/>
<feColorMatrix in="SourceAlpha" type="matrix" values="0 0 0 0 0 0 0 0 0 0 0 0 0 0 0 0 0 0 127 0" result="hardAlpha"/>
<feOffset dx="-5" dy="2"/>
<feGaussianBlur stdDeviation="2.5"/>
<feColorMatrix type="matrix" values="0 0 0 0 0 0 0 0 0 0 0 0 0 0 0 0 0 0 0.06 0"/>
<feBlend mode="normal" in2="BackgroundImageFix" result="effect1_dropShadow_2859_2834"/>
<feBlend mode="normal" in="SourceGraphic" in2="effect1_dropShadow_2859_2834" result="shape"/>
</filter>
<filter id="filter3_d_2859_2834" x="165.406" y="131.091" width="17" height="17" filterUnits="userSpaceOnUse" color-interpolation-filters="sRGB">
<feFlood flood-opacity="0" result="BackgroundImageFix"/>
<feColorMatrix in="SourceAlpha" type="matrix" values="0 0 0 0 0 0 0 0 0 0 0 0 0 0 0 0 0 0 127 0" result="hardAlpha"/>
<feOffset dx="-5" dy="2"/>
<feGaussianBlur stdDeviation="2.5"/>
<feColorMatrix type="matrix" values="0 0 0 0 0 0 0 0 0 0 0 0 0 0 0 0 0 0 0.06 0"/>
<feBlend mode="normal" in2="BackgroundImageFix" result="effect1_dropShadow_2859_2834"/>
<feBlend mode="normal" in="SourceGraphic" in2="effect1_dropShadow_2859_2834" result="shape"/>
</filter>
<filter id="filter4_d_2859_2834" x="36" y="165" width="17" height="17" filterUnits="userSpaceOnUse" color-interpolation-filters="sRGB">
<feFlood flood-opacity="0" result="BackgroundImageFix"/>
<feColorMatrix in="SourceAlpha" type="matrix" values="0 0 0 0 0 0 0 0 0 0 0 0 0 0 0 0 0 0 127 0" result="hardAlpha"/>
<feOffset dx="-5" dy="2"/>
<feGaussianBlur stdDeviation="2.5"/>
<feColorMatrix type="matrix" values="0 0 0 0 0 0 0 0 0 0 0 0 0 0 0 0 0 0 0.06 0"/>
<feBlend mode="normal" in2="BackgroundImageFix" result="effect1_dropShadow_2859_2834"/>
<feBlend mode="normal" in="SourceGraphic" in2="effect1_dropShadow_2859_2834" result="shape"/>
</filter>
<filter id="filter5_d_2859_2834" x="107.863" y="90.4907" width="17.804" height="19.6047" filterUnits="userSpaceOnUse" color-interpolation-filters="sRGB">
<feFlood flood-opacity="0" result="BackgroundImageFix"/>
<feColorMatrix in="SourceAlpha" type="matrix" values="0 0 0 0 0 0 0 0 0 0 0 0 0 0 0 0 0 0 127 0" result="hardAlpha"/>
<feOffset dy="1"/>
<feGaussianBlur stdDeviation="0.5"/>
<feColorMatrix type="matrix" values="0 0 0 0 0.811765 0 0 0 0 0.721569 0 0 0 0 0.486275 0 0 0 0.6 0"/>
<feBlend mode="normal" in2="BackgroundImageFix" result="effect1_dropShadow_2859_2834"/>
<feBlend mode="normal" in="SourceGraphic" in2="effect1_dropShadow_2859_2834" result="shape"/>
</filter>
<linearGradient id="paint0_linear_2859_2834" x1="36.4574" y1="50.2817" x2="88.8057" y2="195.358" gradientUnits="userSpaceOnUse">
<stop offset="0.022018" stop-color="#BBDDCC"/>
<stop offset="1" stop-color="#88DDEE"/>
</linearGradient>
<linearGradient id="paint1_linear_2859_2834" x1="79.9214" y1="174.807" x2="210.638" y2="115.018" gradientUnits="userSpaceOnUse">
<stop stop-color="#009988"/>
<stop offset="0.577253" stop-color="#6ED1D7"/>
<stop offset="0.749418" stop-color="#6ED1D7"/>
<stop offset="1" stop-color="#009988"/>
</linearGradient>
<linearGradient id="paint2_linear_2859_2834" x1="105.584" y1="136.313" x2="133.31" y2="83.4018" gradientUnits="userSpaceOnUse">
<stop stop-color="#74BEB4"/>
<stop offset="0.457782" stop-color="#F9E7E0"/>
<stop offset="0.829277" stop-color="#F9E7E0"/>
<stop offset="1" stop-color="#74BEB4"/>
</linearGradient>
<linearGradient id="paint3_linear_2859_2834" x1="83" y1="155" x2="148.785" y2="103.015" gradientUnits="userSpaceOnUse">
<stop offset="0.390625" stop-color="#BBDDCC"/>
<stop offset="0.731402" stop-color="#88DDEE"/>
<stop offset="0.897114" stop-color="#88DDEE"/>
<stop offset="1" stop-color="#F9E7E0"/>
</linearGradient>
<linearGradient id="paint4_linear_2859_2834" x1="108.784" y1="21.0051" x2="147.613" y2="3.18018" gradientUnits="userSpaceOnUse">
<stop offset="0.03" stop-color="#C0EDF2"/>
<stop offset="0.21" stop-color="#D2F3F6"/>
<stop offset="0.633456" stop-color="#F7E6DF"/>
</linearGradient>
<linearGradient id="paint5_linear_2859_2834" x1="20378.7" y1="2578.62" x2="25865.2" y2="2525.2" gradientUnits="userSpaceOnUse">
<stop stop-color="#003355"/>
<stop offset="0.31" stop-color="#4997A9"/>
<stop offset="0.36" stop-color="#51A8BC"/>
<stop offset="0.44" stop-color="#5BBBD1"/>
<stop offset="0.5" stop-color="#5EC2D9"/>
<stop offset="0.59" stop-color="#58B6CC"/>
<stop offset="0.76" stop-color="#4997A9"/>
<stop offset="1" stop-color="#003355"/>
</linearGradient>
<linearGradient id="paint6_linear_2859_2834" x1="15748.1" y1="1949.19" x2="19878.6" y2="1494.41" gradientUnits="userSpaceOnUse">
<stop stop-color="#003355"/>
<stop offset="0.31" stop-color="#4997A9"/>
<stop offset="0.36" stop-color="#51A8BC"/>
<stop offset="0.44" stop-color="#5BBBD1"/>
<stop offset="0.5" stop-color="#5EC2D9"/>
<stop offset="0.59" stop-color="#58B6CC"/>
<stop offset="0.76" stop-color="#4997A9"/>
<stop offset="1" stop-color="#003355"/>
</linearGradient>
<linearGradient id="paint7_linear_2859_2834" x1="6801.1" y1="1165.11" x2="7091.07" y2="1197.79" gradientUnits="userSpaceOnUse">
<stop stop-color="#003355"/>
<stop offset="1" stop-color="#003355"/>
</linearGradient>
<linearGradient id="paint8_linear_2859_2834" x1="66.7233" y1="47.5925" x2="79.2702" y2="102.576" gradientUnits="userSpaceOnUse">
<stop stop-color="#003355"/>
<stop offset="0.71" stop-color="#4997A9"/>
<stop offset="1" stop-color="#003355"/>
</linearGradient>
<linearGradient id="paint9_linear_2859_2834" x1="67.0164" y1="145.261" x2="76.0599" y2="90.7545" gradientUnits="userSpaceOnUse">
<stop offset="0.410781" stop-color="#23ABA1"/>
<stop offset="0.563933" stop-color="#6ED1D7"/>
<stop offset="0.96493" stop-color="#22AAA1"/>
</linearGradient>
<linearGradient id="paint10_linear_2859_2834" x1="98.9998" y1="124" x2="85.9998" y2="177.5" gradientUnits="userSpaceOnUse">
<stop stop-color="#F3FFFF"/>
<stop offset="1" stop-color="#FF8A73"/>
</linearGradient>
<linearGradient id="paint11_linear_2859_2834" x1="176.939" y1="103.903" x2="209.568" y2="89.9715" gradientUnits="userSpaceOnUse">
<stop offset="0.447917" stop-color="#FFF7EE"/>
<stop offset="1" stop-color="#B4DDD0"/>
</linearGradient>
<linearGradient id="paint12_linear_2859_2834" x1="178.772" y1="106.836" x2="216.979" y2="83.5017" gradientUnits="userSpaceOnUse">
<stop offset="0.0485382" stop-color="#009988"/>
<stop offset="1" stop-color="#6ED1D7"/>
</linearGradient>
<linearGradient id="paint13_linear_2859_2834" x1="206.635" y1="97.6702" x2="213.478" y2="92.5226" gradientUnits="userSpaceOnUse">
<stop stop-color="#009988"/>
<stop offset="1" stop-color="#6ED1D7"/>
</linearGradient>
<linearGradient id="paint14_linear_2859_2834" x1="186.838" y1="101.336" x2="213.843" y2="88.9665" gradientUnits="userSpaceOnUse">
<stop stop-color="#009988"/>
<stop offset="1" stop-color="#6ED1D7"/>
</linearGradient>
<linearGradient id="paint15_linear_2859_2834" x1="197.836" y1="106.102" x2="217.149" y2="92.3719" gradientUnits="userSpaceOnUse">
<stop stop-color="#009988"/>
<stop offset="1" stop-color="#6ED1D7"/>
</linearGradient>
<linearGradient id="paint16_linear_2859_2834" x1="198.203" y1="106.836" x2="219.009" y2="96.3901" gradientUnits="userSpaceOnUse">
<stop stop-color="#009988"/>
<stop offset="1" stop-color="#6ED1D7"/>
</linearGradient>
<linearGradient id="paint17_linear_2859_2834" x1="173.273" y1="99.1369" x2="189.272" y2="86.1426" gradientUnits="userSpaceOnUse">
<stop stop-color="#009988"/>
<stop offset="1" stop-color="#6ED1D7"/>
</linearGradient>
<linearGradient id="paint18_linear_2859_2834" x1="173.273" y1="100.237" x2="188.54" y2="87.2515" gradientUnits="userSpaceOnUse">
<stop stop-color="#009988"/>
<stop offset="1" stop-color="#6ED1D7"/>
</linearGradient>
<linearGradient id="paint19_linear_2859_2834" x1="173.64" y1="107.569" x2="192.614" y2="97.1407" gradientUnits="userSpaceOnUse">
<stop stop-color="#009988"/>
<stop offset="1" stop-color="#6ED1D7"/>
</linearGradient>
<linearGradient id="paint20_linear_2859_2834" x1="174.373" y1="107.936" x2="190.758" y2="94.9617" gradientUnits="userSpaceOnUse">
<stop stop-color="#009988"/>
<stop offset="1" stop-color="#6ED1D7"/>
</linearGradient>
<linearGradient id="paint21_linear_2859_2834" x1="195.509" y1="90.4678" x2="195.636" y2="99.0497" gradientUnits="userSpaceOnUse">
<stop stop-color="#009988"/>
<stop offset="1" stop-color="#6ED1D7"/>
</linearGradient>
<linearGradient id="paint22_linear_2859_2834" x1="41.0607" y1="117.249" x2="8.43213" y2="103.317" gradientUnits="userSpaceOnUse">
<stop offset="0.00767732" stop-color="#FFF7EE" stop-opacity="0"/>
<stop offset="1" stop-color="#FFF7EE"/>
</linearGradient>
<linearGradient id="paint23_linear_2859_2834" x1="39.2275" y1="120.182" x2="1.02085" y2="96.8479" gradientUnits="userSpaceOnUse">
<stop offset="0.0485382" stop-color="#009988"/>
<stop offset="1" stop-color="#6ED1D7"/>
</linearGradient>
<linearGradient id="paint24_linear_2859_2834" x1="11.3649" y1="111.016" x2="4.52211" y2="105.869" gradientUnits="userSpaceOnUse">
<stop stop-color="#009988"/>
<stop offset="1" stop-color="#6ED1D7"/>
</linearGradient>
<linearGradient id="paint25_linear_2859_2834" x1="31.1621" y1="114.682" x2="4.1572" y2="102.312" gradientUnits="userSpaceOnUse">
<stop stop-color="#009988"/>
<stop offset="1" stop-color="#6ED1D7"/>
</linearGradient>
<linearGradient id="paint26_linear_2859_2834" x1="20.1638" y1="119.448" x2="0.851288" y2="105.718" gradientUnits="userSpaceOnUse">
<stop stop-color="#009988"/>
<stop offset="1" stop-color="#6ED1D7"/>
</linearGradient>
<linearGradient id="paint27_linear_2859_2834" x1="19.797" y1="120.182" x2="-1.00937" y2="109.736" gradientUnits="userSpaceOnUse">
<stop stop-color="#009988"/>
<stop offset="1" stop-color="#6ED1D7"/>
</linearGradient>
<linearGradient id="paint28_linear_2859_2834" x1="44.7268" y1="112.483" x2="28.7281" y2="99.4885" gradientUnits="userSpaceOnUse">
<stop stop-color="#009988"/>
<stop offset="1" stop-color="#6ED1D7"/>
</linearGradient>
<linearGradient id="paint29_linear_2859_2834" x1="44.7268" y1="113.583" x2="29.4597" y2="100.598" gradientUnits="userSpaceOnUse">
<stop stop-color="#009988"/>
<stop offset="1" stop-color="#6ED1D7"/>
</linearGradient>
<linearGradient id="paint30_linear_2859_2834" x1="44.3601" y1="120.915" x2="25.3859" y2="110.487" gradientUnits="userSpaceOnUse">
<stop stop-color="#009988"/>
<stop offset="1" stop-color="#6ED1D7"/>
</linearGradient>
<linearGradient id="paint31_linear_2859_2834" x1="43.6269" y1="121.282" x2="27.2421" y2="108.308" gradientUnits="userSpaceOnUse">
<stop stop-color="#009988"/>
<stop offset="1" stop-color="#6ED1D7"/>
</linearGradient>
<linearGradient id="paint32_linear_2859_2834" x1="22.4906" y1="103.814" x2="22.3641" y2="112.396" gradientUnits="userSpaceOnUse">
<stop stop-color="#009988"/>
<stop offset="1" stop-color="#6ED1D7"/>
</linearGradient>
<linearGradient id="paint33_linear_2859_2834" x1="45.5801" y1="63.0667" x2="41.9456" y2="70.8891" gradientUnits="userSpaceOnUse">
<stop offset="0.355929" stop-color="#F9E7E0"/>
<stop offset="0.821443" stop-color="#BFE7DE"/>
</linearGradient>
<linearGradient id="paint34_linear_2859_2834" x1="181.094" y1="134.091" x2="177.914" y2="140.935" gradientUnits="userSpaceOnUse">
<stop offset="0.355929" stop-color="#F9E7E0"/>
<stop offset="0.821443" stop-color="#BFE7DE"/>
</linearGradient>
<linearGradient id="paint35_linear_2859_2834" x1="51.6875" y1="168" x2="48.5073" y2="174.845" gradientUnits="userSpaceOnUse">
<stop offset="0.355929" stop-color="#F9E7E0"/>
<stop offset="0.821443" stop-color="#BFE7DE"/>
</linearGradient>
<linearGradient id="paint36_linear_2859_2834" x1="131.248" y1="101.851" x2="156.493" y2="106.895" gradientUnits="userSpaceOnUse">
<stop stop-color="#003355"/>
<stop offset="0.367653" stop-color="#4997A9"/>
<stop offset="1" stop-color="#003355"/>
</linearGradient>
<linearGradient id="paint37_linear_2859_2834" x1="101.919" y1="108.083" x2="121.33" y2="86.7363" gradientUnits="userSpaceOnUse">
<stop stop-color="#EEAA33"/>
<stop offset="1" stop-color="#FDEC87"/>
</linearGradient>
<linearGradient id="paint38_linear_2859_2834" x1="119.149" y1="111.75" x2="122.449" y2="91.2193" gradientUnits="userSpaceOnUse">
<stop stop-color="#EEAA33"/>
<stop offset="1" stop-color="#FDEC87"/>
</linearGradient>
<linearGradient id="paint39_linear_2859_2834" x1="148.823" y1="84.1584" x2="131.499" y2="114.093" gradientUnits="userSpaceOnUse">
<stop offset="0.152525" stop-color="#009988"/>
<stop offset="1" stop-color="#6ED1D7"/>
</linearGradient>
</defs>
</svg>
